<svg width="1079" height="245" viewBox="0 0 1079 245" fill="none" xmlns="http://www.w3.org/2000/svg">
<circle cx="122.5" cy="122.5" r="122.5" fill="#08152D"/>
<path d="M72.343 104.595H75.2493L69.2493 121.728H66.2962L60.3196 104.595H63.2024L66.7766 115.247C66.9641 115.755 67.1633 116.412 67.3743 117.216C67.5852 118.013 67.7219 118.607 67.7844 118.997C67.886 118.404 68.0422 117.716 68.2532 116.935C68.4641 116.154 68.636 115.576 68.7688 115.201L72.343 104.595ZM85.3274 121.728L84.7766 119.923H84.6829C84.0579 120.712 83.429 121.251 82.7962 121.54C82.1633 121.822 81.3508 121.962 80.3587 121.962C79.0852 121.962 78.0891 121.619 77.3704 120.931C76.6594 120.244 76.304 119.271 76.304 118.013C76.304 116.677 76.8001 115.669 77.7922 114.99C78.7844 114.31 80.2962 113.939 82.3274 113.876L84.5657 113.806V113.115C84.5657 112.287 84.3704 111.669 83.9797 111.263C83.5969 110.849 82.9993 110.642 82.1868 110.642C81.5227 110.642 80.886 110.74 80.2766 110.935C79.6672 111.13 79.0813 111.361 78.5188 111.626L77.6282 109.658C78.3313 109.29 79.1008 109.013 79.9368 108.826C80.7727 108.63 81.5618 108.533 82.304 108.533C83.9524 108.533 85.1946 108.892 86.0305 109.611C86.8743 110.33 87.2962 111.458 87.2962 112.997V121.728H85.3274ZM81.2258 119.853C82.2258 119.853 83.0266 119.576 83.6282 119.021C84.2376 118.458 84.5422 117.673 84.5422 116.665V115.54L82.8782 115.611C81.5813 115.658 80.636 115.876 80.0422 116.267C79.4563 116.65 79.1633 117.24 79.1633 118.037C79.1633 118.615 79.3352 119.064 79.679 119.384C80.0227 119.697 80.5383 119.853 81.2258 119.853ZM93.8938 121.728H91.1399V103.494H93.8938V121.728ZM100.597 121.728H97.843V108.767H100.597V121.728ZM97.679 105.333C97.679 104.841 97.8118 104.462 98.0774 104.197C98.3508 103.931 98.7376 103.798 99.2376 103.798C99.7219 103.798 100.097 103.931 100.363 104.197C100.636 104.462 100.773 104.841 100.773 105.333C100.773 105.802 100.636 106.173 100.363 106.447C100.097 106.712 99.7219 106.845 99.2376 106.845C98.7376 106.845 98.3508 106.712 98.0774 106.447C97.8118 106.173 97.679 105.802 97.679 105.333ZM108.917 121.962C107.3 121.962 106.038 121.376 105.132 120.205C104.226 119.033 103.773 117.388 103.773 115.271C103.773 113.146 104.23 111.494 105.144 110.314C106.066 109.126 107.339 108.533 108.964 108.533C110.667 108.533 111.964 109.162 112.855 110.419H112.995C112.863 109.49 112.796 108.755 112.796 108.216V103.494H115.562V121.728H113.406L112.925 120.029H112.796C111.913 121.318 110.62 121.962 108.917 121.962ZM109.656 119.736C110.788 119.736 111.613 119.419 112.128 118.787C112.644 118.146 112.909 117.111 112.925 115.681V115.294C112.925 113.662 112.659 112.501 112.128 111.814C111.597 111.126 110.765 110.783 109.632 110.783C108.663 110.783 107.917 111.177 107.394 111.966C106.87 112.747 106.609 113.865 106.609 115.318C106.609 116.755 106.863 117.853 107.37 118.611C107.878 119.361 108.64 119.736 109.656 119.736ZM127.609 121.728L127.058 119.923H126.964C126.339 120.712 125.71 121.251 125.077 121.54C124.445 121.822 123.632 121.962 122.64 121.962C121.366 121.962 120.37 121.619 119.652 120.931C118.941 120.244 118.585 119.271 118.585 118.013C118.585 116.677 119.081 115.669 120.073 114.99C121.066 114.31 122.577 113.939 124.609 113.876L126.847 113.806V113.115C126.847 112.287 126.652 111.669 126.261 111.263C125.878 110.849 125.281 110.642 124.468 110.642C123.804 110.642 123.167 110.74 122.558 110.935C121.948 111.13 121.363 111.361 120.8 111.626L119.909 109.658C120.613 109.29 121.382 109.013 122.218 108.826C123.054 108.63 123.843 108.533 124.585 108.533C126.234 108.533 127.476 108.892 128.312 109.611C129.156 110.33 129.577 111.458 129.577 112.997V121.728H127.609ZM123.507 119.853C124.507 119.853 125.308 119.576 125.909 119.021C126.519 118.458 126.823 117.673 126.823 116.665V115.54L125.159 115.611C123.863 115.658 122.917 115.876 122.323 116.267C121.738 116.65 121.445 117.24 121.445 118.037C121.445 118.615 121.616 119.064 121.96 119.384C122.304 119.697 122.82 119.853 123.507 119.853ZM138.249 119.736C138.921 119.736 139.593 119.63 140.265 119.419V121.494C139.96 121.626 139.566 121.736 139.081 121.822C138.605 121.915 138.109 121.962 137.593 121.962C134.984 121.962 133.679 120.587 133.679 117.837V110.853H131.909V109.634L133.808 108.626L134.745 105.884H136.445V108.767H140.136V110.853H136.445V117.79C136.445 118.455 136.609 118.947 136.937 119.267C137.273 119.58 137.71 119.736 138.249 119.736ZM145.62 121.728H142.866V108.767H145.62V121.728ZM142.702 105.333C142.702 104.841 142.835 104.462 143.101 104.197C143.374 103.931 143.761 103.798 144.261 103.798C144.745 103.798 145.12 103.931 145.386 104.197C145.659 104.462 145.796 104.841 145.796 105.333C145.796 105.802 145.659 106.173 145.386 106.447C145.12 106.712 144.745 106.845 144.261 106.845C143.761 106.845 143.374 106.712 143.101 106.447C142.835 106.173 142.702 105.802 142.702 105.333ZM161.066 115.224C161.066 117.341 160.523 118.994 159.437 120.181C158.351 121.369 156.839 121.962 154.902 121.962C153.691 121.962 152.62 121.689 151.691 121.142C150.761 120.595 150.046 119.81 149.546 118.787C149.046 117.763 148.796 116.576 148.796 115.224C148.796 113.122 149.335 111.482 150.413 110.302C151.491 109.122 153.011 108.533 154.972 108.533C156.847 108.533 158.331 109.138 159.425 110.349C160.519 111.552 161.066 113.177 161.066 115.224ZM151.632 115.224C151.632 118.216 152.738 119.712 154.948 119.712C157.136 119.712 158.23 118.216 158.23 115.224C158.23 112.263 157.128 110.783 154.925 110.783C153.769 110.783 152.929 111.165 152.406 111.931C151.89 112.697 151.632 113.794 151.632 115.224ZM175.644 121.728H172.878V113.759C172.878 112.759 172.675 112.013 172.269 111.521C171.87 111.029 171.234 110.783 170.359 110.783C169.195 110.783 168.343 111.126 167.804 111.814C167.265 112.501 166.995 113.654 166.995 115.271V121.728H164.241V108.767H166.398L166.784 110.466H166.925C167.316 109.849 167.87 109.372 168.589 109.037C169.308 108.701 170.105 108.533 170.98 108.533C174.089 108.533 175.644 110.115 175.644 113.279V121.728ZM79.3977 145.564H81.343C82.6477 145.564 83.593 145.322 84.179 144.837C84.7649 144.353 85.0579 143.634 85.0579 142.681C85.0579 141.712 84.7415 141.017 84.1087 140.595C83.4758 140.173 82.5227 139.962 81.2493 139.962H79.3977V145.564ZM79.3977 147.884V154.728H76.5969V137.595H81.4368C83.6477 137.595 85.2844 138.009 86.3469 138.837C87.4094 139.665 87.9407 140.915 87.9407 142.587C87.9407 144.72 86.8313 146.24 84.6126 147.146L89.4524 154.728H86.2649L82.1633 147.884H79.3977ZM103.152 148.224C103.152 150.341 102.609 151.994 101.523 153.181C100.437 154.369 98.9251 154.962 96.9876 154.962C95.7766 154.962 94.7063 154.689 93.7766 154.142C92.8469 153.595 92.1321 152.81 91.6321 151.787C91.1321 150.763 90.8821 149.576 90.8821 148.224C90.8821 146.122 91.4212 144.482 92.4993 143.302C93.5774 142.122 95.0969 141.533 97.0579 141.533C98.9329 141.533 100.417 142.138 101.511 143.349C102.605 144.552 103.152 146.177 103.152 148.224ZM93.718 148.224C93.718 151.216 94.8235 152.712 97.0344 152.712C99.2219 152.712 100.316 151.216 100.316 148.224C100.316 145.263 99.2141 143.783 97.011 143.783C95.8547 143.783 95.0149 144.165 94.4915 144.931C93.9758 145.697 93.718 146.794 93.718 148.224ZM115.468 154.728L115.081 153.029H114.941C114.558 153.63 114.011 154.103 113.3 154.447C112.597 154.79 111.792 154.962 110.886 154.962C109.316 154.962 108.144 154.572 107.37 153.79C106.597 153.009 106.21 151.826 106.21 150.24V141.767H108.988V149.759C108.988 150.751 109.191 151.497 109.597 151.997C110.003 152.49 110.64 152.736 111.507 152.736C112.663 152.736 113.511 152.392 114.05 151.705C114.597 151.009 114.87 149.849 114.87 148.224V141.767H117.636V154.728H115.468ZM132.964 154.728H130.198V146.759C130.198 145.759 129.995 145.013 129.589 144.521C129.191 144.029 128.554 143.783 127.679 143.783C126.515 143.783 125.663 144.126 125.124 144.814C124.585 145.501 124.316 146.654 124.316 148.271V154.728H121.562V141.767H123.718L124.105 143.466H124.245C124.636 142.849 125.191 142.372 125.909 142.037C126.628 141.701 127.425 141.533 128.3 141.533C131.409 141.533 132.964 143.115 132.964 146.279V154.728ZM141.167 154.962C139.55 154.962 138.288 154.376 137.382 153.205C136.476 152.033 136.023 150.388 136.023 148.271C136.023 146.146 136.48 144.494 137.394 143.314C138.316 142.126 139.589 141.533 141.214 141.533C142.917 141.533 144.214 142.162 145.105 143.419H145.245C145.113 142.49 145.046 141.755 145.046 141.216V136.494H147.812V154.728H145.656L145.175 153.029H145.046C144.163 154.318 142.87 154.962 141.167 154.962ZM141.906 152.736C143.038 152.736 143.863 152.419 144.378 151.787C144.894 151.146 145.159 150.111 145.175 148.681V148.294C145.175 146.662 144.909 145.501 144.378 144.814C143.847 144.126 143.015 143.783 141.882 143.783C140.913 143.783 140.167 144.177 139.644 144.966C139.12 145.747 138.859 146.865 138.859 148.318C138.859 149.755 139.113 150.853 139.62 151.611C140.128 152.361 140.89 152.736 141.906 152.736ZM165.156 154.728H162.402V143.665C162.402 142.345 162.433 141.298 162.495 140.525C162.316 140.712 162.093 140.919 161.827 141.146C161.57 141.372 160.695 142.091 159.202 143.302L157.82 141.556L162.859 137.595H165.156V154.728Z" fill="white"/>
<circle cx="400.5" cy="122.5" r="122.5" fill="#08152D"/>
<path d="M350.343 104.595H353.249L347.249 121.728H344.296L338.32 104.595H341.202L344.777 115.247C344.964 115.755 345.163 116.412 345.374 117.216C345.585 118.013 345.722 118.607 345.784 118.997C345.886 118.404 346.042 117.716 346.253 116.935C346.464 116.154 346.636 115.576 346.769 115.201L350.343 104.595ZM363.327 121.728L362.777 119.923H362.683C362.058 120.712 361.429 121.251 360.796 121.54C360.163 121.822 359.351 121.962 358.359 121.962C357.085 121.962 356.089 121.619 355.37 120.931C354.659 120.244 354.304 119.271 354.304 118.013C354.304 116.677 354.8 115.669 355.792 114.99C356.784 114.31 358.296 113.939 360.327 113.876L362.566 113.806V113.115C362.566 112.287 362.37 111.669 361.98 111.263C361.597 110.849 360.999 110.642 360.187 110.642C359.523 110.642 358.886 110.74 358.277 110.935C357.667 111.13 357.081 111.361 356.519 111.626L355.628 109.658C356.331 109.29 357.101 109.013 357.937 108.826C358.773 108.63 359.562 108.533 360.304 108.533C361.952 108.533 363.195 108.892 364.031 109.611C364.874 110.33 365.296 111.458 365.296 112.997V121.728H363.327ZM359.226 119.853C360.226 119.853 361.027 119.576 361.628 119.021C362.238 118.458 362.542 117.673 362.542 116.665V115.54L360.878 115.611C359.581 115.658 358.636 115.876 358.042 116.267C357.456 116.65 357.163 117.24 357.163 118.037C357.163 118.615 357.335 119.064 357.679 119.384C358.023 119.697 358.538 119.853 359.226 119.853ZM371.894 121.728H369.14V103.494H371.894V121.728ZM378.597 121.728H375.843V108.767H378.597V121.728ZM375.679 105.333C375.679 104.841 375.812 104.462 376.077 104.197C376.351 103.931 376.738 103.798 377.238 103.798C377.722 103.798 378.097 103.931 378.363 104.197C378.636 104.462 378.773 104.841 378.773 105.333C378.773 105.802 378.636 106.173 378.363 106.447C378.097 106.712 377.722 106.845 377.238 106.845C376.738 106.845 376.351 106.712 376.077 106.447C375.812 106.173 375.679 105.802 375.679 105.333ZM386.917 121.962C385.3 121.962 384.038 121.376 383.132 120.205C382.226 119.033 381.773 117.388 381.773 115.271C381.773 113.146 382.23 111.494 383.144 110.314C384.066 109.126 385.339 108.533 386.964 108.533C388.667 108.533 389.964 109.162 390.855 110.419H390.995C390.863 109.49 390.796 108.755 390.796 108.216V103.494H393.562V121.728H391.406L390.925 120.029H390.796C389.913 121.318 388.62 121.962 386.917 121.962ZM387.656 119.736C388.788 119.736 389.613 119.419 390.128 118.787C390.644 118.146 390.909 117.111 390.925 115.681V115.294C390.925 113.662 390.659 112.501 390.128 111.814C389.597 111.126 388.765 110.783 387.632 110.783C386.663 110.783 385.917 111.177 385.394 111.966C384.87 112.747 384.609 113.865 384.609 115.318C384.609 116.755 384.863 117.853 385.37 118.611C385.878 119.361 386.64 119.736 387.656 119.736ZM405.609 121.728L405.058 119.923H404.964C404.339 120.712 403.71 121.251 403.077 121.54C402.445 121.822 401.632 121.962 400.64 121.962C399.366 121.962 398.37 121.619 397.652 120.931C396.941 120.244 396.585 119.271 396.585 118.013C396.585 116.677 397.081 115.669 398.073 114.99C399.066 114.31 400.577 113.939 402.609 113.876L404.847 113.806V113.115C404.847 112.287 404.652 111.669 404.261 111.263C403.878 110.849 403.281 110.642 402.468 110.642C401.804 110.642 401.167 110.74 400.558 110.935C399.948 111.13 399.363 111.361 398.8 111.626L397.909 109.658C398.613 109.29 399.382 109.013 400.218 108.826C401.054 108.63 401.843 108.533 402.585 108.533C404.234 108.533 405.476 108.892 406.312 109.611C407.156 110.33 407.577 111.458 407.577 112.997V121.728H405.609ZM401.507 119.853C402.507 119.853 403.308 119.576 403.909 119.021C404.519 118.458 404.823 117.673 404.823 116.665V115.54L403.159 115.611C401.863 115.658 400.917 115.876 400.323 116.267C399.738 116.65 399.445 117.24 399.445 118.037C399.445 118.615 399.616 119.064 399.96 119.384C400.304 119.697 400.82 119.853 401.507 119.853ZM416.249 119.736C416.921 119.736 417.593 119.63 418.265 119.419V121.494C417.96 121.626 417.566 121.736 417.081 121.822C416.605 121.915 416.109 121.962 415.593 121.962C412.984 121.962 411.679 120.587 411.679 117.837V110.853H409.909V109.634L411.808 108.626L412.745 105.884H414.445V108.767H418.136V110.853H414.445V117.79C414.445 118.455 414.609 118.947 414.937 119.267C415.273 119.58 415.71 119.736 416.249 119.736ZM423.62 121.728H420.866V108.767H423.62V121.728ZM420.702 105.333C420.702 104.841 420.835 104.462 421.101 104.197C421.374 103.931 421.761 103.798 422.261 103.798C422.745 103.798 423.12 103.931 423.386 104.197C423.659 104.462 423.796 104.841 423.796 105.333C423.796 105.802 423.659 106.173 423.386 106.447C423.12 106.712 422.745 106.845 422.261 106.845C421.761 106.845 421.374 106.712 421.101 106.447C420.835 106.173 420.702 105.802 420.702 105.333ZM439.066 115.224C439.066 117.341 438.523 118.994 437.437 120.181C436.351 121.369 434.839 121.962 432.902 121.962C431.691 121.962 430.62 121.689 429.691 121.142C428.761 120.595 428.046 119.81 427.546 118.787C427.046 117.763 426.796 116.576 426.796 115.224C426.796 113.122 427.335 111.482 428.413 110.302C429.491 109.122 431.011 108.533 432.972 108.533C434.847 108.533 436.331 109.138 437.425 110.349C438.519 111.552 439.066 113.177 439.066 115.224ZM429.632 115.224C429.632 118.216 430.738 119.712 432.948 119.712C435.136 119.712 436.23 118.216 436.23 115.224C436.23 112.263 435.128 110.783 432.925 110.783C431.769 110.783 430.929 111.165 430.406 111.931C429.89 112.697 429.632 113.794 429.632 115.224ZM453.644 121.728H450.878V113.759C450.878 112.759 450.675 112.013 450.269 111.521C449.87 111.029 449.234 110.783 448.359 110.783C447.195 110.783 446.343 111.126 445.804 111.814C445.265 112.501 444.995 113.654 444.995 115.271V121.728H442.241V108.767H444.398L444.784 110.466H444.925C445.316 109.849 445.87 109.372 446.589 109.037C447.308 108.701 448.105 108.533 448.98 108.533C452.089 108.533 453.644 110.115 453.644 113.279V121.728ZM357.398 145.564H359.343C360.648 145.564 361.593 145.322 362.179 144.837C362.765 144.353 363.058 143.634 363.058 142.681C363.058 141.712 362.741 141.017 362.109 140.595C361.476 140.173 360.523 139.962 359.249 139.962H357.398V145.564ZM357.398 147.884V154.728H354.597V137.595H359.437C361.648 137.595 363.284 138.009 364.347 138.837C365.409 139.665 365.941 140.915 365.941 142.587C365.941 144.72 364.831 146.24 362.613 147.146L367.452 154.728H364.265L360.163 147.884H357.398ZM381.152 148.224C381.152 150.341 380.609 151.994 379.523 153.181C378.437 154.369 376.925 154.962 374.988 154.962C373.777 154.962 372.706 154.689 371.777 154.142C370.847 153.595 370.132 152.81 369.632 151.787C369.132 150.763 368.882 149.576 368.882 148.224C368.882 146.122 369.421 144.482 370.499 143.302C371.577 142.122 373.097 141.533 375.058 141.533C376.933 141.533 378.417 142.138 379.511 143.349C380.605 144.552 381.152 146.177 381.152 148.224ZM371.718 148.224C371.718 151.216 372.823 152.712 375.034 152.712C377.222 152.712 378.316 151.216 378.316 148.224C378.316 145.263 377.214 143.783 375.011 143.783C373.855 143.783 373.015 144.165 372.491 144.931C371.976 145.697 371.718 146.794 371.718 148.224ZM393.468 154.728L393.081 153.029H392.941C392.558 153.63 392.011 154.103 391.3 154.447C390.597 154.79 389.792 154.962 388.886 154.962C387.316 154.962 386.144 154.572 385.37 153.79C384.597 153.009 384.21 151.826 384.21 150.24V141.767H386.988V149.759C386.988 150.751 387.191 151.497 387.597 151.997C388.003 152.49 388.64 152.736 389.507 152.736C390.663 152.736 391.511 152.392 392.05 151.705C392.597 151.009 392.87 149.849 392.87 148.224V141.767H395.636V154.728H393.468ZM410.964 154.728H408.198V146.759C408.198 145.759 407.995 145.013 407.589 144.521C407.191 144.029 406.554 143.783 405.679 143.783C404.515 143.783 403.663 144.126 403.124 144.814C402.585 145.501 402.316 146.654 402.316 148.271V154.728H399.562V141.767H401.718L402.105 143.466H402.245C402.636 142.849 403.191 142.372 403.909 142.037C404.628 141.701 405.425 141.533 406.3 141.533C409.409 141.533 410.964 143.115 410.964 146.279V154.728ZM419.167 154.962C417.55 154.962 416.288 154.376 415.382 153.205C414.476 152.033 414.023 150.388 414.023 148.271C414.023 146.146 414.48 144.494 415.394 143.314C416.316 142.126 417.589 141.533 419.214 141.533C420.917 141.533 422.214 142.162 423.105 143.419H423.245C423.113 142.49 423.046 141.755 423.046 141.216V136.494H425.812V154.728H423.656L423.175 153.029H423.046C422.163 154.318 420.87 154.962 419.167 154.962ZM419.906 152.736C421.038 152.736 421.863 152.419 422.378 151.787C422.894 151.146 423.159 150.111 423.175 148.681V148.294C423.175 146.662 422.909 145.501 422.378 144.814C421.847 144.126 421.015 143.783 419.882 143.783C418.913 143.783 418.167 144.177 417.644 144.966C417.12 145.747 416.859 146.865 416.859 148.318C416.859 149.755 417.113 150.853 417.62 151.611C418.128 152.361 418.89 152.736 419.906 152.736ZM446.683 154.728H435.07V152.642L439.488 148.201C440.792 146.865 441.656 145.919 442.077 145.365C442.507 144.802 442.82 144.275 443.015 143.783C443.21 143.29 443.308 142.763 443.308 142.201C443.308 141.427 443.073 140.818 442.605 140.372C442.144 139.927 441.503 139.705 440.683 139.705C440.027 139.705 439.39 139.826 438.773 140.068C438.163 140.31 437.456 140.747 436.652 141.38L435.163 139.564C436.116 138.759 437.042 138.189 437.941 137.853C438.839 137.517 439.796 137.349 440.812 137.349C442.406 137.349 443.683 137.767 444.644 138.603C445.605 139.431 446.085 140.548 446.085 141.955C446.085 142.728 445.945 143.462 445.663 144.158C445.39 144.853 444.964 145.572 444.386 146.314C443.816 147.048 442.863 148.044 441.527 149.302L438.55 152.185V152.302H446.683V154.728Z" fill="white"/>
<circle cx="678.5" cy="122.5" r="122.5" fill="#08152D"/>
<path d="M628.343 104.595H631.249L625.249 121.728H622.296L616.32 104.595H619.202L622.777 115.247C622.964 115.755 623.163 116.412 623.374 117.216C623.585 118.013 623.722 118.607 623.784 118.997C623.886 118.404 624.042 117.716 624.253 116.935C624.464 116.154 624.636 115.576 624.769 115.201L628.343 104.595ZM641.327 121.728L640.777 119.923H640.683C640.058 120.712 639.429 121.251 638.796 121.54C638.163 121.822 637.351 121.962 636.359 121.962C635.085 121.962 634.089 121.619 633.37 120.931C632.659 120.244 632.304 119.271 632.304 118.013C632.304 116.677 632.8 115.669 633.792 114.99C634.784 114.31 636.296 113.939 638.327 113.876L640.566 113.806V113.115C640.566 112.287 640.37 111.669 639.98 111.263C639.597 110.849 638.999 110.642 638.187 110.642C637.523 110.642 636.886 110.74 636.277 110.935C635.667 111.13 635.081 111.361 634.519 111.626L633.628 109.658C634.331 109.29 635.101 109.013 635.937 108.826C636.773 108.63 637.562 108.533 638.304 108.533C639.952 108.533 641.195 108.892 642.031 109.611C642.874 110.33 643.296 111.458 643.296 112.997V121.728H641.327ZM637.226 119.853C638.226 119.853 639.027 119.576 639.628 119.021C640.238 118.458 640.542 117.673 640.542 116.665V115.54L638.878 115.611C637.581 115.658 636.636 115.876 636.042 116.267C635.456 116.65 635.163 117.24 635.163 118.037C635.163 118.615 635.335 119.064 635.679 119.384C636.023 119.697 636.538 119.853 637.226 119.853ZM649.894 121.728H647.14V103.494H649.894V121.728ZM656.597 121.728H653.843V108.767H656.597V121.728ZM653.679 105.333C653.679 104.841 653.812 104.462 654.077 104.197C654.351 103.931 654.738 103.798 655.238 103.798C655.722 103.798 656.097 103.931 656.363 104.197C656.636 104.462 656.773 104.841 656.773 105.333C656.773 105.802 656.636 106.173 656.363 106.447C656.097 106.712 655.722 106.845 655.238 106.845C654.738 106.845 654.351 106.712 654.077 106.447C653.812 106.173 653.679 105.802 653.679 105.333ZM664.917 121.962C663.3 121.962 662.038 121.376 661.132 120.205C660.226 119.033 659.773 117.388 659.773 115.271C659.773 113.146 660.23 111.494 661.144 110.314C662.066 109.126 663.339 108.533 664.964 108.533C666.667 108.533 667.964 109.162 668.855 110.419H668.995C668.863 109.49 668.796 108.755 668.796 108.216V103.494H671.562V121.728H669.406L668.925 120.029H668.796C667.913 121.318 666.62 121.962 664.917 121.962ZM665.656 119.736C666.788 119.736 667.613 119.419 668.128 118.787C668.644 118.146 668.909 117.111 668.925 115.681V115.294C668.925 113.662 668.659 112.501 668.128 111.814C667.597 111.126 666.765 110.783 665.632 110.783C664.663 110.783 663.917 111.177 663.394 111.966C662.87 112.747 662.609 113.865 662.609 115.318C662.609 116.755 662.863 117.853 663.37 118.611C663.878 119.361 664.64 119.736 665.656 119.736ZM683.609 121.728L683.058 119.923H682.964C682.339 120.712 681.71 121.251 681.077 121.54C680.445 121.822 679.632 121.962 678.64 121.962C677.366 121.962 676.37 121.619 675.652 120.931C674.941 120.244 674.585 119.271 674.585 118.013C674.585 116.677 675.081 115.669 676.073 114.99C677.066 114.31 678.577 113.939 680.609 113.876L682.847 113.806V113.115C682.847 112.287 682.652 111.669 682.261 111.263C681.878 110.849 681.281 110.642 680.468 110.642C679.804 110.642 679.167 110.74 678.558 110.935C677.948 111.13 677.363 111.361 676.8 111.626L675.909 109.658C676.613 109.29 677.382 109.013 678.218 108.826C679.054 108.63 679.843 108.533 680.585 108.533C682.234 108.533 683.476 108.892 684.312 109.611C685.156 110.33 685.577 111.458 685.577 112.997V121.728H683.609ZM679.507 119.853C680.507 119.853 681.308 119.576 681.909 119.021C682.519 118.458 682.823 117.673 682.823 116.665V115.54L681.159 115.611C679.863 115.658 678.917 115.876 678.323 116.267C677.738 116.65 677.445 117.24 677.445 118.037C677.445 118.615 677.616 119.064 677.96 119.384C678.304 119.697 678.82 119.853 679.507 119.853ZM694.249 119.736C694.921 119.736 695.593 119.63 696.265 119.419V121.494C695.96 121.626 695.566 121.736 695.081 121.822C694.605 121.915 694.109 121.962 693.593 121.962C690.984 121.962 689.679 120.587 689.679 117.837V110.853H687.909V109.634L689.808 108.626L690.745 105.884H692.445V108.767H696.136V110.853H692.445V117.79C692.445 118.455 692.609 118.947 692.937 119.267C693.273 119.58 693.71 119.736 694.249 119.736ZM701.62 121.728H698.866V108.767H701.62V121.728ZM698.702 105.333C698.702 104.841 698.835 104.462 699.101 104.197C699.374 103.931 699.761 103.798 700.261 103.798C700.745 103.798 701.12 103.931 701.386 104.197C701.659 104.462 701.796 104.841 701.796 105.333C701.796 105.802 701.659 106.173 701.386 106.447C701.12 106.712 700.745 106.845 700.261 106.845C699.761 106.845 699.374 106.712 699.101 106.447C698.835 106.173 698.702 105.802 698.702 105.333ZM717.066 115.224C717.066 117.341 716.523 118.994 715.437 120.181C714.351 121.369 712.839 121.962 710.902 121.962C709.691 121.962 708.62 121.689 707.691 121.142C706.761 120.595 706.046 119.81 705.546 118.787C705.046 117.763 704.796 116.576 704.796 115.224C704.796 113.122 705.335 111.482 706.413 110.302C707.491 109.122 709.011 108.533 710.972 108.533C712.847 108.533 714.331 109.138 715.425 110.349C716.519 111.552 717.066 113.177 717.066 115.224ZM707.632 115.224C707.632 118.216 708.738 119.712 710.948 119.712C713.136 119.712 714.23 118.216 714.23 115.224C714.23 112.263 713.128 110.783 710.925 110.783C709.769 110.783 708.929 111.165 708.406 111.931C707.89 112.697 707.632 113.794 707.632 115.224ZM731.644 121.728H728.878V113.759C728.878 112.759 728.675 112.013 728.269 111.521C727.87 111.029 727.234 110.783 726.359 110.783C725.195 110.783 724.343 111.126 723.804 111.814C723.265 112.501 722.995 113.654 722.995 115.271V121.728H720.241V108.767H722.398L722.784 110.466H722.925C723.316 109.849 723.87 109.372 724.589 109.037C725.308 108.701 726.105 108.533 726.98 108.533C730.089 108.533 731.644 110.115 731.644 113.279V121.728ZM635.398 145.564H637.343C638.648 145.564 639.593 145.322 640.179 144.837C640.765 144.353 641.058 143.634 641.058 142.681C641.058 141.712 640.741 141.017 640.109 140.595C639.476 140.173 638.523 139.962 637.249 139.962H635.398V145.564ZM635.398 147.884V154.728H632.597V137.595H637.437C639.648 137.595 641.284 138.009 642.347 138.837C643.409 139.665 643.941 140.915 643.941 142.587C643.941 144.72 642.831 146.24 640.613 147.146L645.452 154.728H642.265L638.163 147.884H635.398ZM659.152 148.224C659.152 150.341 658.609 151.994 657.523 153.181C656.437 154.369 654.925 154.962 652.988 154.962C651.777 154.962 650.706 154.689 649.777 154.142C648.847 153.595 648.132 152.81 647.632 151.787C647.132 150.763 646.882 149.576 646.882 148.224C646.882 146.122 647.421 144.482 648.499 143.302C649.577 142.122 651.097 141.533 653.058 141.533C654.933 141.533 656.417 142.138 657.511 143.349C658.605 144.552 659.152 146.177 659.152 148.224ZM649.718 148.224C649.718 151.216 650.823 152.712 653.034 152.712C655.222 152.712 656.316 151.216 656.316 148.224C656.316 145.263 655.214 143.783 653.011 143.783C651.855 143.783 651.015 144.165 650.491 144.931C649.976 145.697 649.718 146.794 649.718 148.224ZM671.468 154.728L671.081 153.029H670.941C670.558 153.63 670.011 154.103 669.3 154.447C668.597 154.79 667.792 154.962 666.886 154.962C665.316 154.962 664.144 154.572 663.37 153.79C662.597 153.009 662.21 151.826 662.21 150.24V141.767H664.988V149.759C664.988 150.751 665.191 151.497 665.597 151.997C666.003 152.49 666.64 152.736 667.507 152.736C668.663 152.736 669.511 152.392 670.05 151.705C670.597 151.009 670.87 149.849 670.87 148.224V141.767H673.636V154.728H671.468ZM688.964 154.728H686.198V146.759C686.198 145.759 685.995 145.013 685.589 144.521C685.191 144.029 684.554 143.783 683.679 143.783C682.515 143.783 681.663 144.126 681.124 144.814C680.585 145.501 680.316 146.654 680.316 148.271V154.728H677.562V141.767H679.718L680.105 143.466H680.245C680.636 142.849 681.191 142.372 681.909 142.037C682.628 141.701 683.425 141.533 684.3 141.533C687.409 141.533 688.964 143.115 688.964 146.279V154.728ZM697.167 154.962C695.55 154.962 694.288 154.376 693.382 153.205C692.476 152.033 692.023 150.388 692.023 148.271C692.023 146.146 692.48 144.494 693.394 143.314C694.316 142.126 695.589 141.533 697.214 141.533C698.917 141.533 700.214 142.162 701.105 143.419H701.245C701.113 142.49 701.046 141.755 701.046 141.216V136.494H703.812V154.728H701.656L701.175 153.029H701.046C700.163 154.318 698.87 154.962 697.167 154.962ZM697.906 152.736C699.038 152.736 699.863 152.419 700.378 151.787C700.894 151.146 701.159 150.111 701.175 148.681V148.294C701.175 146.662 700.909 145.501 700.378 144.814C699.847 144.126 699.015 143.783 697.882 143.783C696.913 143.783 696.167 144.177 695.644 144.966C695.12 145.747 694.859 146.865 694.859 148.318C694.859 149.755 695.113 150.853 695.62 151.611C696.128 152.361 696.89 152.736 697.906 152.736ZM724.038 141.533C724.038 142.619 723.722 143.525 723.089 144.251C722.456 144.97 721.566 145.455 720.417 145.705V145.798C721.792 145.97 722.823 146.4 723.511 147.087C724.198 147.767 724.542 148.673 724.542 149.806C724.542 151.455 723.96 152.728 722.796 153.626C721.632 154.517 719.976 154.962 717.827 154.962C715.929 154.962 714.327 154.654 713.023 154.037V151.587C713.749 151.947 714.519 152.224 715.331 152.419C716.144 152.615 716.925 152.712 717.675 152.712C719.003 152.712 719.995 152.466 720.652 151.974C721.308 151.482 721.636 150.72 721.636 149.689C721.636 148.775 721.273 148.103 720.546 147.673C719.82 147.244 718.679 147.029 717.124 147.029H715.636V144.79H717.148C719.882 144.79 721.249 143.845 721.249 141.955C721.249 141.22 721.011 140.654 720.534 140.255C720.058 139.857 719.355 139.658 718.425 139.658C717.777 139.658 717.152 139.751 716.55 139.939C715.948 140.119 715.238 140.474 714.417 141.005L713.07 139.083C714.64 137.927 716.464 137.349 718.542 137.349C720.269 137.349 721.616 137.72 722.585 138.462C723.554 139.205 724.038 140.228 724.038 141.533Z" fill="white"/>
<circle cx="956.5" cy="122.5" r="121" fill="#4E4CC3" stroke="#4E4CC3" stroke-width="3"/>
<path d="M929.886 112.997C929.886 115.826 929.101 117.99 927.531 119.49C925.96 120.982 923.698 121.728 920.745 121.728H915.952V104.595H921.249C923.976 104.595 926.097 105.33 927.613 106.798C929.128 108.267 929.886 110.333 929.886 112.997ZM926.933 113.091C926.933 108.99 925.015 106.939 921.179 106.939H918.753V119.372H920.745C924.87 119.372 926.933 117.279 926.933 113.091ZM938.945 121.962C936.929 121.962 935.351 121.376 934.21 120.205C933.077 119.025 932.511 117.404 932.511 115.341C932.511 113.224 933.038 111.56 934.093 110.349C935.148 109.138 936.597 108.533 938.441 108.533C940.152 108.533 941.503 109.052 942.495 110.091C943.488 111.13 943.984 112.56 943.984 114.38V115.869H935.347C935.386 117.126 935.726 118.095 936.366 118.775C937.007 119.447 937.909 119.783 939.073 119.783C939.839 119.783 940.55 119.712 941.206 119.572C941.87 119.423 942.581 119.181 943.339 118.845V121.083C942.667 121.404 941.988 121.63 941.3 121.763C940.613 121.896 939.827 121.962 938.945 121.962ZM938.441 110.619C937.566 110.619 936.863 110.896 936.331 111.451C935.808 112.005 935.495 112.814 935.394 113.876H941.277C941.261 112.806 941.003 111.997 940.503 111.451C940.003 110.896 939.316 110.619 938.441 110.619ZM955.82 118.037C955.82 119.302 955.359 120.275 954.437 120.955C953.515 121.626 952.195 121.962 950.476 121.962C948.749 121.962 947.363 121.701 946.316 121.177V118.798C947.839 119.501 949.257 119.853 950.57 119.853C952.265 119.853 953.113 119.341 953.113 118.318C953.113 117.99 953.019 117.716 952.831 117.497C952.644 117.279 952.335 117.052 951.906 116.818C951.476 116.583 950.878 116.318 950.113 116.021C948.62 115.443 947.609 114.865 947.077 114.287C946.554 113.708 946.292 112.958 946.292 112.037C946.292 110.927 946.738 110.068 947.628 109.458C948.527 108.841 949.745 108.533 951.284 108.533C952.808 108.533 954.249 108.841 955.609 109.458L954.718 111.533C953.32 110.955 952.144 110.665 951.191 110.665C949.738 110.665 949.011 111.08 949.011 111.908C949.011 112.314 949.198 112.658 949.573 112.939C949.956 113.22 950.784 113.607 952.058 114.099C953.128 114.513 953.906 114.892 954.39 115.236C954.874 115.58 955.234 115.978 955.468 116.431C955.702 116.876 955.82 117.412 955.82 118.037ZM961.562 121.728H958.808V108.767H961.562V121.728ZM958.644 105.333C958.644 104.841 958.777 104.462 959.042 104.197C959.316 103.931 959.702 103.798 960.202 103.798C960.687 103.798 961.062 103.931 961.327 104.197C961.601 104.462 961.738 104.841 961.738 105.333C961.738 105.802 961.601 106.173 961.327 106.447C961.062 106.712 960.687 106.845 960.202 106.845C959.702 106.845 959.316 106.712 959.042 106.447C958.777 106.173 958.644 105.802 958.644 105.333ZM976.456 108.767V110.279L974.241 110.689C974.445 110.962 974.613 111.298 974.745 111.697C974.878 112.095 974.945 112.517 974.945 112.962C974.945 114.298 974.484 115.349 973.562 116.115C972.64 116.88 971.37 117.263 969.753 117.263C969.339 117.263 968.964 117.232 968.628 117.169C968.034 117.537 967.738 117.966 967.738 118.458C967.738 118.755 967.874 118.978 968.148 119.126C968.429 119.275 968.941 119.349 969.683 119.349H971.945C973.374 119.349 974.46 119.654 975.202 120.263C975.945 120.872 976.316 121.751 976.316 122.9C976.316 124.369 975.71 125.501 974.499 126.298C973.288 127.095 971.538 127.494 969.249 127.494C967.484 127.494 966.136 127.181 965.206 126.556C964.277 125.931 963.812 125.04 963.812 123.884C963.812 123.087 964.062 122.415 964.562 121.869C965.07 121.33 965.777 120.955 966.683 120.744C966.316 120.587 966.011 120.337 965.769 119.994C965.534 119.642 965.417 119.275 965.417 118.892C965.417 118.408 965.554 117.997 965.827 117.662C966.101 117.326 966.507 116.994 967.046 116.665C966.374 116.376 965.827 115.908 965.406 115.259C964.991 114.603 964.784 113.837 964.784 112.962C964.784 111.556 965.226 110.466 966.109 109.693C966.999 108.919 968.265 108.533 969.906 108.533C970.273 108.533 970.656 108.56 971.054 108.615C971.46 108.662 971.765 108.712 971.968 108.767H976.456ZM966.273 123.744C966.273 124.337 966.538 124.794 967.07 125.115C967.609 125.435 968.363 125.595 969.331 125.595C970.831 125.595 971.948 125.38 972.683 124.951C973.417 124.521 973.784 123.951 973.784 123.24C973.784 122.677 973.581 122.275 973.175 122.033C972.777 121.798 972.031 121.681 970.937 121.681H968.851C968.062 121.681 967.433 121.865 966.964 122.232C966.503 122.607 966.273 123.111 966.273 123.744ZM967.456 112.962C967.456 113.775 967.663 114.4 968.077 114.837C968.499 115.275 969.101 115.494 969.882 115.494C971.476 115.494 972.273 114.642 972.273 112.939C972.273 112.095 972.073 111.447 971.675 110.994C971.284 110.533 970.687 110.302 969.882 110.302C969.085 110.302 968.48 110.529 968.066 110.982C967.659 111.435 967.456 112.095 967.456 112.962ZM990.273 121.728H987.507V113.759C987.507 112.759 987.304 112.013 986.898 111.521C986.499 111.029 985.863 110.783 984.988 110.783C983.823 110.783 982.972 111.126 982.433 111.814C981.894 112.501 981.624 113.654 981.624 115.271V121.728H978.87V108.767H981.027L981.413 110.466H981.554C981.945 109.849 982.499 109.372 983.218 109.037C983.937 108.701 984.734 108.533 985.609 108.533C988.718 108.533 990.273 110.115 990.273 113.279V121.728ZM904.269 139.751C902.659 139.751 901.394 140.322 900.472 141.462C899.55 142.603 899.089 144.177 899.089 146.185C899.089 148.287 899.531 149.876 900.413 150.955C901.304 152.033 902.589 152.572 904.269 152.572C904.995 152.572 905.698 152.501 906.378 152.361C907.058 152.212 907.765 152.025 908.499 151.798V154.201C907.156 154.708 905.632 154.962 903.929 154.962C901.421 154.962 899.495 154.205 898.152 152.689C896.808 151.165 896.136 148.99 896.136 146.162C896.136 144.38 896.46 142.822 897.109 141.486C897.765 140.15 898.71 139.126 899.945 138.415C901.179 137.705 902.628 137.349 904.292 137.349C906.042 137.349 907.659 137.716 909.144 138.451L908.136 140.783C907.558 140.509 906.945 140.271 906.296 140.068C905.656 139.857 904.98 139.751 904.269 139.751ZM923.394 148.224C923.394 150.341 922.851 151.994 921.765 153.181C920.679 154.369 919.167 154.962 917.23 154.962C916.019 154.962 914.948 154.689 914.019 154.142C913.089 153.595 912.374 152.81 911.874 151.787C911.374 150.763 911.124 149.576 911.124 148.224C911.124 146.122 911.663 144.482 912.741 143.302C913.82 142.122 915.339 141.533 917.3 141.533C919.175 141.533 920.659 142.138 921.753 143.349C922.847 144.552 923.394 146.177 923.394 148.224ZM913.96 148.224C913.96 151.216 915.066 152.712 917.277 152.712C919.464 152.712 920.558 151.216 920.558 148.224C920.558 145.263 919.456 143.783 917.253 143.783C916.097 143.783 915.257 144.165 914.734 144.931C914.218 145.697 913.96 146.794 913.96 148.224ZM937.972 154.728H935.206V146.759C935.206 145.759 935.003 145.013 934.597 144.521C934.198 144.029 933.562 143.783 932.687 143.783C931.523 143.783 930.671 144.126 930.132 144.814C929.593 145.501 929.323 146.654 929.323 148.271V154.728H926.57V141.767H928.726L929.113 143.466H929.253C929.644 142.849 930.198 142.372 930.917 142.037C931.636 141.701 932.433 141.533 933.308 141.533C936.417 141.533 937.972 143.115 937.972 146.279V154.728ZM948.308 143.853H945.144V154.728H942.378V143.853H940.245V142.564L942.378 141.72V140.876C942.378 139.345 942.738 138.212 943.456 137.478C944.175 136.736 945.273 136.365 946.749 136.365C947.718 136.365 948.671 136.525 949.609 136.845L948.882 138.931C948.202 138.712 947.554 138.603 946.937 138.603C946.312 138.603 945.855 138.798 945.566 139.189C945.284 139.572 945.144 140.15 945.144 140.923V141.767H948.308V143.853ZM953.265 154.728H950.511V141.767H953.265V154.728ZM950.347 138.333C950.347 137.841 950.48 137.462 950.745 137.197C951.019 136.931 951.406 136.798 951.906 136.798C952.39 136.798 952.765 136.931 953.031 137.197C953.304 137.462 953.441 137.841 953.441 138.333C953.441 138.802 953.304 139.173 953.031 139.447C952.765 139.712 952.39 139.845 951.906 139.845C951.406 139.845 951.019 139.712 950.745 139.447C950.48 139.173 950.347 138.802 950.347 138.333ZM963.8 141.533C964.355 141.533 964.812 141.572 965.171 141.65L964.902 144.216C964.511 144.122 964.105 144.076 963.683 144.076C962.581 144.076 961.687 144.435 960.999 145.154C960.32 145.872 959.98 146.806 959.98 147.955V154.728H957.226V141.767H959.382L959.745 144.052H959.886C960.316 143.279 960.874 142.665 961.562 142.212C962.257 141.759 963.003 141.533 963.8 141.533ZM978.507 154.728H975.741V146.736C975.741 145.744 975.554 145.005 975.179 144.521C974.804 144.029 974.218 143.783 973.421 143.783C972.359 143.783 971.577 144.13 971.077 144.826C970.585 145.513 970.339 146.662 970.339 148.271V154.728H967.585V141.767H969.741L970.128 143.466H970.269C970.628 142.849 971.148 142.372 971.827 142.037C972.515 141.701 973.269 141.533 974.089 141.533C976.081 141.533 977.402 142.212 978.05 143.572H978.238C978.62 142.931 979.159 142.431 979.855 142.072C980.55 141.712 981.347 141.533 982.245 141.533C983.792 141.533 984.917 141.923 985.62 142.705C986.331 143.486 986.687 144.677 986.687 146.279V154.728H983.933V146.736C983.933 145.744 983.741 145.005 983.359 144.521C982.984 144.029 982.398 143.783 981.601 143.783C980.531 143.783 979.745 144.119 979.245 144.79C978.753 145.455 978.507 146.478 978.507 147.861V154.728ZM996.191 154.962C994.175 154.962 992.597 154.376 991.456 153.205C990.323 152.025 989.757 150.404 989.757 148.341C989.757 146.224 990.284 144.56 991.339 143.349C992.394 142.138 993.843 141.533 995.687 141.533C997.398 141.533 998.749 142.052 999.741 143.091C1000.73 144.13 1001.23 145.56 1001.23 147.38V148.869H992.593C992.632 150.126 992.972 151.095 993.613 151.775C994.253 152.447 995.156 152.783 996.32 152.783C997.085 152.783 997.796 152.712 998.452 152.572C999.116 152.423 999.827 152.181 1000.59 151.845V154.083C999.913 154.404 999.234 154.63 998.546 154.763C997.859 154.896 997.073 154.962 996.191 154.962ZM995.687 143.619C994.812 143.619 994.109 143.896 993.577 144.451C993.054 145.005 992.741 145.814 992.64 146.876H998.523C998.507 145.806 998.249 144.997 997.749 144.451C997.249 143.896 996.562 143.619 995.687 143.619ZM1008.73 154.962C1007.11 154.962 1005.85 154.376 1004.94 153.205C1004.04 152.033 1003.59 150.388 1003.59 148.271C1003.59 146.146 1004.04 144.494 1004.96 143.314C1005.88 142.126 1007.15 141.533 1008.78 141.533C1010.48 141.533 1011.78 142.162 1012.67 143.419H1012.81C1012.68 142.49 1012.61 141.755 1012.61 141.216V136.494H1015.37V154.728H1013.22L1012.74 153.029H1012.61C1011.73 154.318 1010.43 154.962 1008.73 154.962ZM1009.47 152.736C1010.6 152.736 1011.43 152.419 1011.94 151.787C1012.46 151.146 1012.72 150.111 1012.74 148.681V148.294C1012.74 146.662 1012.47 145.501 1011.94 144.814C1011.41 144.126 1010.58 143.783 1009.44 143.783C1008.48 143.783 1007.73 144.177 1007.21 144.966C1006.68 145.747 1006.42 146.865 1006.42 148.318C1006.42 149.755 1006.68 150.853 1007.18 151.611C1007.69 152.361 1008.45 152.736 1009.47 152.736Z" fill="white"/>
<path fill-rule="evenodd" clip-rule="evenodd" d="M258.07 155L279 130.5L258.07 106V114.986H239V146.014H258.07V155Z" fill="#08152D"/>
<path fill-rule="evenodd" clip-rule="evenodd" d="M536.07 155L557 130.5L536.07 106V114.986H517V146.014H536.07V155Z" fill="#08152D"/>
<path fill-rule="evenodd" clip-rule="evenodd" d="M814.07 155L835 130.5L814.07 106V114.986H795V146.014H814.07V155Z" fill="#08152D"/>
</svg>
