<svg width="1213" height="252" viewBox="0 0 1213 252" fill="none" xmlns="http://www.w3.org/2000/svg">
<rect width="1213" height="252" fill="white"/>
<path d="M139.756 213H137.402V200.715H133.223V198.723H143.926V200.715H139.756V213ZM151.357 201.984C151.54 201.984 151.738 201.994 151.953 202.014C152.168 202.033 152.354 202.059 152.51 202.092L152.295 204.24C152.158 204.201 151.989 204.172 151.787 204.152C151.592 204.133 151.416 204.123 151.26 204.123C150.85 204.123 150.459 204.191 150.088 204.328C149.717 204.458 149.388 204.66 149.102 204.934C148.815 205.201 148.59 205.536 148.428 205.939C148.265 206.343 148.184 206.812 148.184 207.346V213H145.879V202.189H147.676L147.988 204.094H148.096C148.311 203.71 148.577 203.358 148.896 203.039C149.215 202.72 149.58 202.466 149.99 202.277C150.407 202.082 150.863 201.984 151.357 201.984ZM156.807 202.189V213H154.512V202.189H156.807ZM155.674 198.049C156.025 198.049 156.328 198.143 156.582 198.332C156.842 198.521 156.973 198.846 156.973 199.309C156.973 199.764 156.842 200.09 156.582 200.285C156.328 200.474 156.025 200.568 155.674 200.568C155.309 200.568 155 200.474 154.746 200.285C154.499 200.09 154.375 199.764 154.375 199.309C154.375 198.846 154.499 198.521 154.746 198.332C155 198.143 155.309 198.049 155.674 198.049ZM164.336 201.984C165.703 201.984 166.735 202.287 167.432 202.893C168.135 203.498 168.486 204.442 168.486 205.725V213H166.855L166.416 211.467H166.338C166.032 211.857 165.716 212.18 165.391 212.434C165.065 212.688 164.688 212.876 164.258 213C163.835 213.13 163.317 213.195 162.705 213.195C162.061 213.195 161.484 213.078 160.977 212.844C160.469 212.603 160.068 212.238 159.775 211.75C159.482 211.262 159.336 210.643 159.336 209.895C159.336 208.781 159.749 207.945 160.576 207.385C161.41 206.825 162.666 206.516 164.346 206.457L166.221 206.389V205.822C166.221 205.074 166.045 204.54 165.693 204.221C165.348 203.902 164.86 203.742 164.229 203.742C163.688 203.742 163.164 203.82 162.656 203.977C162.148 204.133 161.654 204.325 161.172 204.553L160.43 202.932C160.957 202.652 161.556 202.424 162.227 202.248C162.904 202.072 163.607 201.984 164.336 201.984ZM166.211 207.834L164.814 207.883C163.669 207.922 162.865 208.117 162.402 208.469C161.94 208.82 161.709 209.302 161.709 209.914C161.709 210.448 161.868 210.839 162.188 211.086C162.507 211.327 162.926 211.447 163.447 211.447C164.242 211.447 164.899 211.223 165.42 210.773C165.947 210.318 166.211 209.65 166.211 208.771V207.834ZM174.004 213H171.699V197.805H174.004V213ZM186.836 213.195C185.814 213.195 184.928 212.997 184.18 212.6C183.431 212.202 182.855 211.594 182.451 210.773C182.048 209.953 181.846 208.911 181.846 207.648C181.846 206.333 182.067 205.259 182.51 204.426C182.952 203.592 183.564 202.977 184.346 202.58C185.133 202.183 186.035 201.984 187.051 201.984C187.695 201.984 188.278 202.049 188.799 202.18C189.326 202.303 189.772 202.456 190.137 202.639L189.453 204.475C189.056 204.312 188.649 204.175 188.232 204.064C187.816 203.954 187.415 203.898 187.031 203.898C186.4 203.898 185.872 204.038 185.449 204.318C185.033 204.598 184.72 205.015 184.512 205.568C184.31 206.122 184.209 206.809 184.209 207.629C184.209 208.423 184.313 209.094 184.521 209.641C184.73 210.181 185.039 210.591 185.449 210.871C185.859 211.145 186.364 211.281 186.963 211.281C187.555 211.281 188.086 211.21 188.555 211.066C189.023 210.923 189.466 210.738 189.883 210.51V212.502C189.473 212.736 189.033 212.909 188.564 213.02C188.096 213.137 187.52 213.195 186.836 213.195ZM201.992 207.57C201.992 208.469 201.875 209.266 201.641 209.963C201.406 210.66 201.064 211.249 200.615 211.73C200.166 212.206 199.626 212.57 198.994 212.824C198.363 213.072 197.65 213.195 196.855 213.195C196.113 213.195 195.433 213.072 194.814 212.824C194.196 212.57 193.659 212.206 193.203 211.73C192.754 211.249 192.406 210.66 192.158 209.963C191.911 209.266 191.787 208.469 191.787 207.57C191.787 206.379 191.992 205.37 192.402 204.543C192.819 203.71 193.411 203.075 194.18 202.639C194.948 202.202 195.863 201.984 196.924 201.984C197.92 201.984 198.799 202.202 199.561 202.639C200.322 203.075 200.918 203.71 201.348 204.543C201.777 205.376 201.992 206.385 201.992 207.57ZM194.15 207.57C194.15 208.358 194.245 209.032 194.434 209.592C194.629 210.152 194.928 210.581 195.332 210.881C195.736 211.174 196.257 211.32 196.895 211.32C197.533 211.32 198.053 211.174 198.457 210.881C198.861 210.581 199.157 210.152 199.346 209.592C199.535 209.032 199.629 208.358 199.629 207.57C199.629 206.783 199.535 206.115 199.346 205.568C199.157 205.015 198.861 204.595 198.457 204.309C198.053 204.016 197.529 203.869 196.885 203.869C195.934 203.869 195.241 204.188 194.805 204.826C194.368 205.464 194.15 206.379 194.15 207.57ZM210.264 201.984C211.481 201.984 212.428 202.3 213.105 202.932C213.789 203.557 214.131 204.562 214.131 205.949V213H211.836V206.379C211.836 205.539 211.663 204.911 211.318 204.494C210.973 204.071 210.439 203.859 209.717 203.859C208.669 203.859 207.939 204.182 207.529 204.826C207.126 205.471 206.924 206.405 206.924 207.629V213H204.629V202.189H206.416L206.738 203.654H206.865C207.1 203.277 207.389 202.967 207.734 202.727C208.086 202.479 208.477 202.294 208.906 202.17C209.342 202.046 209.795 201.984 210.264 201.984ZM219.814 213L215.703 202.189H218.135L220.361 208.537C220.505 208.941 220.635 209.377 220.752 209.846C220.869 210.314 220.951 210.708 220.996 211.027H221.074C221.12 210.695 221.208 210.298 221.338 209.836C221.468 209.367 221.602 208.934 221.738 208.537L223.965 202.189H226.387L222.275 213H219.814ZM232.334 201.984C233.298 201.984 234.124 202.183 234.814 202.58C235.505 202.977 236.035 203.54 236.406 204.27C236.777 204.999 236.963 205.871 236.963 206.887V208.117H229.746C229.772 209.165 230.052 209.973 230.586 210.539C231.126 211.105 231.882 211.389 232.852 211.389C233.542 211.389 234.16 211.324 234.707 211.193C235.26 211.057 235.83 210.858 236.416 210.598V212.463C235.876 212.717 235.326 212.902 234.766 213.02C234.206 213.137 233.535 213.195 232.754 213.195C231.693 213.195 230.758 212.99 229.951 212.58C229.15 212.163 228.522 211.545 228.066 210.725C227.617 209.904 227.393 208.885 227.393 207.668C227.393 206.457 227.598 205.428 228.008 204.582C228.418 203.736 228.994 203.091 229.736 202.648C230.479 202.206 231.344 201.984 232.334 201.984ZM232.334 203.713C231.611 203.713 231.025 203.947 230.576 204.416C230.133 204.885 229.873 205.572 229.795 206.477H234.717C234.71 205.936 234.619 205.458 234.443 205.041C234.274 204.624 234.014 204.299 233.662 204.064C233.317 203.83 232.874 203.713 232.334 203.713ZM245.029 201.984C245.212 201.984 245.41 201.994 245.625 202.014C245.84 202.033 246.025 202.059 246.182 202.092L245.967 204.24C245.83 204.201 245.661 204.172 245.459 204.152C245.264 204.133 245.088 204.123 244.932 204.123C244.521 204.123 244.131 204.191 243.76 204.328C243.389 204.458 243.06 204.66 242.773 204.934C242.487 205.201 242.262 205.536 242.1 205.939C241.937 206.343 241.855 206.812 241.855 207.346V213H239.551V202.189H241.348L241.66 204.094H241.768C241.982 203.71 242.249 203.358 242.568 203.039C242.887 202.72 243.252 202.466 243.662 202.277C244.079 202.082 244.535 201.984 245.029 201.984ZM252.207 211.34C252.507 211.34 252.803 211.314 253.096 211.262C253.389 211.203 253.656 211.135 253.896 211.057V212.795C253.643 212.906 253.314 213 252.91 213.078C252.507 213.156 252.087 213.195 251.65 213.195C251.038 213.195 250.488 213.094 250 212.893C249.512 212.684 249.124 212.329 248.838 211.828C248.551 211.327 248.408 210.633 248.408 209.748V203.938H246.934V202.912L248.516 202.102L249.268 199.787H250.713V202.189H253.809V203.938H250.713V209.719C250.713 210.266 250.85 210.673 251.123 210.939C251.396 211.206 251.758 211.34 252.207 211.34ZM265.312 211.34C265.612 211.34 265.908 211.314 266.201 211.262C266.494 211.203 266.761 211.135 267.002 211.057V212.795C266.748 212.906 266.419 213 266.016 213.078C265.612 213.156 265.192 213.195 264.756 213.195C264.144 213.195 263.594 213.094 263.105 212.893C262.617 212.684 262.23 212.329 261.943 211.828C261.657 211.327 261.514 210.633 261.514 209.748V203.938H260.039V202.912L261.621 202.102L262.373 199.787H263.818V202.189H266.914V203.938H263.818V209.719C263.818 210.266 263.955 210.673 264.229 210.939C264.502 211.206 264.863 211.34 265.312 211.34ZM278.77 207.57C278.77 208.469 278.652 209.266 278.418 209.963C278.184 210.66 277.842 211.249 277.393 211.73C276.943 212.206 276.403 212.57 275.771 212.824C275.14 213.072 274.427 213.195 273.633 213.195C272.891 213.195 272.21 213.072 271.592 212.824C270.973 212.57 270.436 212.206 269.98 211.73C269.531 211.249 269.183 210.66 268.936 209.963C268.688 209.266 268.564 208.469 268.564 207.57C268.564 206.379 268.77 205.37 269.18 204.543C269.596 203.71 270.189 203.075 270.957 202.639C271.725 202.202 272.64 201.984 273.701 201.984C274.697 201.984 275.576 202.202 276.338 202.639C277.1 203.075 277.695 203.71 278.125 204.543C278.555 205.376 278.77 206.385 278.77 207.57ZM270.928 207.57C270.928 208.358 271.022 209.032 271.211 209.592C271.406 210.152 271.706 210.581 272.109 210.881C272.513 211.174 273.034 211.32 273.672 211.32C274.31 211.32 274.831 211.174 275.234 210.881C275.638 210.581 275.934 210.152 276.123 209.592C276.312 209.032 276.406 208.358 276.406 207.57C276.406 206.783 276.312 206.115 276.123 205.568C275.934 205.015 275.638 204.595 275.234 204.309C274.831 204.016 274.307 203.869 273.662 203.869C272.712 203.869 272.018 204.188 271.582 204.826C271.146 205.464 270.928 206.379 270.928 207.57ZM292.148 201.984C293.431 201.984 294.46 202.453 295.234 203.391C296.016 204.328 296.406 205.721 296.406 207.57C296.406 208.794 296.224 209.826 295.859 210.666C295.501 211.499 294.997 212.131 294.346 212.561C293.701 212.984 292.949 213.195 292.09 213.195C291.543 213.195 291.068 213.124 290.664 212.98C290.26 212.837 289.915 212.652 289.629 212.424C289.342 212.189 289.102 211.936 288.906 211.662H288.77C288.802 211.923 288.831 212.212 288.857 212.531C288.89 212.844 288.906 213.13 288.906 213.391V217.795H286.602V202.189H288.477L288.799 203.684H288.906C289.108 203.378 289.352 203.094 289.639 202.834C289.932 202.574 290.283 202.368 290.693 202.219C291.11 202.062 291.595 201.984 292.148 201.984ZM291.533 203.859C290.902 203.859 290.394 203.986 290.01 204.24C289.632 204.488 289.355 204.862 289.18 205.363C289.01 205.865 288.919 206.493 288.906 207.248V207.57C288.906 208.371 288.988 209.051 289.15 209.611C289.32 210.165 289.596 210.588 289.98 210.881C290.371 211.167 290.898 211.311 291.562 211.311C292.122 211.311 292.585 211.158 292.949 210.852C293.32 210.546 293.597 210.109 293.779 209.543C293.962 208.977 294.053 208.309 294.053 207.541C294.053 206.376 293.844 205.471 293.428 204.826C293.018 204.182 292.386 203.859 291.533 203.859ZM303.301 201.984C304.668 201.984 305.7 202.287 306.396 202.893C307.1 203.498 307.451 204.442 307.451 205.725V213H305.82L305.381 211.467H305.303C304.997 211.857 304.681 212.18 304.355 212.434C304.03 212.688 303.652 212.876 303.223 213C302.799 213.13 302.282 213.195 301.67 213.195C301.025 213.195 300.449 213.078 299.941 212.844C299.434 212.603 299.033 212.238 298.74 211.75C298.447 211.262 298.301 210.643 298.301 209.895C298.301 208.781 298.714 207.945 299.541 207.385C300.374 206.825 301.631 206.516 303.311 206.457L305.186 206.389V205.822C305.186 205.074 305.01 204.54 304.658 204.221C304.313 203.902 303.825 203.742 303.193 203.742C302.653 203.742 302.129 203.82 301.621 203.977C301.113 204.133 300.618 204.325 300.137 204.553L299.395 202.932C299.922 202.652 300.521 202.424 301.191 202.248C301.868 202.072 302.572 201.984 303.301 201.984ZM305.176 207.834L303.779 207.883C302.633 207.922 301.829 208.117 301.367 208.469C300.905 208.82 300.674 209.302 300.674 209.914C300.674 210.448 300.833 210.839 301.152 211.086C301.471 211.327 301.891 211.447 302.412 211.447C303.206 211.447 303.864 211.223 304.385 210.773C304.912 210.318 305.176 209.65 305.176 208.771V207.834ZM312.959 202.189V213H310.664V202.189H312.959ZM311.826 198.049C312.178 198.049 312.48 198.143 312.734 198.332C312.995 198.521 313.125 198.846 313.125 199.309C313.125 199.764 312.995 200.09 312.734 200.285C312.48 200.474 312.178 200.568 311.826 200.568C311.462 200.568 311.152 200.474 310.898 200.285C310.651 200.09 310.527 199.764 310.527 199.309C310.527 198.846 310.651 198.521 310.898 198.332C311.152 198.143 311.462 198.049 311.826 198.049ZM319.883 213.195C318.594 213.195 317.559 212.727 316.777 211.789C316.003 210.845 315.615 209.455 315.615 207.619C315.615 205.764 316.009 204.361 316.797 203.41C317.591 202.46 318.636 201.984 319.932 201.984C320.479 201.984 320.957 202.059 321.367 202.209C321.777 202.352 322.129 202.548 322.422 202.795C322.721 203.042 322.975 203.319 323.184 203.625H323.291C323.258 203.423 323.219 203.133 323.174 202.756C323.135 202.372 323.115 202.017 323.115 201.691V197.805H325.42V213H323.623L323.213 211.525H323.115C322.92 211.838 322.673 212.121 322.373 212.375C322.08 212.622 321.729 212.821 321.318 212.971C320.915 213.12 320.436 213.195 319.883 213.195ZM320.527 211.33C321.51 211.33 322.204 211.047 322.607 210.48C323.011 209.914 323.219 209.064 323.232 207.932V207.629C323.232 206.418 323.037 205.49 322.646 204.846C322.256 204.195 321.543 203.869 320.508 203.869C319.681 203.869 319.049 204.204 318.613 204.875C318.184 205.539 317.969 206.467 317.969 207.658C317.969 208.85 318.184 209.761 318.613 210.393C319.049 211.018 319.688 211.33 320.527 211.33Z" fill="#373737"/>
<path d="M578.217 27.7227H582.465C584.307 27.7227 585.697 27.9896 586.635 28.5234C587.572 29.0573 588.041 29.9785 588.041 31.2871C588.041 31.834 587.943 32.3288 587.748 32.7715C587.559 33.2077 587.283 33.569 586.918 33.8555C586.553 34.1354 586.104 34.3242 585.57 34.4219V34.5195C586.124 34.6172 586.615 34.7897 587.045 35.0371C587.481 35.2845 587.823 35.6393 588.07 36.1016C588.324 36.5638 588.451 37.1628 588.451 37.8984C588.451 38.7708 588.243 39.513 587.826 40.125C587.416 40.737 586.827 41.2025 586.059 41.5215C585.297 41.8405 584.392 42 583.344 42H578.217V27.7227ZM580.561 33.6113H582.807C583.868 33.6113 584.604 33.4388 585.014 33.0938C585.424 32.7487 585.629 32.2441 585.629 31.5801C585.629 30.903 585.385 30.4147 584.896 30.1152C584.415 29.8158 583.646 29.666 582.592 29.666H580.561V33.6113ZM580.561 35.5059V40.0371H583.031C584.125 40.0371 584.893 39.8255 585.336 39.4023C585.779 38.9792 586 38.4062 586 37.6836C586 37.2409 585.899 36.8568 585.697 36.5312C585.502 36.2057 585.18 35.9551 584.73 35.7793C584.281 35.597 583.676 35.5059 582.914 35.5059H580.561ZM595.473 30.9844C596.436 30.9844 597.263 31.1829 597.953 31.5801C598.643 31.9772 599.174 32.5404 599.545 33.2695C599.916 33.9987 600.102 34.8711 600.102 35.8867V37.1172H592.885C592.911 38.1654 593.191 38.9727 593.725 39.5391C594.265 40.1055 595.02 40.3887 595.99 40.3887C596.68 40.3887 597.299 40.3236 597.846 40.1934C598.399 40.0566 598.969 39.8581 599.555 39.5977V41.4629C599.014 41.7168 598.464 41.9023 597.904 42.0195C597.344 42.1367 596.674 42.1953 595.893 42.1953C594.831 42.1953 593.897 41.9902 593.09 41.5801C592.289 41.1634 591.661 40.5449 591.205 39.7246C590.756 38.9043 590.531 37.8854 590.531 36.668C590.531 35.457 590.736 34.4284 591.146 33.582C591.557 32.7357 592.133 32.0911 592.875 31.6484C593.617 31.2057 594.483 30.9844 595.473 30.9844ZM595.473 32.7129C594.75 32.7129 594.164 32.9473 593.715 33.416C593.272 33.8848 593.012 34.5716 592.934 35.4766H597.855C597.849 34.9362 597.758 34.4577 597.582 34.041C597.413 33.6243 597.152 33.2988 596.801 33.0645C596.456 32.8301 596.013 32.7129 595.473 32.7129ZM608.09 32.9375H605.463V42H603.168V32.9375H601.4V31.834L603.168 31.1602V30.4082C603.168 29.4902 603.311 28.7611 603.598 28.2207C603.891 27.6803 604.307 27.293 604.848 27.0586C605.395 26.8177 606.046 26.6973 606.801 26.6973C607.296 26.6973 607.748 26.7396 608.158 26.8242C608.568 26.9023 608.913 26.9935 609.193 27.0977L608.598 28.8359C608.376 28.7643 608.129 28.6992 607.855 28.6406C607.582 28.5755 607.289 28.543 606.977 28.543C606.456 28.543 606.072 28.7057 605.824 29.0312C605.583 29.3568 605.463 29.832 605.463 30.457V31.1895H608.09V32.9375ZM619.506 36.5703C619.506 37.4688 619.389 38.2663 619.154 38.9629C618.92 39.6595 618.578 40.2487 618.129 40.7305C617.68 41.2057 617.139 41.5703 616.508 41.8242C615.876 42.0716 615.163 42.1953 614.369 42.1953C613.627 42.1953 612.947 42.0716 612.328 41.8242C611.71 41.5703 611.173 41.2057 610.717 40.7305C610.268 40.2487 609.919 39.6595 609.672 38.9629C609.424 38.2663 609.301 37.4688 609.301 36.5703C609.301 35.3789 609.506 34.3698 609.916 33.543C610.333 32.7096 610.925 32.0749 611.693 31.6387C612.462 31.2025 613.376 30.9844 614.438 30.9844C615.434 30.9844 616.312 31.2025 617.074 31.6387C617.836 32.0749 618.432 32.7096 618.861 33.543C619.291 34.3763 619.506 35.3854 619.506 36.5703ZM611.664 36.5703C611.664 37.3581 611.758 38.0319 611.947 38.5918C612.143 39.1517 612.442 39.5814 612.846 39.8809C613.249 40.1738 613.77 40.3203 614.408 40.3203C615.046 40.3203 615.567 40.1738 615.971 39.8809C616.374 39.5814 616.671 39.1517 616.859 38.5918C617.048 38.0319 617.143 37.3581 617.143 36.5703C617.143 35.7826 617.048 35.1152 616.859 34.5684C616.671 34.015 616.374 33.5951 615.971 33.3086C615.567 33.0156 615.043 32.8691 614.398 32.8691C613.448 32.8691 612.755 33.1882 612.318 33.8262C611.882 34.4642 611.664 35.3789 611.664 36.5703ZM627.621 30.9844C627.803 30.9844 628.002 30.9941 628.217 31.0137C628.432 31.0332 628.617 31.0592 628.773 31.0918L628.559 33.2402C628.422 33.2012 628.253 33.1719 628.051 33.1523C627.855 33.1328 627.68 33.123 627.523 33.123C627.113 33.123 626.723 33.1914 626.352 33.3281C625.98 33.4583 625.652 33.6602 625.365 33.9336C625.079 34.2005 624.854 34.5358 624.691 34.9395C624.529 35.3431 624.447 35.8118 624.447 36.3457V42H622.143V31.1895H623.939L624.252 33.0938H624.359C624.574 32.7096 624.841 32.3581 625.16 32.0391C625.479 31.7201 625.844 31.4661 626.254 31.2773C626.671 31.082 627.126 30.9844 627.621 30.9844ZM635.082 30.9844C636.046 30.9844 636.872 31.1829 637.562 31.5801C638.253 31.9772 638.783 32.5404 639.154 33.2695C639.525 33.9987 639.711 34.8711 639.711 35.8867V37.1172H632.494C632.52 38.1654 632.8 38.9727 633.334 39.5391C633.874 40.1055 634.63 40.3887 635.6 40.3887C636.29 40.3887 636.908 40.3236 637.455 40.1934C638.008 40.0566 638.578 39.8581 639.164 39.5977V41.4629C638.624 41.7168 638.074 41.9023 637.514 42.0195C636.954 42.1367 636.283 42.1953 635.502 42.1953C634.441 42.1953 633.507 41.9902 632.699 41.5801C631.898 41.1634 631.27 40.5449 630.814 39.7246C630.365 38.9043 630.141 37.8854 630.141 36.668C630.141 35.457 630.346 34.4284 630.756 33.582C631.166 32.7357 631.742 32.0911 632.484 31.6484C633.227 31.2057 634.092 30.9844 635.082 30.9844ZM635.082 32.7129C634.359 32.7129 633.773 32.9473 633.324 33.416C632.882 33.8848 632.621 34.5716 632.543 35.4766H637.465C637.458 34.9362 637.367 34.4577 637.191 34.041C637.022 33.6243 636.762 33.2988 636.41 33.0645C636.065 32.8301 635.622 32.7129 635.082 32.7129Z" fill="#373737"/>
<path d="M890.955 42L889.559 38.0352H884.1L882.703 42H880.232L885.545 27.6641H888.143L893.445 42H890.955ZM888.953 36.0234L887.596 32.1172C887.544 31.9479 887.469 31.7103 887.371 31.4043C887.273 31.0918 887.176 30.776 887.078 30.457C886.98 30.1315 886.899 29.8581 886.834 29.6367C886.769 29.9036 886.688 30.2031 886.59 30.5352C886.499 30.8607 886.408 31.1667 886.316 31.4531C886.232 31.7396 886.167 31.9609 886.121 32.1172L884.754 36.0234H888.953ZM900.496 32.9375H897.869V42H895.574V32.9375H893.807V31.834L895.574 31.1602V30.4082C895.574 29.4902 895.717 28.7611 896.004 28.2207C896.297 27.6803 896.714 27.293 897.254 27.0586C897.801 26.8177 898.452 26.6973 899.207 26.6973C899.702 26.6973 900.154 26.7396 900.564 26.8242C900.975 26.9023 901.32 26.9935 901.6 27.0977L901.004 28.8359C900.783 28.7643 900.535 28.6992 900.262 28.6406C899.988 28.5755 899.695 28.543 899.383 28.543C898.862 28.543 898.478 28.7057 898.23 29.0312C897.99 29.3568 897.869 29.832 897.869 30.457V31.1895H900.496V32.9375ZM906.365 40.3398C906.665 40.3398 906.961 40.3138 907.254 40.2617C907.547 40.2031 907.814 40.1348 908.055 40.0566V41.7949C907.801 41.9056 907.472 42 907.068 42.0781C906.665 42.1562 906.245 42.1953 905.809 42.1953C905.197 42.1953 904.646 42.0944 904.158 41.8926C903.67 41.6842 903.283 41.3294 902.996 40.8281C902.71 40.3268 902.566 39.6335 902.566 38.748V32.9375H901.092V31.9121L902.674 31.1016L903.426 28.7871H904.871V31.1895H907.967V32.9375H904.871V38.7188C904.871 39.2656 905.008 39.6725 905.281 39.9395C905.555 40.2064 905.916 40.3398 906.365 40.3398ZM914.559 30.9844C915.522 30.9844 916.349 31.1829 917.039 31.5801C917.729 31.9772 918.26 32.5404 918.631 33.2695C919.002 33.9987 919.188 34.8711 919.188 35.8867V37.1172H911.971C911.997 38.1654 912.277 38.9727 912.811 39.5391C913.351 40.1055 914.106 40.3887 915.076 40.3887C915.766 40.3887 916.385 40.3236 916.932 40.1934C917.485 40.0566 918.055 39.8581 918.641 39.5977V41.4629C918.1 41.7168 917.55 41.9023 916.99 42.0195C916.43 42.1367 915.76 42.1953 914.979 42.1953C913.917 42.1953 912.983 41.9902 912.176 41.5801C911.375 41.1634 910.747 40.5449 910.291 39.7246C909.842 38.9043 909.617 37.8854 909.617 36.668C909.617 35.457 909.822 34.4284 910.232 33.582C910.643 32.7357 911.219 32.0911 911.961 31.6484C912.703 31.2057 913.569 30.9844 914.559 30.9844ZM914.559 32.7129C913.836 32.7129 913.25 32.9473 912.801 33.416C912.358 33.8848 912.098 34.5716 912.02 35.4766H916.941C916.935 34.9362 916.844 34.4577 916.668 34.041C916.499 33.6243 916.238 33.2988 915.887 33.0645C915.542 32.8301 915.099 32.7129 914.559 32.7129ZM927.254 30.9844C927.436 30.9844 927.635 30.9941 927.85 31.0137C928.064 31.0332 928.25 31.0592 928.406 31.0918L928.191 33.2402C928.055 33.2012 927.885 33.1719 927.684 33.1523C927.488 33.1328 927.312 33.123 927.156 33.123C926.746 33.123 926.355 33.1914 925.984 33.3281C925.613 33.4583 925.285 33.6602 924.998 33.9336C924.712 34.2005 924.487 34.5358 924.324 34.9395C924.161 35.3431 924.08 35.8118 924.08 36.3457V42H921.775V31.1895H923.572L923.885 33.0938H923.992C924.207 32.7096 924.474 32.3581 924.793 32.0391C925.112 31.7201 925.477 31.4661 925.887 31.2773C926.303 31.082 926.759 30.9844 927.254 30.9844Z" fill="#373737"/>
<rect y="84" width="1213" height="81" fill="#F3F3F3"/>
<path d="M127.861 115.723C129.704 115.723 131.048 116.1 131.895 116.855C132.741 117.611 133.164 118.669 133.164 120.029C133.164 120.648 133.066 121.237 132.871 121.797C132.682 122.35 132.37 122.842 131.934 123.271C131.497 123.695 130.921 124.03 130.205 124.277C129.495 124.525 128.62 124.648 127.578 124.648H126.055V130H123.711V115.723H127.861ZM127.705 117.666H126.055V122.695H127.334C128.07 122.695 128.695 122.611 129.209 122.441C129.723 122.266 130.114 121.989 130.381 121.611C130.648 121.234 130.781 120.736 130.781 120.117C130.781 119.29 130.531 118.675 130.029 118.271C129.535 117.868 128.76 117.666 127.705 117.666ZM141.26 118.984C141.442 118.984 141.641 118.994 141.855 119.014C142.07 119.033 142.256 119.059 142.412 119.092L142.197 121.24C142.061 121.201 141.891 121.172 141.689 121.152C141.494 121.133 141.318 121.123 141.162 121.123C140.752 121.123 140.361 121.191 139.99 121.328C139.619 121.458 139.29 121.66 139.004 121.934C138.717 122.201 138.493 122.536 138.33 122.939C138.167 123.343 138.086 123.812 138.086 124.346V130H135.781V119.189H137.578L137.891 121.094H137.998C138.213 120.71 138.48 120.358 138.799 120.039C139.118 119.72 139.482 119.466 139.893 119.277C140.309 119.082 140.765 118.984 141.26 118.984ZM153.984 124.57C153.984 125.469 153.867 126.266 153.633 126.963C153.398 127.66 153.057 128.249 152.607 128.73C152.158 129.206 151.618 129.57 150.986 129.824C150.355 130.072 149.642 130.195 148.848 130.195C148.105 130.195 147.425 130.072 146.807 129.824C146.188 129.57 145.651 129.206 145.195 128.73C144.746 128.249 144.398 127.66 144.15 126.963C143.903 126.266 143.779 125.469 143.779 124.57C143.779 123.379 143.984 122.37 144.395 121.543C144.811 120.71 145.404 120.075 146.172 119.639C146.94 119.202 147.855 118.984 148.916 118.984C149.912 118.984 150.791 119.202 151.553 119.639C152.314 120.075 152.91 120.71 153.34 121.543C153.77 122.376 153.984 123.385 153.984 124.57ZM146.143 124.57C146.143 125.358 146.237 126.032 146.426 126.592C146.621 127.152 146.921 127.581 147.324 127.881C147.728 128.174 148.249 128.32 148.887 128.32C149.525 128.32 150.046 128.174 150.449 127.881C150.853 127.581 151.149 127.152 151.338 126.592C151.527 126.032 151.621 125.358 151.621 124.57C151.621 123.783 151.527 123.115 151.338 122.568C151.149 122.015 150.853 121.595 150.449 121.309C150.046 121.016 149.521 120.869 148.877 120.869C147.926 120.869 147.233 121.188 146.797 121.826C146.361 122.464 146.143 123.379 146.143 124.57ZM168.838 118.984C170.049 118.984 170.96 119.297 171.572 119.922C172.191 120.547 172.5 121.549 172.5 122.93V130H170.205V123.34C170.205 122.52 170.046 121.901 169.727 121.484C169.408 121.068 168.923 120.859 168.271 120.859C167.36 120.859 166.702 121.152 166.299 121.738C165.902 122.318 165.703 123.161 165.703 124.268V130H163.408V123.34C163.408 122.793 163.337 122.337 163.193 121.973C163.057 121.602 162.845 121.325 162.559 121.143C162.272 120.954 161.911 120.859 161.475 120.859C160.843 120.859 160.339 121.003 159.961 121.289C159.59 121.576 159.323 121.999 159.16 122.559C158.997 123.112 158.916 123.792 158.916 124.6V130H156.621V119.189H158.408L158.73 120.645H158.857C159.079 120.267 159.352 119.958 159.678 119.717C160.01 119.469 160.378 119.287 160.781 119.17C161.185 119.046 161.605 118.984 162.041 118.984C162.848 118.984 163.529 119.128 164.082 119.414C164.635 119.694 165.049 120.124 165.322 120.703H165.498C165.837 120.117 166.309 119.684 166.914 119.404C167.52 119.124 168.161 118.984 168.838 118.984ZM185.273 124.57C185.273 125.469 185.156 126.266 184.922 126.963C184.688 127.66 184.346 128.249 183.896 128.73C183.447 129.206 182.907 129.57 182.275 129.824C181.644 130.072 180.931 130.195 180.137 130.195C179.395 130.195 178.714 130.072 178.096 129.824C177.477 129.57 176.94 129.206 176.484 128.73C176.035 128.249 175.687 127.66 175.439 126.963C175.192 126.266 175.068 125.469 175.068 124.57C175.068 123.379 175.273 122.37 175.684 121.543C176.1 120.71 176.693 120.075 177.461 119.639C178.229 119.202 179.144 118.984 180.205 118.984C181.201 118.984 182.08 119.202 182.842 119.639C183.604 120.075 184.199 120.71 184.629 121.543C185.059 122.376 185.273 123.385 185.273 124.57ZM177.432 124.57C177.432 125.358 177.526 126.032 177.715 126.592C177.91 127.152 178.21 127.581 178.613 127.881C179.017 128.174 179.538 128.32 180.176 128.32C180.814 128.32 181.335 128.174 181.738 127.881C182.142 127.581 182.438 127.152 182.627 126.592C182.816 126.032 182.91 125.358 182.91 124.57C182.91 123.783 182.816 123.115 182.627 122.568C182.438 122.015 182.142 121.595 181.738 121.309C181.335 121.016 180.811 120.869 180.166 120.869C179.215 120.869 178.522 121.188 178.086 121.826C177.65 122.464 177.432 123.379 177.432 124.57ZM191.934 128.34C192.233 128.34 192.529 128.314 192.822 128.262C193.115 128.203 193.382 128.135 193.623 128.057V129.795C193.369 129.906 193.04 130 192.637 130.078C192.233 130.156 191.813 130.195 191.377 130.195C190.765 130.195 190.215 130.094 189.727 129.893C189.238 129.684 188.851 129.329 188.564 128.828C188.278 128.327 188.135 127.633 188.135 126.748V120.938H186.66V119.912L188.242 119.102L188.994 116.787H190.439V119.189H193.535V120.938H190.439V126.719C190.439 127.266 190.576 127.673 190.85 127.939C191.123 128.206 191.484 128.34 191.934 128.34ZM198.115 119.189V130H195.82V119.189H198.115ZM196.982 115.049C197.334 115.049 197.637 115.143 197.891 115.332C198.151 115.521 198.281 115.846 198.281 116.309C198.281 116.764 198.151 117.09 197.891 117.285C197.637 117.474 197.334 117.568 196.982 117.568C196.618 117.568 196.309 117.474 196.055 117.285C195.807 117.09 195.684 116.764 195.684 116.309C195.684 115.846 195.807 115.521 196.055 115.332C196.309 115.143 196.618 115.049 196.982 115.049ZM210.977 124.57C210.977 125.469 210.859 126.266 210.625 126.963C210.391 127.66 210.049 128.249 209.6 128.73C209.15 129.206 208.61 129.57 207.979 129.824C207.347 130.072 206.634 130.195 205.84 130.195C205.098 130.195 204.417 130.072 203.799 129.824C203.18 129.57 202.643 129.206 202.188 128.73C201.738 128.249 201.39 127.66 201.143 126.963C200.895 126.266 200.771 125.469 200.771 124.57C200.771 123.379 200.977 122.37 201.387 121.543C201.803 120.71 202.396 120.075 203.164 119.639C203.932 119.202 204.847 118.984 205.908 118.984C206.904 118.984 207.783 119.202 208.545 119.639C209.307 120.075 209.902 120.71 210.332 121.543C210.762 122.376 210.977 123.385 210.977 124.57ZM203.135 124.57C203.135 125.358 203.229 126.032 203.418 126.592C203.613 127.152 203.913 127.581 204.316 127.881C204.72 128.174 205.241 128.32 205.879 128.32C206.517 128.32 207.038 128.174 207.441 127.881C207.845 127.581 208.141 127.152 208.33 126.592C208.519 126.032 208.613 125.358 208.613 124.57C208.613 123.783 208.519 123.115 208.33 122.568C208.141 122.015 207.845 121.595 207.441 121.309C207.038 121.016 206.514 120.869 205.869 120.869C204.919 120.869 204.225 121.188 203.789 121.826C203.353 122.464 203.135 123.379 203.135 124.57ZM219.248 118.984C220.465 118.984 221.413 119.3 222.09 119.932C222.773 120.557 223.115 121.562 223.115 122.949V130H220.82V123.379C220.82 122.539 220.648 121.911 220.303 121.494C219.958 121.071 219.424 120.859 218.701 120.859C217.653 120.859 216.924 121.182 216.514 121.826C216.11 122.471 215.908 123.405 215.908 124.629V130H213.613V119.189H215.4L215.723 120.654H215.85C216.084 120.277 216.374 119.967 216.719 119.727C217.07 119.479 217.461 119.294 217.891 119.17C218.327 119.046 218.779 118.984 219.248 118.984ZM238.789 126.914C238.789 127.624 238.617 128.223 238.271 128.711C237.926 129.199 237.422 129.57 236.758 129.824C236.1 130.072 235.293 130.195 234.336 130.195C233.581 130.195 232.93 130.14 232.383 130.029C231.842 129.925 231.331 129.762 230.85 129.541V127.559C231.364 127.799 231.94 128.008 232.578 128.184C233.223 128.359 233.831 128.447 234.404 128.447C235.16 128.447 235.703 128.33 236.035 128.096C236.367 127.855 236.533 127.536 236.533 127.139C236.533 126.904 236.465 126.696 236.328 126.514C236.198 126.325 235.951 126.133 235.586 125.938C235.228 125.736 234.701 125.495 234.004 125.215C233.32 124.941 232.744 124.668 232.275 124.395C231.807 124.121 231.452 123.792 231.211 123.408C230.97 123.018 230.85 122.52 230.85 121.914C230.85 120.957 231.227 120.231 231.982 119.736C232.744 119.235 233.75 118.984 235 118.984C235.664 118.984 236.289 119.053 236.875 119.189C237.467 119.32 238.047 119.512 238.613 119.766L237.891 121.494C237.402 121.279 236.911 121.104 236.416 120.967C235.928 120.824 235.43 120.752 234.922 120.752C234.329 120.752 233.877 120.843 233.564 121.025C233.258 121.208 233.105 121.468 233.105 121.807C233.105 122.061 233.18 122.275 233.33 122.451C233.48 122.627 233.737 122.803 234.102 122.979C234.473 123.154 234.987 123.372 235.645 123.633C236.289 123.88 236.846 124.141 237.314 124.414C237.79 124.681 238.154 125.01 238.408 125.4C238.662 125.791 238.789 126.296 238.789 126.914ZM250.693 119.189V130H248.887L248.574 128.545H248.447C248.219 128.916 247.93 129.225 247.578 129.473C247.227 129.714 246.836 129.893 246.406 130.01C245.977 130.133 245.524 130.195 245.049 130.195C244.235 130.195 243.538 130.059 242.959 129.785C242.386 129.505 241.947 129.076 241.641 128.496C241.335 127.917 241.182 127.168 241.182 126.25V119.189H243.486V125.82C243.486 126.66 243.656 127.288 243.994 127.705C244.339 128.122 244.873 128.33 245.596 128.33C246.292 128.33 246.846 128.187 247.256 127.9C247.666 127.614 247.956 127.191 248.125 126.631C248.301 126.071 248.389 125.384 248.389 124.57V119.189H250.693ZM258.34 130.195C257.318 130.195 256.432 129.997 255.684 129.6C254.935 129.202 254.359 128.594 253.955 127.773C253.551 126.953 253.35 125.911 253.35 124.648C253.35 123.333 253.571 122.259 254.014 121.426C254.456 120.592 255.068 119.977 255.85 119.58C256.637 119.183 257.539 118.984 258.555 118.984C259.199 118.984 259.782 119.049 260.303 119.18C260.83 119.303 261.276 119.456 261.641 119.639L260.957 121.475C260.56 121.312 260.153 121.175 259.736 121.064C259.32 120.954 258.919 120.898 258.535 120.898C257.904 120.898 257.376 121.038 256.953 121.318C256.536 121.598 256.224 122.015 256.016 122.568C255.814 123.122 255.713 123.809 255.713 124.629C255.713 125.423 255.817 126.094 256.025 126.641C256.234 127.181 256.543 127.591 256.953 127.871C257.363 128.145 257.868 128.281 258.467 128.281C259.059 128.281 259.59 128.21 260.059 128.066C260.527 127.923 260.97 127.738 261.387 127.51V129.502C260.977 129.736 260.537 129.909 260.068 130.02C259.6 130.137 259.023 130.195 258.34 130.195ZM268.232 118.984C269.196 118.984 270.023 119.183 270.713 119.58C271.403 119.977 271.934 120.54 272.305 121.27C272.676 121.999 272.861 122.871 272.861 123.887V125.117H265.645C265.671 126.165 265.951 126.973 266.484 127.539C267.025 128.105 267.78 128.389 268.75 128.389C269.44 128.389 270.059 128.324 270.605 128.193C271.159 128.057 271.729 127.858 272.314 127.598V129.463C271.774 129.717 271.224 129.902 270.664 130.02C270.104 130.137 269.434 130.195 268.652 130.195C267.591 130.195 266.657 129.99 265.85 129.58C265.049 129.163 264.421 128.545 263.965 127.725C263.516 126.904 263.291 125.885 263.291 124.668C263.291 123.457 263.496 122.428 263.906 121.582C264.316 120.736 264.893 120.091 265.635 119.648C266.377 119.206 267.243 118.984 268.232 118.984ZM268.232 120.713C267.51 120.713 266.924 120.947 266.475 121.416C266.032 121.885 265.771 122.572 265.693 123.477H270.615C270.609 122.936 270.518 122.458 270.342 122.041C270.173 121.624 269.912 121.299 269.561 121.064C269.215 120.83 268.773 120.713 268.232 120.713ZM282.715 126.914C282.715 127.624 282.542 128.223 282.197 128.711C281.852 129.199 281.348 129.57 280.684 129.824C280.026 130.072 279.219 130.195 278.262 130.195C277.507 130.195 276.855 130.14 276.309 130.029C275.768 129.925 275.257 129.762 274.775 129.541V127.559C275.29 127.799 275.866 128.008 276.504 128.184C277.148 128.359 277.757 128.447 278.33 128.447C279.085 128.447 279.629 128.33 279.961 128.096C280.293 127.855 280.459 127.536 280.459 127.139C280.459 126.904 280.391 126.696 280.254 126.514C280.124 126.325 279.876 126.133 279.512 125.938C279.154 125.736 278.626 125.495 277.93 125.215C277.246 124.941 276.67 124.668 276.201 124.395C275.732 124.121 275.378 123.792 275.137 123.408C274.896 123.018 274.775 122.52 274.775 121.914C274.775 120.957 275.153 120.231 275.908 119.736C276.67 119.235 277.676 118.984 278.926 118.984C279.59 118.984 280.215 119.053 280.801 119.189C281.393 119.32 281.973 119.512 282.539 119.766L281.816 121.494C281.328 121.279 280.837 121.104 280.342 120.967C279.854 120.824 279.355 120.752 278.848 120.752C278.255 120.752 277.803 120.843 277.49 121.025C277.184 121.208 277.031 121.468 277.031 121.807C277.031 122.061 277.106 122.275 277.256 122.451C277.406 122.627 277.663 122.803 278.027 122.979C278.398 123.154 278.913 123.372 279.57 123.633C280.215 123.88 280.771 124.141 281.24 124.414C281.715 124.681 282.08 125.01 282.334 125.4C282.588 125.791 282.715 126.296 282.715 126.914ZM292.461 126.914C292.461 127.624 292.288 128.223 291.943 128.711C291.598 129.199 291.094 129.57 290.43 129.824C289.772 130.072 288.965 130.195 288.008 130.195C287.253 130.195 286.602 130.14 286.055 130.029C285.514 129.925 285.003 129.762 284.521 129.541V127.559C285.036 127.799 285.612 128.008 286.25 128.184C286.895 128.359 287.503 128.447 288.076 128.447C288.831 128.447 289.375 128.33 289.707 128.096C290.039 127.855 290.205 127.536 290.205 127.139C290.205 126.904 290.137 126.696 290 126.514C289.87 126.325 289.622 126.133 289.258 125.938C288.9 125.736 288.372 125.495 287.676 125.215C286.992 124.941 286.416 124.668 285.947 124.395C285.479 124.121 285.124 123.792 284.883 123.408C284.642 123.018 284.521 122.52 284.521 121.914C284.521 120.957 284.899 120.231 285.654 119.736C286.416 119.235 287.422 118.984 288.672 118.984C289.336 118.984 289.961 119.053 290.547 119.189C291.139 119.32 291.719 119.512 292.285 119.766L291.562 121.494C291.074 121.279 290.583 121.104 290.088 120.967C289.6 120.824 289.102 120.752 288.594 120.752C288.001 120.752 287.549 120.843 287.236 121.025C286.93 121.208 286.777 121.468 286.777 121.807C286.777 122.061 286.852 122.275 287.002 122.451C287.152 122.627 287.409 122.803 287.773 122.979C288.145 123.154 288.659 123.372 289.316 123.633C289.961 123.88 290.518 124.141 290.986 124.414C291.462 124.681 291.826 125.01 292.08 125.4C292.334 125.791 292.461 126.296 292.461 126.914ZM305.615 118.984C305.798 118.984 305.996 118.994 306.211 119.014C306.426 119.033 306.611 119.059 306.768 119.092L306.553 121.24C306.416 121.201 306.247 121.172 306.045 121.152C305.85 121.133 305.674 121.123 305.518 121.123C305.107 121.123 304.717 121.191 304.346 121.328C303.975 121.458 303.646 121.66 303.359 121.934C303.073 122.201 302.848 122.536 302.686 122.939C302.523 123.343 302.441 123.812 302.441 124.346V130H300.137V119.189H301.934L302.246 121.094H302.354C302.568 120.71 302.835 120.358 303.154 120.039C303.473 119.72 303.838 119.466 304.248 119.277C304.665 119.082 305.12 118.984 305.615 118.984ZM313.008 118.984C314.375 118.984 315.407 119.287 316.104 119.893C316.807 120.498 317.158 121.442 317.158 122.725V130H315.527L315.088 128.467H315.01C314.704 128.857 314.388 129.18 314.062 129.434C313.737 129.688 313.359 129.876 312.93 130C312.507 130.13 311.989 130.195 311.377 130.195C310.732 130.195 310.156 130.078 309.648 129.844C309.141 129.603 308.74 129.238 308.447 128.75C308.154 128.262 308.008 127.643 308.008 126.895C308.008 125.781 308.421 124.945 309.248 124.385C310.081 123.825 311.338 123.516 313.018 123.457L314.893 123.389V122.822C314.893 122.074 314.717 121.54 314.365 121.221C314.02 120.902 313.532 120.742 312.9 120.742C312.36 120.742 311.836 120.82 311.328 120.977C310.82 121.133 310.326 121.325 309.844 121.553L309.102 119.932C309.629 119.652 310.228 119.424 310.898 119.248C311.576 119.072 312.279 118.984 313.008 118.984ZM314.883 124.834L313.486 124.883C312.34 124.922 311.536 125.117 311.074 125.469C310.612 125.82 310.381 126.302 310.381 126.914C310.381 127.448 310.54 127.839 310.859 128.086C311.178 128.327 311.598 128.447 312.119 128.447C312.913 128.447 313.571 128.223 314.092 127.773C314.619 127.318 314.883 126.65 314.883 125.771V124.834ZM324.395 128.34C324.694 128.34 324.99 128.314 325.283 128.262C325.576 128.203 325.843 128.135 326.084 128.057V129.795C325.83 129.906 325.501 130 325.098 130.078C324.694 130.156 324.274 130.195 323.838 130.195C323.226 130.195 322.676 130.094 322.188 129.893C321.699 129.684 321.312 129.329 321.025 128.828C320.739 128.327 320.596 127.633 320.596 126.748V120.938H319.121V119.912L320.703 119.102L321.455 116.787H322.9V119.189H325.996V120.938H322.9V126.719C322.9 127.266 323.037 127.673 323.311 127.939C323.584 128.206 323.945 128.34 324.395 128.34ZM332.588 118.984C333.551 118.984 334.378 119.183 335.068 119.58C335.758 119.977 336.289 120.54 336.66 121.27C337.031 121.999 337.217 122.871 337.217 123.887V125.117H330C330.026 126.165 330.306 126.973 330.84 127.539C331.38 128.105 332.135 128.389 333.105 128.389C333.796 128.389 334.414 128.324 334.961 128.193C335.514 128.057 336.084 127.858 336.67 127.598V129.463C336.13 129.717 335.579 129.902 335.02 130.02C334.46 130.137 333.789 130.195 333.008 130.195C331.947 130.195 331.012 129.99 330.205 129.58C329.404 129.163 328.776 128.545 328.32 127.725C327.871 126.904 327.646 125.885 327.646 124.668C327.646 123.457 327.852 122.428 328.262 121.582C328.672 120.736 329.248 120.091 329.99 119.648C330.732 119.206 331.598 118.984 332.588 118.984ZM332.588 120.713C331.865 120.713 331.279 120.947 330.83 121.416C330.387 121.885 330.127 122.572 330.049 123.477H334.971C334.964 122.936 334.873 122.458 334.697 122.041C334.528 121.624 334.268 121.299 333.916 121.064C333.571 120.83 333.128 120.713 332.588 120.713Z" fill="#373737"/>
<path d="M596.234 134H586.566V132.271L590.268 128.521C590.984 127.792 591.573 127.164 592.035 126.637C592.497 126.103 592.839 125.598 593.061 125.123C593.288 124.648 593.402 124.13 593.402 123.57C593.402 122.88 593.204 122.359 592.807 122.008C592.41 121.65 591.885 121.471 591.234 121.471C590.616 121.471 590.043 121.594 589.516 121.842C588.995 122.083 588.454 122.428 587.895 122.877L586.635 121.363C587.032 121.025 587.455 120.715 587.904 120.436C588.36 120.156 588.868 119.934 589.428 119.771C589.988 119.602 590.626 119.518 591.342 119.518C592.247 119.518 593.028 119.68 593.686 120.006C594.343 120.325 594.848 120.771 595.199 121.344C595.557 121.917 595.736 122.584 595.736 123.346C595.736 124.114 595.583 124.824 595.277 125.475C594.971 126.126 594.535 126.77 593.969 127.408C593.402 128.04 592.729 128.727 591.947 129.469L589.477 131.881V131.988H596.234V134ZM598.422 132.789C598.422 132.255 598.559 131.881 598.832 131.666C599.112 131.445 599.451 131.334 599.848 131.334C600.245 131.334 600.583 131.445 600.863 131.666C601.15 131.881 601.293 132.255 601.293 132.789C601.293 133.31 601.15 133.688 600.863 133.922C600.583 134.15 600.245 134.264 599.848 134.264C599.451 134.264 599.112 134.15 598.832 133.922C598.559 133.688 598.422 133.31 598.422 132.789ZM612.621 122.984C612.621 123.629 612.491 124.189 612.23 124.664C611.97 125.139 611.612 125.53 611.156 125.836C610.707 126.135 610.186 126.35 609.594 126.48V126.549C610.733 126.692 611.592 127.05 612.172 127.623C612.758 128.196 613.051 128.954 613.051 129.898C613.051 130.725 612.852 131.464 612.455 132.115C612.058 132.76 611.449 133.268 610.629 133.639C609.809 134.01 608.754 134.195 607.465 134.195C606.69 134.195 605.971 134.133 605.307 134.01C604.649 133.886 604.024 133.688 603.432 133.414V131.373C604.037 131.673 604.682 131.904 605.365 132.066C606.049 132.229 606.697 132.311 607.309 132.311C608.5 132.311 609.35 132.089 609.857 131.646C610.365 131.197 610.619 130.579 610.619 129.791C610.619 129.283 610.486 128.867 610.219 128.541C609.958 128.215 609.551 127.971 608.998 127.809C608.451 127.646 607.745 127.564 606.879 127.564H605.619V125.719H606.889C607.715 125.719 608.38 125.621 608.881 125.426C609.382 125.224 609.743 124.947 609.965 124.596C610.193 124.244 610.307 123.834 610.307 123.365C610.307 122.753 610.108 122.278 609.711 121.939C609.314 121.594 608.725 121.422 607.943 121.422C607.462 121.422 607.022 121.477 606.625 121.588C606.234 121.699 605.873 121.839 605.541 122.008C605.209 122.177 604.893 122.359 604.594 122.555L603.49 120.963C604.031 120.559 604.675 120.217 605.424 119.938C606.173 119.658 607.045 119.518 608.041 119.518C609.506 119.518 610.635 119.833 611.43 120.465C612.224 121.09 612.621 121.93 612.621 122.984ZM617.992 119.518C619.04 119.518 619.835 119.908 620.375 120.689C620.915 121.464 621.186 122.561 621.186 123.98C621.186 125.393 620.925 126.497 620.404 127.291C619.89 128.085 619.086 128.482 617.992 128.482C616.97 128.482 616.192 128.085 615.658 127.291C615.124 126.497 614.857 125.393 614.857 123.98C614.857 122.561 615.108 121.464 615.609 120.689C616.117 119.908 616.911 119.518 617.992 119.518ZM618.002 121.119C617.579 121.119 617.266 121.357 617.064 121.832C616.869 122.307 616.771 123.027 616.771 123.99C616.771 124.947 616.869 125.67 617.064 126.158C617.266 126.64 617.579 126.881 618.002 126.881C618.432 126.881 618.751 126.64 618.959 126.158C619.174 125.676 619.281 124.954 619.281 123.99C619.281 123.033 619.177 122.317 618.969 121.842C618.76 121.36 618.438 121.119 618.002 121.119ZM627.582 119.723L619.662 134H617.777L625.697 119.723H627.582ZM627.318 125.23C628.367 125.23 629.161 125.621 629.701 126.402C630.248 127.177 630.521 128.274 630.521 129.693C630.521 131.1 630.261 132.2 629.74 132.994C629.226 133.788 628.419 134.186 627.318 134.186C626.296 134.186 625.518 133.788 624.984 132.994C624.451 132.2 624.184 131.1 624.184 129.693C624.184 128.274 624.434 127.177 624.936 126.402C625.443 125.621 626.238 125.23 627.318 125.23ZM627.328 126.832C626.905 126.832 626.592 127.07 626.391 127.545C626.195 128.02 626.098 128.74 626.098 129.703C626.098 130.66 626.195 131.383 626.391 131.871C626.592 132.353 626.905 132.594 627.328 132.594C627.764 132.594 628.087 132.356 628.295 131.881C628.503 131.399 628.607 130.673 628.607 129.703C628.607 128.746 628.503 128.03 628.295 127.555C628.087 127.073 627.764 126.832 627.328 126.832Z" fill="#373737"/>
<path d="M883.592 134H881.287V124.811C881.287 124.505 881.29 124.199 881.297 123.893C881.303 123.587 881.31 123.287 881.316 122.994C881.329 122.701 881.346 122.421 881.365 122.154C881.229 122.304 881.059 122.467 880.857 122.643C880.662 122.818 880.454 123.001 880.232 123.189L878.592 124.498L877.439 123.043L881.678 119.723H883.592V134ZM897.41 122.984C897.41 123.629 897.28 124.189 897.02 124.664C896.759 125.139 896.401 125.53 895.945 125.836C895.496 126.135 894.975 126.35 894.383 126.48V126.549C895.522 126.692 896.382 127.05 896.961 127.623C897.547 128.196 897.84 128.954 897.84 129.898C897.84 130.725 897.641 131.464 897.244 132.115C896.847 132.76 896.238 133.268 895.418 133.639C894.598 134.01 893.543 134.195 892.254 134.195C891.479 134.195 890.76 134.133 890.096 134.01C889.438 133.886 888.813 133.688 888.221 133.414V131.373C888.826 131.673 889.471 131.904 890.154 132.066C890.838 132.229 891.486 132.311 892.098 132.311C893.289 132.311 894.139 132.089 894.646 131.646C895.154 131.197 895.408 130.579 895.408 129.791C895.408 129.283 895.275 128.867 895.008 128.541C894.747 128.215 894.34 127.971 893.787 127.809C893.24 127.646 892.534 127.564 891.668 127.564H890.408V125.719H891.678C892.505 125.719 893.169 125.621 893.67 125.426C894.171 125.224 894.533 124.947 894.754 124.596C894.982 124.244 895.096 123.834 895.096 123.365C895.096 122.753 894.897 122.278 894.5 121.939C894.103 121.594 893.514 121.422 892.732 121.422C892.251 121.422 891.811 121.477 891.414 121.588C891.023 121.699 890.662 121.839 890.33 122.008C889.998 122.177 889.682 122.359 889.383 122.555L888.279 120.963C888.82 120.559 889.464 120.217 890.213 119.938C890.962 119.658 891.834 119.518 892.83 119.518C894.295 119.518 895.424 119.833 896.219 120.465C897.013 121.09 897.41 121.93 897.41 122.984ZM900.145 132.789C900.145 132.255 900.281 131.881 900.555 131.666C900.835 131.445 901.173 131.334 901.57 131.334C901.967 131.334 902.306 131.445 902.586 131.666C902.872 131.881 903.016 132.255 903.016 132.789C903.016 133.31 902.872 133.688 902.586 133.922C902.306 134.15 901.967 134.264 901.57 134.264C901.173 134.264 900.835 134.15 900.555 133.922C900.281 133.688 900.145 133.31 900.145 132.789ZM910.037 119.527C910.864 119.527 911.609 119.658 912.273 119.918C912.938 120.172 913.465 120.553 913.855 121.061C914.246 121.568 914.441 122.197 914.441 122.945C914.441 123.525 914.321 124.029 914.08 124.459C913.846 124.889 913.527 125.266 913.123 125.592C912.719 125.911 912.267 126.194 911.766 126.441C912.326 126.715 912.84 127.031 913.309 127.389C913.784 127.74 914.165 128.154 914.451 128.629C914.744 129.104 914.891 129.661 914.891 130.299C914.891 131.1 914.686 131.793 914.275 132.379C913.872 132.958 913.309 133.408 912.586 133.727C911.863 134.039 911.02 134.195 910.057 134.195C909.021 134.195 908.139 134.042 907.41 133.736C906.681 133.43 906.128 132.994 905.75 132.428C905.372 131.855 905.184 131.171 905.184 130.377C905.184 129.719 905.314 129.15 905.574 128.668C905.835 128.186 906.183 127.77 906.619 127.418C907.062 127.066 907.547 126.77 908.074 126.529C907.625 126.262 907.215 125.963 906.844 125.631C906.473 125.292 906.176 124.905 905.955 124.469C905.74 124.026 905.633 123.515 905.633 122.936C905.633 122.193 905.831 121.572 906.229 121.07C906.626 120.562 907.156 120.178 907.82 119.918C908.491 119.658 909.23 119.527 910.037 119.527ZM907.371 130.289C907.371 130.914 907.592 131.428 908.035 131.832C908.478 132.236 909.139 132.438 910.018 132.438C910.89 132.438 911.554 132.239 912.01 131.842C912.465 131.445 912.693 130.921 912.693 130.27C912.693 129.853 912.576 129.485 912.342 129.166C912.114 128.847 911.805 128.564 911.414 128.316C911.03 128.062 910.604 127.828 910.135 127.613L909.822 127.486C909.314 127.701 908.878 127.945 908.514 128.219C908.149 128.486 907.866 128.788 907.664 129.127C907.469 129.465 907.371 129.853 907.371 130.289ZM910.018 121.295C909.386 121.295 908.865 121.451 908.455 121.764C908.051 122.07 907.85 122.512 907.85 123.092C907.85 123.502 907.947 123.854 908.143 124.146C908.344 124.439 908.615 124.693 908.953 124.908C909.292 125.117 909.666 125.312 910.076 125.494C910.473 125.318 910.831 125.126 911.15 124.918C911.476 124.703 911.733 124.449 911.922 124.156C912.117 123.857 912.215 123.499 912.215 123.082C912.215 122.509 912.01 122.07 911.6 121.764C911.196 121.451 910.669 121.295 910.018 121.295ZM919.715 119.518C920.763 119.518 921.557 119.908 922.098 120.689C922.638 121.464 922.908 122.561 922.908 123.98C922.908 125.393 922.648 126.497 922.127 127.291C921.613 128.085 920.809 128.482 919.715 128.482C918.693 128.482 917.915 128.085 917.381 127.291C916.847 126.497 916.58 125.393 916.58 123.98C916.58 122.561 916.831 121.464 917.332 120.689C917.84 119.908 918.634 119.518 919.715 119.518ZM919.725 121.119C919.301 121.119 918.989 121.357 918.787 121.832C918.592 122.307 918.494 123.027 918.494 123.99C918.494 124.947 918.592 125.67 918.787 126.158C918.989 126.64 919.301 126.881 919.725 126.881C920.154 126.881 920.473 126.64 920.682 126.158C920.896 125.676 921.004 124.954 921.004 123.99C921.004 123.033 920.9 122.317 920.691 121.842C920.483 121.36 920.161 121.119 919.725 121.119ZM929.305 119.723L921.385 134H919.5L927.42 119.723H929.305ZM929.041 125.23C930.089 125.23 930.883 125.621 931.424 126.402C931.971 127.177 932.244 128.274 932.244 129.693C932.244 131.1 931.984 132.2 931.463 132.994C930.949 133.788 930.141 134.186 929.041 134.186C928.019 134.186 927.241 133.788 926.707 132.994C926.173 132.2 925.906 131.1 925.906 129.693C925.906 128.274 926.157 127.177 926.658 126.402C927.166 125.621 927.96 125.23 929.041 125.23ZM929.051 126.832C928.628 126.832 928.315 127.07 928.113 127.545C927.918 128.02 927.82 128.74 927.82 129.703C927.82 130.66 927.918 131.383 928.113 131.871C928.315 132.353 928.628 132.594 929.051 132.594C929.487 132.594 929.809 132.356 930.018 131.881C930.226 131.399 930.33 130.673 930.33 129.703C930.33 128.746 930.226 128.03 930.018 127.555C929.809 127.073 929.487 126.832 929.051 126.832Z" fill="#D71920"/>
<path d="M583.969 213H581.088L574.096 201.604H574.008C574.034 201.988 574.057 202.395 574.076 202.824C574.102 203.254 574.122 203.697 574.135 204.152C574.154 204.608 574.171 205.07 574.184 205.539V213H572.055V198.723H574.916L581.898 210.041H581.967C581.954 209.709 581.938 209.328 581.918 208.898C581.898 208.469 581.879 208.026 581.859 207.57C581.846 207.108 581.837 206.662 581.83 206.232V198.723H583.969V213ZM597.055 207.57C597.055 208.469 596.938 209.266 596.703 209.963C596.469 210.66 596.127 211.249 595.678 211.73C595.229 212.206 594.688 212.57 594.057 212.824C593.425 213.072 592.712 213.195 591.918 213.195C591.176 213.195 590.495 213.072 589.877 212.824C589.258 212.57 588.721 212.206 588.266 211.73C587.816 211.249 587.468 210.66 587.221 209.963C586.973 209.266 586.85 208.469 586.85 207.57C586.85 206.379 587.055 205.37 587.465 204.543C587.882 203.71 588.474 203.075 589.242 202.639C590.01 202.202 590.925 201.984 591.986 201.984C592.982 201.984 593.861 202.202 594.623 202.639C595.385 203.075 595.98 203.71 596.41 204.543C596.84 205.376 597.055 206.385 597.055 207.57ZM589.213 207.57C589.213 208.358 589.307 209.032 589.496 209.592C589.691 210.152 589.991 210.581 590.395 210.881C590.798 211.174 591.319 211.32 591.957 211.32C592.595 211.32 593.116 211.174 593.52 210.881C593.923 210.581 594.219 210.152 594.408 209.592C594.597 209.032 594.691 208.358 594.691 207.57C594.691 206.783 594.597 206.115 594.408 205.568C594.219 205.015 593.923 204.595 593.52 204.309C593.116 204.016 592.592 203.869 591.947 203.869C590.997 203.869 590.303 204.188 589.867 204.826C589.431 205.464 589.213 206.379 589.213 207.57ZM608.52 213.195C607.23 213.195 606.195 212.727 605.414 211.789C604.639 210.845 604.252 209.455 604.252 207.619C604.252 205.764 604.646 204.361 605.434 203.41C606.228 202.46 607.273 201.984 608.568 201.984C609.115 201.984 609.594 202.059 610.004 202.209C610.414 202.352 610.766 202.548 611.059 202.795C611.358 203.042 611.612 203.319 611.82 203.625H611.928C611.895 203.423 611.856 203.133 611.811 202.756C611.771 202.372 611.752 202.017 611.752 201.691V197.805H614.057V213H612.26L611.85 211.525H611.752C611.557 211.838 611.309 212.121 611.01 212.375C610.717 212.622 610.365 212.821 609.955 212.971C609.551 213.12 609.073 213.195 608.52 213.195ZM609.164 211.33C610.147 211.33 610.84 211.047 611.244 210.48C611.648 209.914 611.856 209.064 611.869 207.932V207.629C611.869 206.418 611.674 205.49 611.283 204.846C610.893 204.195 610.18 203.869 609.145 203.869C608.318 203.869 607.686 204.204 607.25 204.875C606.82 205.539 606.605 206.467 606.605 207.658C606.605 208.85 606.82 209.761 607.25 210.393C607.686 211.018 608.324 211.33 609.164 211.33ZM621.586 201.984C622.953 201.984 623.985 202.287 624.682 202.893C625.385 203.498 625.736 204.442 625.736 205.725V213H624.105L623.666 211.467H623.588C623.282 211.857 622.966 212.18 622.641 212.434C622.315 212.688 621.938 212.876 621.508 213C621.085 213.13 620.567 213.195 619.955 213.195C619.311 213.195 618.734 213.078 618.227 212.844C617.719 212.603 617.318 212.238 617.025 211.75C616.732 211.262 616.586 210.643 616.586 209.895C616.586 208.781 616.999 207.945 617.826 207.385C618.66 206.825 619.916 206.516 621.596 206.457L623.471 206.389V205.822C623.471 205.074 623.295 204.54 622.943 204.221C622.598 203.902 622.11 203.742 621.479 203.742C620.938 203.742 620.414 203.82 619.906 203.977C619.398 204.133 618.904 204.325 618.422 204.553L617.68 202.932C618.207 202.652 618.806 202.424 619.477 202.248C620.154 202.072 620.857 201.984 621.586 201.984ZM623.461 207.834L622.064 207.883C620.919 207.922 620.115 208.117 619.652 208.469C619.19 208.82 618.959 209.302 618.959 209.914C618.959 210.448 619.118 210.839 619.438 211.086C619.757 211.327 620.176 211.447 620.697 211.447C621.492 211.447 622.149 211.223 622.67 210.773C623.197 210.318 623.461 209.65 623.461 208.771V207.834ZM632.973 211.34C633.272 211.34 633.568 211.314 633.861 211.262C634.154 211.203 634.421 211.135 634.662 211.057V212.795C634.408 212.906 634.079 213 633.676 213.078C633.272 213.156 632.852 213.195 632.416 213.195C631.804 213.195 631.254 213.094 630.766 212.893C630.277 212.684 629.89 212.329 629.604 211.828C629.317 211.327 629.174 210.633 629.174 209.748V203.938H627.699V202.912L629.281 202.102L630.033 199.787H631.479V202.189H634.574V203.938H631.479V209.719C631.479 210.266 631.615 210.673 631.889 210.939C632.162 211.206 632.523 211.34 632.973 211.34ZM641.098 201.984C642.465 201.984 643.497 202.287 644.193 202.893C644.896 203.498 645.248 204.442 645.248 205.725V213H643.617L643.178 211.467H643.1C642.794 211.857 642.478 212.18 642.152 212.434C641.827 212.688 641.449 212.876 641.02 213C640.596 213.13 640.079 213.195 639.467 213.195C638.822 213.195 638.246 213.078 637.738 212.844C637.23 212.603 636.83 212.238 636.537 211.75C636.244 211.262 636.098 210.643 636.098 209.895C636.098 208.781 636.511 207.945 637.338 207.385C638.171 206.825 639.428 206.516 641.107 206.457L642.982 206.389V205.822C642.982 205.074 642.807 204.54 642.455 204.221C642.11 203.902 641.622 203.742 640.99 203.742C640.45 203.742 639.926 203.82 639.418 203.977C638.91 204.133 638.415 204.325 637.934 204.553L637.191 202.932C637.719 202.652 638.318 202.424 638.988 202.248C639.665 202.072 640.368 201.984 641.098 201.984ZM642.973 207.834L641.576 207.883C640.43 207.922 639.626 208.117 639.164 208.469C638.702 208.82 638.471 209.302 638.471 209.914C638.471 210.448 638.63 210.839 638.949 211.086C639.268 211.327 639.688 211.447 640.209 211.447C641.003 211.447 641.661 211.223 642.182 210.773C642.709 210.318 642.973 209.65 642.973 208.771V207.834Z" fill="#373737"/>
<path d="M892.293 210.822L882.752 206.604V205.441L892.293 200.695V202.59L885.135 205.939L892.293 208.938V210.822ZM906.102 213H903.797V203.811C903.797 203.505 903.8 203.199 903.807 202.893C903.813 202.587 903.82 202.287 903.826 201.994C903.839 201.701 903.855 201.421 903.875 201.154C903.738 201.304 903.569 201.467 903.367 201.643C903.172 201.818 902.964 202.001 902.742 202.189L901.102 203.498L899.949 202.043L904.188 198.723H906.102V213ZM913.846 198.518C914.894 198.518 915.688 198.908 916.229 199.689C916.769 200.464 917.039 201.561 917.039 202.98C917.039 204.393 916.779 205.497 916.258 206.291C915.743 207.085 914.939 207.482 913.846 207.482C912.824 207.482 912.046 207.085 911.512 206.291C910.978 205.497 910.711 204.393 910.711 202.98C910.711 201.561 910.962 200.464 911.463 199.689C911.971 198.908 912.765 198.518 913.846 198.518ZM913.855 200.119C913.432 200.119 913.12 200.357 912.918 200.832C912.723 201.307 912.625 202.027 912.625 202.99C912.625 203.947 912.723 204.67 912.918 205.158C913.12 205.64 913.432 205.881 913.855 205.881C914.285 205.881 914.604 205.64 914.812 205.158C915.027 204.676 915.135 203.954 915.135 202.99C915.135 202.033 915.031 201.317 914.822 200.842C914.614 200.36 914.292 200.119 913.855 200.119ZM923.436 198.723L915.516 213H913.631L921.551 198.723H923.436ZM923.172 204.23C924.22 204.23 925.014 204.621 925.555 205.402C926.102 206.177 926.375 207.274 926.375 208.693C926.375 210.1 926.115 211.2 925.594 211.994C925.079 212.788 924.272 213.186 923.172 213.186C922.15 213.186 921.372 212.788 920.838 211.994C920.304 211.2 920.037 210.1 920.037 208.693C920.037 207.274 920.288 206.177 920.789 205.402C921.297 204.621 922.091 204.23 923.172 204.23ZM923.182 205.832C922.758 205.832 922.446 206.07 922.244 206.545C922.049 207.02 921.951 207.74 921.951 208.703C921.951 209.66 922.049 210.383 922.244 210.871C922.446 211.353 922.758 211.594 923.182 211.594C923.618 211.594 923.94 211.356 924.148 210.881C924.357 210.399 924.461 209.673 924.461 208.703C924.461 207.746 924.357 207.03 924.148 206.555C923.94 206.073 923.618 205.832 923.182 205.832Z" fill="#373737"/>
</svg>
