<svg width="1156" height="101" viewBox="0 0 1156 101" fill="none" xmlns="http://www.w3.org/2000/svg">
<path d="M0 39C0 35.6863 2.68629 33 6 33H162C165.314 33 168 35.6863 168 39V95C168 98.3137 165.314 101 162 101H6C2.68629 101 0 98.3137 0 95V39Z" fill="#DEDEF8"/>
<path d="M48.3164 57.9375L53.8945 71.8594L59.4727 57.9375H62.3906V75H60.1406V68.3555L60.3516 61.1836L54.75 75H53.0273L47.4375 61.2188L47.6602 68.3555V75H45.4102V57.9375H48.3164ZM73.8516 75C73.7266 74.75 73.625 74.3047 73.5469 73.6641C72.5391 74.7109 71.3359 75.2344 69.9375 75.2344C68.6875 75.2344 67.6602 74.8828 66.8555 74.1797C66.0586 73.4688 65.6602 72.5703 65.6602 71.4844C65.6602 70.1641 66.1602 69.1406 67.1602 68.4141C68.168 67.6797 69.582 67.3125 71.4023 67.3125H73.5117V66.3164C73.5117 65.5586 73.2852 64.957 72.832 64.5117C72.3789 64.0586 71.7109 63.832 70.8281 63.832C70.0547 63.832 69.4062 64.0273 68.8828 64.418C68.3594 64.8086 68.0977 65.2812 68.0977 65.8359H65.918C65.918 65.2031 66.1406 64.5938 66.5859 64.0078C67.0391 63.4141 67.6484 62.9453 68.4141 62.6016C69.1875 62.2578 70.0352 62.0859 70.957 62.0859C72.418 62.0859 73.5625 62.4531 74.3906 63.1875C75.2188 63.9141 75.6484 64.918 75.6797 66.1992V72.0352C75.6797 73.1992 75.8281 74.125 76.125 74.8125V75H73.8516ZM70.2539 73.3477C70.9336 73.3477 71.5781 73.1719 72.1875 72.8203C72.7969 72.4688 73.2383 72.0117 73.5117 71.4492V68.8477H71.8125C69.1562 68.8477 67.8281 69.625 67.8281 71.1797C67.8281 71.8594 68.0547 72.3906 68.5078 72.7734C68.9609 73.1562 69.543 73.3477 70.2539 73.3477ZM81.4336 75H79.2656V62.3203H81.4336V75ZM79.0898 58.957C79.0898 58.6055 79.1953 58.3086 79.4062 58.0664C79.625 57.8242 79.9453 57.7031 80.3672 57.7031C80.7891 57.7031 81.1094 57.8242 81.3281 58.0664C81.5469 58.3086 81.6562 58.6055 81.6562 58.957C81.6562 59.3086 81.5469 59.6016 81.3281 59.8359C81.1094 60.0703 80.7891 60.1875 80.3672 60.1875C79.9453 60.1875 79.625 60.0703 79.4062 59.8359C79.1953 59.6016 79.0898 59.3086 79.0898 58.957ZM86.9648 62.3203L87.0352 63.9141C88.0039 62.6953 89.2695 62.0859 90.832 62.0859C93.5117 62.0859 94.8633 63.5977 94.8867 66.6211V75H92.7188V66.6094C92.7109 65.6953 92.5 65.0195 92.0859 64.582C91.6797 64.1445 91.043 63.9258 90.1758 63.9258C89.4727 63.9258 88.8555 64.1133 88.3242 64.4883C87.793 64.8633 87.3789 65.3555 87.082 65.9648V75H84.9141V62.3203H86.9648ZM116.461 57.9375V69.5391C116.453 71.1484 115.945 72.4648 114.938 73.4883C113.938 74.5117 112.578 75.0859 110.859 75.2109L110.262 75.2344C108.395 75.2344 106.906 74.7305 105.797 73.7227C104.688 72.7148 104.125 71.3281 104.109 69.5625V57.9375H106.336V69.4922C106.336 70.7266 106.676 71.6875 107.355 72.375C108.035 73.0547 109.004 73.3945 110.262 73.3945C111.535 73.3945 112.508 73.0547 113.18 72.375C113.859 71.6953 114.199 70.7383 114.199 69.5039V57.9375H116.461ZM122.426 75H120.176V57.9375H122.426V75Z" fill="#20263B"/>
<path d="M209 39C209 35.6863 211.686 33 215 33H448C451.314 33 454 35.6863 454 39V95C454 98.3137 451.314 101 448 101H215C211.686 101 209 98.3137 209 95V39Z" fill="#DEDEF8"/>
<path d="M283.113 67.3945C281.184 66.8398 279.777 66.1602 278.895 65.3555C278.02 64.543 277.582 63.543 277.582 62.3555C277.582 61.0117 278.117 59.9023 279.188 59.0273C280.266 58.1445 281.664 57.7031 283.383 57.7031C284.555 57.7031 285.598 57.9297 286.512 58.3828C287.434 58.8359 288.145 59.4609 288.645 60.2578C289.152 61.0547 289.406 61.9258 289.406 62.8711H287.145C287.145 61.8398 286.816 61.0312 286.16 60.4453C285.504 59.8516 284.578 59.5547 283.383 59.5547C282.273 59.5547 281.406 59.8008 280.781 60.293C280.164 60.7773 279.855 61.4531 279.855 62.3203C279.855 63.0156 280.148 63.6055 280.734 64.0898C281.328 64.5664 282.332 65.0039 283.746 65.4023C285.168 65.8008 286.277 66.2422 287.074 66.7266C287.879 67.2031 288.473 67.7617 288.855 68.4023C289.246 69.043 289.441 69.7969 289.441 70.6641C289.441 72.0469 288.902 73.1562 287.824 73.9922C286.746 74.8203 285.305 75.2344 283.5 75.2344C282.328 75.2344 281.234 75.0117 280.219 74.5664C279.203 74.1133 278.418 73.4961 277.863 72.7148C277.316 71.9336 277.043 71.0469 277.043 70.0547H279.305C279.305 71.0859 279.684 71.9023 280.441 72.5039C281.207 73.0977 282.227 73.3945 283.5 73.3945C284.688 73.3945 285.598 73.1523 286.23 72.668C286.863 72.1836 287.18 71.5234 287.18 70.6875C287.18 69.8516 286.887 69.207 286.301 68.7539C285.715 68.293 284.652 67.8398 283.113 67.3945ZM294.938 59.25V62.3203H297.305V63.9961H294.938V71.8594C294.938 72.3672 295.043 72.75 295.254 73.0078C295.465 73.2578 295.824 73.3828 296.332 73.3828C296.582 73.3828 296.926 73.3359 297.363 73.2422V75C296.793 75.1562 296.238 75.2344 295.699 75.2344C294.73 75.2344 294 74.9414 293.508 74.3555C293.016 73.7695 292.77 72.9375 292.77 71.8594V63.9961H290.461V62.3203H292.77V59.25H294.938ZM307.676 75C307.551 74.75 307.449 74.3047 307.371 73.6641C306.363 74.7109 305.16 75.2344 303.762 75.2344C302.512 75.2344 301.484 74.8828 300.68 74.1797C299.883 73.4688 299.484 72.5703 299.484 71.4844C299.484 70.1641 299.984 69.1406 300.984 68.4141C301.992 67.6797 303.406 67.3125 305.227 67.3125H307.336V66.3164C307.336 65.5586 307.109 64.957 306.656 64.5117C306.203 64.0586 305.535 63.832 304.652 63.832C303.879 63.832 303.23 64.0273 302.707 64.418C302.184 64.8086 301.922 65.2812 301.922 65.8359H299.742C299.742 65.2031 299.965 64.5938 300.41 64.0078C300.863 63.4141 301.473 62.9453 302.238 62.6016C303.012 62.2578 303.859 62.0859 304.781 62.0859C306.242 62.0859 307.387 62.4531 308.215 63.1875C309.043 63.9141 309.473 64.918 309.504 66.1992V72.0352C309.504 73.1992 309.652 74.125 309.949 74.8125V75H307.676ZM304.078 73.3477C304.758 73.3477 305.402 73.1719 306.012 72.8203C306.621 72.4688 307.062 72.0117 307.336 71.4492V68.8477H305.637C302.98 68.8477 301.652 69.625 301.652 71.1797C301.652 71.8594 301.879 72.3906 302.332 72.7734C302.785 73.1562 303.367 73.3477 304.078 73.3477ZM319.031 64.2656C318.703 64.2109 318.348 64.1836 317.965 64.1836C316.543 64.1836 315.578 64.7891 315.07 66V75H312.902V62.3203H315.012L315.047 63.7852C315.758 62.6523 316.766 62.0859 318.07 62.0859C318.492 62.0859 318.812 62.1406 319.031 62.25V64.2656ZM324.562 59.25V62.3203H326.93V63.9961H324.562V71.8594C324.562 72.3672 324.668 72.75 324.879 73.0078C325.09 73.2578 325.449 73.3828 325.957 73.3828C326.207 73.3828 326.551 73.3359 326.988 73.2422V75C326.418 75.1562 325.863 75.2344 325.324 75.2344C324.355 75.2344 323.625 74.9414 323.133 74.3555C322.641 73.7695 322.395 72.9375 322.395 71.8594V63.9961H320.086V62.3203H322.395V59.25H324.562ZM340.793 67.3945C338.863 66.8398 337.457 66.1602 336.574 65.3555C335.699 64.543 335.262 63.543 335.262 62.3555C335.262 61.0117 335.797 59.9023 336.867 59.0273C337.945 58.1445 339.344 57.7031 341.062 57.7031C342.234 57.7031 343.277 57.9297 344.191 58.3828C345.113 58.8359 345.824 59.4609 346.324 60.2578C346.832 61.0547 347.086 61.9258 347.086 62.8711H344.824C344.824 61.8398 344.496 61.0312 343.84 60.4453C343.184 59.8516 342.258 59.5547 341.062 59.5547C339.953 59.5547 339.086 59.8008 338.461 60.293C337.844 60.7773 337.535 61.4531 337.535 62.3203C337.535 63.0156 337.828 63.6055 338.414 64.0898C339.008 64.5664 340.012 65.0039 341.426 65.4023C342.848 65.8008 343.957 66.2422 344.754 66.7266C345.559 67.2031 346.152 67.7617 346.535 68.4023C346.926 69.043 347.121 69.7969 347.121 70.6641C347.121 72.0469 346.582 73.1562 345.504 73.9922C344.426 74.8203 342.984 75.2344 341.18 75.2344C340.008 75.2344 338.914 75.0117 337.898 74.5664C336.883 74.1133 336.098 73.4961 335.543 72.7148C334.996 71.9336 334.723 71.0469 334.723 70.0547H336.984C336.984 71.0859 337.363 71.9023 338.121 72.5039C338.887 73.0977 339.906 73.3945 341.18 73.3945C342.367 73.3945 343.277 73.1523 343.91 72.668C344.543 72.1836 344.859 71.5234 344.859 70.6875C344.859 69.8516 344.566 69.207 343.98 68.7539C343.395 68.293 342.332 67.8398 340.793 67.3945ZM354.762 73.4648C355.535 73.4648 356.211 73.2305 356.789 72.7617C357.367 72.293 357.688 71.707 357.75 71.0039H359.801C359.762 71.7305 359.512 72.4219 359.051 73.0781C358.59 73.7344 357.973 74.2578 357.199 74.6484C356.434 75.0391 355.621 75.2344 354.762 75.2344C353.035 75.2344 351.66 74.6602 350.637 73.5117C349.621 72.3555 349.113 70.7773 349.113 68.7773V68.4141C349.113 67.1797 349.34 66.082 349.793 65.1211C350.246 64.1602 350.895 63.4141 351.738 62.8828C352.59 62.3516 353.594 62.0859 354.75 62.0859C356.172 62.0859 357.352 62.5117 358.289 63.3633C359.234 64.2148 359.738 65.3203 359.801 66.6797H357.75C357.688 65.8594 357.375 65.1875 356.812 64.6641C356.258 64.1328 355.57 63.8672 354.75 63.8672C353.648 63.8672 352.793 64.2656 352.184 65.0625C351.582 65.8516 351.281 66.9961 351.281 68.4961V68.9062C351.281 70.3672 351.582 71.4922 352.184 72.2812C352.785 73.0703 353.645 73.4648 354.762 73.4648ZM370.066 75C369.941 74.75 369.84 74.3047 369.762 73.6641C368.754 74.7109 367.551 75.2344 366.152 75.2344C364.902 75.2344 363.875 74.8828 363.07 74.1797C362.273 73.4688 361.875 72.5703 361.875 71.4844C361.875 70.1641 362.375 69.1406 363.375 68.4141C364.383 67.6797 365.797 67.3125 367.617 67.3125H369.727V66.3164C369.727 65.5586 369.5 64.957 369.047 64.5117C368.594 64.0586 367.926 63.832 367.043 63.832C366.27 63.832 365.621 64.0273 365.098 64.418C364.574 64.8086 364.312 65.2812 364.312 65.8359H362.133C362.133 65.2031 362.355 64.5938 362.801 64.0078C363.254 63.4141 363.863 62.9453 364.629 62.6016C365.402 62.2578 366.25 62.0859 367.172 62.0859C368.633 62.0859 369.777 62.4531 370.605 63.1875C371.434 63.9141 371.863 64.918 371.895 66.1992V72.0352C371.895 73.1992 372.043 74.125 372.34 74.8125V75H370.066ZM366.469 73.3477C367.148 73.3477 367.793 73.1719 368.402 72.8203C369.012 72.4688 369.453 72.0117 369.727 71.4492V68.8477H368.027C365.371 68.8477 364.043 69.625 364.043 71.1797C364.043 71.8594 364.27 72.3906 364.723 72.7734C365.176 73.1562 365.758 73.3477 366.469 73.3477ZM377.344 62.3203L377.414 63.9141C378.383 62.6953 379.648 62.0859 381.211 62.0859C383.891 62.0859 385.242 63.5977 385.266 66.6211V75H383.098V66.6094C383.09 65.6953 382.879 65.0195 382.465 64.582C382.059 64.1445 381.422 63.9258 380.555 63.9258C379.852 63.9258 379.234 64.1133 378.703 64.4883C378.172 64.8633 377.758 65.3555 377.461 65.9648V75H375.293V62.3203H377.344Z" fill="#20263B"/>
<path d="M215 35H448V31H215V35ZM452 39V95H456V39H452ZM448 99H215V103H448V99ZM211 95V39H207V95H211ZM215 99C212.791 99 211 97.2091 211 95H207C207 99.4183 210.582 103 215 103V99ZM452 95C452 97.2091 450.209 99 448 99V103C452.418 103 456 99.4183 456 95H452ZM448 35C450.209 35 452 36.7909 452 39H456C456 34.5817 452.418 31 448 31V35ZM215 31C210.582 31 207 34.5817 207 39H211C211 36.7909 212.791 35 215 35V31Z" fill="#DEDEF8"/>
<path d="M168 62L208 62" stroke="#20263B" stroke-width="2" stroke-linecap="round" stroke-linejoin="round"/>
<path d="M200 54L208 62L200 70" stroke="#20263B" stroke-width="2" stroke-linecap="round" stroke-linejoin="round"/>
<path d="M454 64L588 64" stroke="#20263B" stroke-width="2" stroke-linecap="round" stroke-linejoin="round" stroke-dasharray="4 4"/>
<path d="M592 38C592 34.6863 594.686 32 598 32H844C847.314 32 850 34.6863 850 38V94C850 97.3137 847.314 100 844 100H598C594.686 100 592 97.3137 592 94V38Z" fill="#DEDEF8"/>
<path d="M662.09 59.3945C660.16 58.8398 658.754 58.1602 657.871 57.3555C656.996 56.543 656.559 55.543 656.559 54.3555C656.559 53.0117 657.094 51.9023 658.164 51.0273C659.242 50.1445 660.641 49.7031 662.359 49.7031C663.531 49.7031 664.574 49.9297 665.488 50.3828C666.41 50.8359 667.121 51.4609 667.621 52.2578C668.129 53.0547 668.383 53.9258 668.383 54.8711H666.121C666.121 53.8398 665.793 53.0312 665.137 52.4453C664.48 51.8516 663.555 51.5547 662.359 51.5547C661.25 51.5547 660.383 51.8008 659.758 52.293C659.141 52.7773 658.832 53.4531 658.832 54.3203C658.832 55.0156 659.125 55.6055 659.711 56.0898C660.305 56.5664 661.309 57.0039 662.723 57.4023C664.145 57.8008 665.254 58.2422 666.051 58.7266C666.855 59.2031 667.449 59.7617 667.832 60.4023C668.223 61.043 668.418 61.7969 668.418 62.6641C668.418 64.0469 667.879 65.1562 666.801 65.9922C665.723 66.8203 664.281 67.2344 662.477 67.2344C661.305 67.2344 660.211 67.0117 659.195 66.5664C658.18 66.1133 657.395 65.4961 656.84 64.7148C656.293 63.9336 656.02 63.0469 656.02 62.0547H658.281C658.281 63.0859 658.66 63.9023 659.418 64.5039C660.184 65.0977 661.203 65.3945 662.477 65.3945C663.664 65.3945 664.574 65.1523 665.207 64.668C665.84 64.1836 666.156 63.5234 666.156 62.6875C666.156 61.8516 665.863 61.207 665.277 60.7539C664.691 60.293 663.629 59.8398 662.09 59.3945ZM676.059 65.4648C676.832 65.4648 677.508 65.2305 678.086 64.7617C678.664 64.293 678.984 63.707 679.047 63.0039H681.098C681.059 63.7305 680.809 64.4219 680.348 65.0781C679.887 65.7344 679.27 66.2578 678.496 66.6484C677.73 67.0391 676.918 67.2344 676.059 67.2344C674.332 67.2344 672.957 66.6602 671.934 65.5117C670.918 64.3555 670.41 62.7773 670.41 60.7773V60.4141C670.41 59.1797 670.637 58.082 671.09 57.1211C671.543 56.1602 672.191 55.4141 673.035 54.8828C673.887 54.3516 674.891 54.0859 676.047 54.0859C677.469 54.0859 678.648 54.5117 679.586 55.3633C680.531 56.2148 681.035 57.3203 681.098 58.6797H679.047C678.984 57.8594 678.672 57.1875 678.109 56.6641C677.555 56.1328 676.867 55.8672 676.047 55.8672C674.945 55.8672 674.09 56.2656 673.48 57.0625C672.879 57.8516 672.578 58.9961 672.578 60.4961V60.9062C672.578 62.3672 672.879 63.4922 673.48 64.2812C674.082 65.0703 674.941 65.4648 676.059 65.4648ZM691.363 67C691.238 66.75 691.137 66.3047 691.059 65.6641C690.051 66.7109 688.848 67.2344 687.449 67.2344C686.199 67.2344 685.172 66.8828 684.367 66.1797C683.57 65.4688 683.172 64.5703 683.172 63.4844C683.172 62.1641 683.672 61.1406 684.672 60.4141C685.68 59.6797 687.094 59.3125 688.914 59.3125H691.023V58.3164C691.023 57.5586 690.797 56.957 690.344 56.5117C689.891 56.0586 689.223 55.832 688.34 55.832C687.566 55.832 686.918 56.0273 686.395 56.418C685.871 56.8086 685.609 57.2812 685.609 57.8359H683.43C683.43 57.2031 683.652 56.5938 684.098 56.0078C684.551 55.4141 685.16 54.9453 685.926 54.6016C686.699 54.2578 687.547 54.0859 688.469 54.0859C689.93 54.0859 691.074 54.4531 691.902 55.1875C692.73 55.9141 693.16 56.918 693.191 58.1992V64.0352C693.191 65.1992 693.34 66.125 693.637 66.8125V67H691.363ZM687.766 65.3477C688.445 65.3477 689.09 65.1719 689.699 64.8203C690.309 64.4688 690.75 64.0117 691.023 63.4492V60.8477H689.324C686.668 60.8477 685.34 61.625 685.34 63.1797C685.34 63.8594 685.566 64.3906 686.02 64.7734C686.473 65.1562 687.055 65.3477 687.766 65.3477ZM698.641 54.3203L698.711 55.9141C699.68 54.6953 700.945 54.0859 702.508 54.0859C705.188 54.0859 706.539 55.5977 706.562 58.6211V67H704.395V58.6094C704.387 57.6953 704.176 57.0195 703.762 56.582C703.355 56.1445 702.719 55.9258 701.852 55.9258C701.148 55.9258 700.531 56.1133 700 56.4883C699.469 56.8633 699.055 57.3555 698.758 57.9648V67H696.59V54.3203H698.641ZM722.383 60.0977H718.375V67H716.113V49.9375H721.762C723.684 49.9375 725.16 50.375 726.191 51.25C727.23 52.125 727.75 53.3984 727.75 55.0703C727.75 56.1328 727.461 57.0586 726.883 57.8477C726.312 58.6367 725.516 59.2266 724.492 59.6172L728.5 66.8594V67H726.086L722.383 60.0977ZM718.375 58.2578H721.832C722.949 58.2578 723.836 57.9688 724.492 57.3906C725.156 56.8125 725.488 56.0391 725.488 55.0703C725.488 54.0156 725.172 53.207 724.539 52.6445C723.914 52.082 723.008 51.7969 721.82 51.7891H718.375V58.2578ZM735.836 67.2344C734.117 67.2344 732.719 66.6719 731.641 65.5469C730.562 64.4141 730.023 62.9023 730.023 61.0117V60.6133C730.023 59.3555 730.262 58.2344 730.738 57.25C731.223 56.2578 731.895 55.4844 732.754 54.9297C733.621 54.3672 734.559 54.0859 735.566 54.0859C737.215 54.0859 738.496 54.6289 739.41 55.7148C740.324 56.8008 740.781 58.3555 740.781 60.3789V61.2812H732.191C732.223 62.5312 732.586 63.543 733.281 64.3164C733.984 65.082 734.875 65.4648 735.953 65.4648C736.719 65.4648 737.367 65.3086 737.898 64.9961C738.43 64.6836 738.895 64.2695 739.293 63.7539L740.617 64.7852C739.555 66.418 737.961 67.2344 735.836 67.2344ZM735.566 55.8672C734.691 55.8672 733.957 56.1875 733.363 56.8281C732.77 57.4609 732.402 58.3516 732.262 59.5H738.613V59.3359C738.551 58.2344 738.254 57.3828 737.723 56.7812C737.191 56.1719 736.473 55.8672 735.566 55.8672ZM750.684 63.6367C750.684 63.0508 750.461 62.5977 750.016 62.2773C749.578 61.9492 748.809 61.668 747.707 61.4336C746.613 61.1992 745.742 60.918 745.094 60.5898C744.453 60.2617 743.977 59.8711 743.664 59.418C743.359 58.9648 743.207 58.4258 743.207 57.8008C743.207 56.7617 743.645 55.8828 744.52 55.1641C745.402 54.4453 746.527 54.0859 747.895 54.0859C749.332 54.0859 750.496 54.457 751.387 55.1992C752.285 55.9414 752.734 56.8906 752.734 58.0469H750.555C750.555 57.4531 750.301 56.9414 749.793 56.5117C749.293 56.082 748.66 55.8672 747.895 55.8672C747.105 55.8672 746.488 56.0391 746.043 56.3828C745.598 56.7266 745.375 57.1758 745.375 57.7305C745.375 58.2539 745.582 58.6484 745.996 58.9141C746.41 59.1797 747.156 59.4336 748.234 59.6758C749.32 59.918 750.199 60.207 750.871 60.543C751.543 60.8789 752.039 61.2852 752.359 61.7617C752.688 62.2305 752.852 62.8047 752.852 63.4844C752.852 64.6172 752.398 65.5273 751.492 66.2148C750.586 66.8945 749.41 67.2344 747.965 67.2344C746.949 67.2344 746.051 67.0547 745.27 66.6953C744.488 66.3359 743.875 65.8359 743.43 65.1953C742.992 64.5469 742.773 63.8477 742.773 63.0977H744.941C744.98 63.8242 745.27 64.4023 745.809 64.832C746.355 65.2539 747.074 65.4648 747.965 65.4648C748.785 65.4648 749.441 65.3008 749.934 64.9727C750.434 64.6367 750.684 64.1914 750.684 63.6367ZM763.504 65.7461C762.66 66.7383 761.422 67.2344 759.789 67.2344C758.438 67.2344 757.406 66.8438 756.695 66.0625C755.992 65.2734 755.637 64.1094 755.629 62.5703V54.3203H757.797V62.5117C757.797 64.4336 758.578 65.3945 760.141 65.3945C761.797 65.3945 762.898 64.7773 763.445 63.543V54.3203H765.613V67H763.551L763.504 65.7461ZM771.273 67H769.105V49H771.273V67ZM777.695 51.25V54.3203H780.062V55.9961H777.695V63.8594C777.695 64.3672 777.801 64.75 778.012 65.0078C778.223 65.2578 778.582 65.3828 779.09 65.3828C779.34 65.3828 779.684 65.3359 780.121 65.2422V67C779.551 67.1562 778.996 67.2344 778.457 67.2344C777.488 67.2344 776.758 66.9414 776.266 66.3555C775.773 65.7695 775.527 64.9375 775.527 63.8594V55.9961H773.219V54.3203H775.527V51.25H777.695ZM681.454 81.2568L682.876 75.6035H684.141L681.987 83H680.962L679.164 77.3945L677.414 83H676.389L674.242 75.6035H675.5L676.956 81.1406L678.679 75.6035H679.697L681.454 81.2568ZM686.807 83H685.542V75.6035H686.807V83ZM685.439 73.6416C685.439 73.4365 685.501 73.2633 685.624 73.1221C685.752 72.9808 685.938 72.9102 686.185 72.9102C686.431 72.9102 686.618 72.9808 686.745 73.1221C686.873 73.2633 686.937 73.4365 686.937 73.6416C686.937 73.8467 686.873 74.0176 686.745 74.1543C686.618 74.291 686.431 74.3594 686.185 74.3594C685.938 74.3594 685.752 74.291 685.624 74.1543C685.501 74.0176 685.439 73.8467 685.439 73.6416ZM690.553 73.8125V75.6035H691.934V76.5811H690.553V81.168C690.553 81.4642 690.614 81.6875 690.737 81.8379C690.86 81.9837 691.07 82.0566 691.366 82.0566C691.512 82.0566 691.713 82.0293 691.968 81.9746V83C691.635 83.0911 691.312 83.1367 690.997 83.1367C690.432 83.1367 690.006 82.9658 689.719 82.624C689.432 82.2822 689.288 81.7969 689.288 81.168V76.5811H687.941V75.6035H689.288V73.8125H690.553ZM694.682 76.499C695.242 75.8109 695.971 75.4668 696.869 75.4668C698.432 75.4668 699.221 76.3486 699.234 78.1123V83H697.97V78.1055C697.965 77.5723 697.842 77.1781 697.601 76.9229C697.364 76.6676 696.992 76.54 696.486 76.54C696.076 76.54 695.716 76.6494 695.406 76.8682C695.096 77.0869 694.855 77.374 694.682 77.7295V83H693.417V72.5H694.682V76.499ZM710.849 79.3838C710.849 80.5094 710.591 81.4163 710.076 82.1045C709.561 82.7926 708.864 83.1367 707.984 83.1367C707.087 83.1367 706.38 82.8519 705.865 82.2822V85.8438H704.601V75.6035H705.756L705.817 76.4238C706.332 75.7858 707.048 75.4668 707.964 75.4668C708.853 75.4668 709.554 75.8018 710.069 76.4717C710.589 77.1416 710.849 78.0736 710.849 79.2676V79.3838ZM709.584 79.2402C709.584 78.4062 709.406 77.7477 709.051 77.2646C708.695 76.7816 708.208 76.54 707.588 76.54C706.822 76.54 706.248 76.8796 705.865 77.5586V81.0928C706.243 81.7673 706.822 82.1045 707.602 82.1045C708.208 82.1045 708.688 81.8652 709.044 81.3867C709.404 80.9036 709.584 80.1882 709.584 79.2402ZM716.037 76.7383C715.846 76.7064 715.638 76.6904 715.415 76.6904C714.586 76.6904 714.023 77.0436 713.727 77.75V83H712.462V75.6035H713.692L713.713 76.458C714.128 75.7972 714.715 75.4668 715.477 75.4668C715.723 75.4668 715.91 75.4987 716.037 75.5625V76.7383ZM716.734 79.2334C716.734 78.5088 716.876 77.8571 717.158 77.2783C717.445 76.6995 717.842 76.2529 718.348 75.9385C718.858 75.624 719.439 75.4668 720.091 75.4668C721.098 75.4668 721.911 75.8154 722.531 76.5127C723.156 77.21 723.468 78.1374 723.468 79.2949V79.3838C723.468 80.1038 723.329 80.751 723.051 81.3252C722.777 81.8949 722.383 82.3392 721.868 82.6582C721.358 82.9772 720.77 83.1367 720.104 83.1367C719.102 83.1367 718.288 82.7881 717.664 82.0908C717.044 81.3936 716.734 80.4707 716.734 79.3223V79.2334ZM718.006 79.3838C718.006 80.2041 718.195 80.8626 718.573 81.3594C718.956 81.8561 719.466 82.1045 720.104 82.1045C720.747 82.1045 721.257 81.8538 721.636 81.3525C722.014 80.8467 722.203 80.1403 722.203 79.2334C722.203 78.4222 722.009 77.766 721.622 77.2646C721.239 76.7588 720.729 76.5059 720.091 76.5059C719.466 76.5059 718.963 76.7542 718.58 77.251C718.197 77.7477 718.006 78.4587 718.006 79.3838ZM726.243 75.6035L726.277 76.4238C726.82 75.7858 727.551 75.4668 728.472 75.4668C729.506 75.4668 730.21 75.8633 730.584 76.6562C730.83 76.3008 731.149 76.0137 731.541 75.7949C731.938 75.5762 732.405 75.4668 732.942 75.4668C734.565 75.4668 735.39 76.3258 735.417 78.0439V83H734.152V78.1191C734.152 77.5905 734.032 77.1963 733.79 76.9365C733.549 76.6722 733.143 76.54 732.573 76.54C732.104 76.54 731.714 76.6813 731.404 76.9639C731.094 77.2419 730.914 77.6178 730.864 78.0918V83H729.593V78.1533C729.593 77.0778 729.066 76.54 728.014 76.54C727.184 76.54 726.617 76.8932 726.312 77.5996V83H725.047V75.6035H726.243ZM736.996 79.2334C736.996 78.5088 737.137 77.8571 737.42 77.2783C737.707 76.6995 738.104 76.2529 738.609 75.9385C739.12 75.624 739.701 75.4668 740.353 75.4668C741.36 75.4668 742.173 75.8154 742.793 76.5127C743.417 77.21 743.729 78.1374 743.729 79.2949V79.3838C743.729 80.1038 743.59 80.751 743.312 81.3252C743.039 81.8949 742.645 82.3392 742.13 82.6582C741.619 82.9772 741.032 83.1367 740.366 83.1367C739.364 83.1367 738.55 82.7881 737.926 82.0908C737.306 81.3936 736.996 80.4707 736.996 79.3223V79.2334ZM738.268 79.3838C738.268 80.2041 738.457 80.8626 738.835 81.3594C739.218 81.8561 739.728 82.1045 740.366 82.1045C741.009 82.1045 741.519 81.8538 741.897 81.3525C742.276 80.8467 742.465 80.1403 742.465 79.2334C742.465 78.4222 742.271 77.766 741.884 77.2646C741.501 76.7588 740.991 76.5059 740.353 76.5059C739.728 76.5059 739.225 76.7542 738.842 77.251C738.459 77.7477 738.268 78.4587 738.268 79.3838ZM747.031 73.8125V75.6035H748.412V76.5811H747.031V81.168C747.031 81.4642 747.093 81.6875 747.216 81.8379C747.339 81.9837 747.549 82.0566 747.845 82.0566C747.991 82.0566 748.191 82.0293 748.446 81.9746V83C748.114 83.0911 747.79 83.1367 747.476 83.1367C746.91 83.1367 746.484 82.9658 746.197 82.624C745.91 82.2822 745.767 81.7969 745.767 81.168V76.5811H744.42V75.6035H745.767V73.8125H747.031ZM751.27 83H750.005V75.6035H751.27V83ZM749.902 73.6416C749.902 73.4365 749.964 73.2633 750.087 73.1221C750.215 72.9808 750.401 72.9102 750.647 72.9102C750.894 72.9102 751.08 72.9808 751.208 73.1221C751.336 73.2633 751.399 73.4365 751.399 73.6416C751.399 73.8467 751.336 74.0176 751.208 74.1543C751.08 74.291 750.894 74.3594 750.647 74.3594C750.401 74.3594 750.215 74.291 750.087 74.1543C749.964 74.0176 749.902 73.8467 749.902 73.6416ZM752.965 79.2334C752.965 78.5088 753.106 77.8571 753.389 77.2783C753.676 76.6995 754.072 76.2529 754.578 75.9385C755.089 75.624 755.67 75.4668 756.321 75.4668C757.328 75.4668 758.142 75.8154 758.762 76.5127C759.386 77.21 759.698 78.1374 759.698 79.2949V79.3838C759.698 80.1038 759.559 80.751 759.281 81.3252C759.008 81.8949 758.614 82.3392 758.099 82.6582C757.588 82.9772 757 83.1367 756.335 83.1367C755.332 83.1367 754.519 82.7881 753.895 82.0908C753.275 81.3936 752.965 80.4707 752.965 79.3223V79.2334ZM754.236 79.3838C754.236 80.2041 754.425 80.8626 754.804 81.3594C755.187 81.8561 755.697 82.1045 756.335 82.1045C756.978 82.1045 757.488 81.8538 757.866 81.3525C758.244 80.8467 758.434 80.1403 758.434 79.2334C758.434 78.4222 758.24 77.766 757.853 77.2646C757.47 76.7588 756.959 76.5059 756.321 76.5059C755.697 76.5059 755.193 76.7542 754.811 77.251C754.428 77.7477 754.236 78.4587 754.236 79.3838ZM762.48 75.6035L762.521 76.5332C763.087 75.8223 763.825 75.4668 764.736 75.4668C766.299 75.4668 767.088 76.3486 767.102 78.1123V83H765.837V78.1055C765.832 77.5723 765.709 77.1781 765.468 76.9229C765.231 76.6676 764.859 76.54 764.354 76.54C763.943 76.54 763.583 76.6494 763.273 76.8682C762.964 77.0869 762.722 77.374 762.549 77.7295V83H761.284V75.6035H762.48Z" fill="#20263B"/>
<path d="M598 34H844V30H598V34ZM848 38V94H852V38H848ZM844 98H598V102H844V98ZM594 94V38H590V94H594ZM598 98C595.791 98 594 96.2091 594 94H590C590 98.4183 593.582 102 598 102V98ZM848 94C848 96.2091 846.209 98 844 98V102C848.418 102 852 98.4183 852 94H848ZM844 34C846.209 34 848 35.7909 848 38H852C852 33.5817 848.418 30 844 30V34ZM598 30C593.582 30 590 33.5817 590 38H594C594 35.7909 595.791 34 598 34V30Z" fill="#DEDEF8"/>
<path d="M584 56L592 64L584 72" stroke="#20263B" stroke-width="2" stroke-linecap="round" stroke-linejoin="round"/>
<path d="M850 67C860.235 66.9999 877 85.5 877 100" stroke="#E5E5E5" stroke-width="10"/>
<path d="M938 35C938 31.6863 940.686 29 944 29H1150C1153.31 29 1156 31.6863 1156 35V91C1156 94.3137 1153.31 97 1150 97H944C940.686 97 938 94.3137 938 91V35Z" fill="#5755D9"/>
<path d="M1012.24 50.3203V57H1009.99V39.9375H1016.29C1018.15 39.9375 1019.61 40.4141 1020.67 41.3672C1021.73 42.3203 1022.26 43.582 1022.26 45.1523C1022.26 46.8086 1021.74 48.0859 1020.7 48.9844C1019.67 49.875 1018.19 50.3203 1016.26 50.3203H1012.24ZM1012.24 48.4805H1016.29C1017.49 48.4805 1018.41 48.1992 1019.05 47.6367C1019.69 47.0664 1020.01 46.2461 1020.01 45.1758C1020.01 44.1602 1019.69 43.3477 1019.05 42.7383C1018.41 42.1289 1017.53 41.8125 1016.41 41.7891H1012.24V48.4805ZM1030.92 46.2656C1030.59 46.2109 1030.24 46.1836 1029.86 46.1836C1028.43 46.1836 1027.47 46.7891 1026.96 48V57H1024.79V44.3203H1026.9L1026.94 45.7852C1027.65 44.6523 1028.66 44.0859 1029.96 44.0859C1030.38 44.0859 1030.7 44.1406 1030.92 44.25V46.2656ZM1032.12 50.543C1032.12 49.3008 1032.36 48.1836 1032.84 47.1914C1033.34 46.1992 1034.02 45.4336 1034.88 44.8945C1035.76 44.3555 1036.75 44.0859 1037.87 44.0859C1039.6 44.0859 1040.99 44.6836 1042.05 45.8789C1043.12 47.0742 1043.66 48.6641 1043.66 50.6484V50.8008C1043.66 52.0352 1043.42 53.1445 1042.95 54.1289C1042.48 55.1055 1041.8 55.8672 1040.92 56.4141C1040.04 56.9609 1039.04 57.2344 1037.89 57.2344C1036.18 57.2344 1034.78 56.6367 1033.71 55.4414C1032.65 54.2461 1032.12 52.6641 1032.12 50.6953V50.543ZM1034.3 50.8008C1034.3 52.207 1034.62 53.3359 1035.27 54.1875C1035.93 55.0391 1036.8 55.4648 1037.89 55.4648C1039 55.4648 1039.87 55.0352 1040.52 54.1758C1041.17 53.3086 1041.49 52.0977 1041.49 50.543C1041.49 49.1523 1041.16 48.0273 1040.5 47.168C1039.84 46.3008 1038.96 45.8672 1037.87 45.8672C1036.8 45.8672 1035.94 46.293 1035.28 47.1445C1034.62 47.9961 1034.3 49.2148 1034.3 50.8008ZM1045.85 50.5547C1045.85 48.6094 1046.31 47.0469 1047.23 45.8672C1048.16 44.6797 1049.36 44.0859 1050.86 44.0859C1052.34 44.0859 1053.52 44.5938 1054.38 45.6094V39H1056.55V57H1054.56L1054.45 55.6406C1053.59 56.7031 1052.38 57.2344 1050.83 57.2344C1049.36 57.2344 1048.16 56.6328 1047.23 55.4297C1046.31 54.2266 1045.85 52.6562 1045.85 50.7188V50.5547ZM1048.02 50.8008C1048.02 52.2383 1048.32 53.3633 1048.91 54.1758C1049.5 54.9883 1050.32 55.3945 1051.37 55.3945C1052.75 55.3945 1053.75 54.7773 1054.38 53.543V47.7188C1053.73 46.5234 1052.74 45.9258 1051.39 45.9258C1050.33 45.9258 1049.5 46.3359 1048.91 47.1562C1048.32 47.9766 1048.02 49.1914 1048.02 50.8008ZM1067.75 55.7461C1066.91 56.7383 1065.67 57.2344 1064.04 57.2344C1062.69 57.2344 1061.66 56.8438 1060.95 56.0625C1060.24 55.2734 1059.89 54.1094 1059.88 52.5703V44.3203H1062.05V52.5117C1062.05 54.4336 1062.83 55.3945 1064.39 55.3945C1066.05 55.3945 1067.15 54.7773 1067.7 53.543V44.3203H1069.86V57H1067.8L1067.75 55.7461ZM1078.25 55.4648C1079.03 55.4648 1079.7 55.2305 1080.28 54.7617C1080.86 54.293 1081.18 53.707 1081.24 53.0039H1083.29C1083.25 53.7305 1083 54.4219 1082.54 55.0781C1082.08 55.7344 1081.46 56.2578 1080.69 56.6484C1079.93 57.0391 1079.11 57.2344 1078.25 57.2344C1076.53 57.2344 1075.15 56.6602 1074.13 55.5117C1073.11 54.3555 1072.61 52.7773 1072.61 50.7773V50.4141C1072.61 49.1797 1072.83 48.082 1073.29 47.1211C1073.74 46.1602 1074.39 45.4141 1075.23 44.8828C1076.08 44.3516 1077.09 44.0859 1078.24 44.0859C1079.66 44.0859 1080.84 44.5117 1081.78 45.3633C1082.73 46.2148 1083.23 47.3203 1083.29 48.6797H1081.24C1081.18 47.8594 1080.87 47.1875 1080.3 46.6641C1079.75 46.1328 1079.06 45.8672 1078.24 45.8672C1077.14 45.8672 1076.29 46.2656 1075.68 47.0625C1075.07 47.8516 1074.77 48.9961 1074.77 50.4961V50.9062C1074.77 52.3672 1075.07 53.4922 1075.68 54.2812C1076.28 55.0703 1077.14 55.4648 1078.25 55.4648ZM1088.67 41.25V44.3203H1091.04V45.9961H1088.67V53.8594C1088.67 54.3672 1088.78 54.75 1088.99 55.0078C1089.2 55.2578 1089.56 55.3828 1090.07 55.3828C1090.32 55.3828 1090.66 55.3359 1091.1 55.2422V57C1090.53 57.1562 1089.97 57.2344 1089.43 57.2344C1088.46 57.2344 1087.73 56.9414 1087.24 56.3555C1086.75 55.7695 1086.5 54.9375 1086.5 53.8594V45.9961H1084.2V44.3203H1086.5V41.25H1088.67ZM1005.84 85H1003.68V72.3203H1005.84V85ZM1003.5 68.957C1003.5 68.6055 1003.61 68.3086 1003.82 68.0664C1004.04 67.8242 1004.36 67.7031 1004.78 67.7031C1005.2 67.7031 1005.52 67.8242 1005.74 68.0664C1005.96 68.3086 1006.07 68.6055 1006.07 68.957C1006.07 69.3086 1005.96 69.6016 1005.74 69.8359C1005.52 70.0703 1005.2 70.1875 1004.78 70.1875C1004.36 70.1875 1004.04 70.0703 1003.82 69.8359C1003.61 69.6016 1003.5 69.3086 1003.5 68.957ZM1011.38 72.3203L1011.45 73.9141C1012.41 72.6953 1013.68 72.0859 1015.24 72.0859C1017.92 72.0859 1019.27 73.5977 1019.3 76.6211V85H1017.13V76.6094C1017.12 75.6953 1016.91 75.0195 1016.5 74.582C1016.09 74.1445 1015.45 73.9258 1014.59 73.9258C1013.88 73.9258 1013.27 74.1133 1012.73 74.4883C1012.2 74.8633 1011.79 75.3555 1011.49 75.9648V85H1009.32V72.3203H1011.38ZM1029.95 81.6367C1029.95 81.0508 1029.73 80.5977 1029.28 80.2773C1028.84 79.9492 1028.07 79.668 1026.97 79.4336C1025.88 79.1992 1025.01 78.918 1024.36 78.5898C1023.72 78.2617 1023.24 77.8711 1022.93 77.418C1022.62 76.9648 1022.47 76.4258 1022.47 75.8008C1022.47 74.7617 1022.91 73.8828 1023.79 73.1641C1024.67 72.4453 1025.79 72.0859 1027.16 72.0859C1028.6 72.0859 1029.76 72.457 1030.65 73.1992C1031.55 73.9414 1032 74.8906 1032 76.0469H1029.82C1029.82 75.4531 1029.57 74.9414 1029.06 74.5117C1028.56 74.082 1027.93 73.8672 1027.16 73.8672C1026.37 73.8672 1025.75 74.0391 1025.31 74.3828C1024.86 74.7266 1024.64 75.1758 1024.64 75.7305C1024.64 76.2539 1024.85 76.6484 1025.26 76.9141C1025.68 77.1797 1026.42 77.4336 1027.5 77.6758C1028.59 77.918 1029.46 78.207 1030.14 78.543C1030.81 78.8789 1031.3 79.2852 1031.62 79.7617C1031.95 80.2305 1032.12 80.8047 1032.12 81.4844C1032.12 82.6172 1031.66 83.5273 1030.76 84.2148C1029.85 84.8945 1028.68 85.2344 1027.23 85.2344C1026.21 85.2344 1025.32 85.0547 1024.54 84.6953C1023.75 84.3359 1023.14 83.8359 1022.7 83.1953C1022.26 82.5469 1022.04 81.8477 1022.04 81.0977H1024.21C1024.25 81.8242 1024.54 82.4023 1025.07 82.832C1025.62 83.2539 1026.34 83.4648 1027.23 83.4648C1028.05 83.4648 1028.71 83.3008 1029.2 82.9727C1029.7 82.6367 1029.95 82.1914 1029.95 81.6367ZM1037.88 69.25V72.3203H1040.25V73.9961H1037.88V81.8594C1037.88 82.3672 1037.99 82.75 1038.2 83.0078C1038.41 83.2578 1038.77 83.3828 1039.28 83.3828C1039.53 83.3828 1039.87 83.3359 1040.31 83.2422V85C1039.74 85.1562 1039.18 85.2344 1038.64 85.2344C1037.68 85.2344 1036.95 84.9414 1036.45 84.3555C1035.96 83.7695 1035.71 82.9375 1035.71 81.8594V73.9961H1033.41V72.3203H1035.71V69.25H1037.88ZM1050.62 85C1050.5 84.75 1050.39 84.3047 1050.32 83.6641C1049.31 84.7109 1048.11 85.2344 1046.71 85.2344C1045.46 85.2344 1044.43 84.8828 1043.62 84.1797C1042.83 83.4688 1042.43 82.5703 1042.43 81.4844C1042.43 80.1641 1042.93 79.1406 1043.93 78.4141C1044.94 77.6797 1046.35 77.3125 1048.17 77.3125H1050.28V76.3164C1050.28 75.5586 1050.05 74.957 1049.6 74.5117C1049.15 74.0586 1048.48 73.832 1047.6 73.832C1046.82 73.832 1046.18 74.0273 1045.65 74.418C1045.13 74.8086 1044.87 75.2812 1044.87 75.8359H1042.69C1042.69 75.2031 1042.91 74.5938 1043.36 74.0078C1043.81 73.4141 1044.42 72.9453 1045.18 72.6016C1045.96 72.2578 1046.8 72.0859 1047.73 72.0859C1049.19 72.0859 1050.33 72.4531 1051.16 73.1875C1051.99 73.9141 1052.42 74.918 1052.45 76.1992V82.0352C1052.45 83.1992 1052.6 84.125 1052.89 84.8125V85H1050.62ZM1047.02 83.3477C1047.7 83.3477 1048.35 83.1719 1048.96 82.8203C1049.57 82.4688 1050.01 82.0117 1050.28 81.4492V78.8477H1048.58C1045.93 78.8477 1044.6 79.625 1044.6 81.1797C1044.6 81.8594 1044.82 82.3906 1045.28 82.7734C1045.73 83.1562 1046.31 83.3477 1047.02 83.3477ZM1058.2 85H1056.04V67H1058.2V85ZM1064.04 85H1061.87V67H1064.04V85ZM1072.78 85.2344C1071.06 85.2344 1069.66 84.6719 1068.59 83.5469C1067.51 82.4141 1066.97 80.9023 1066.97 79.0117V78.6133C1066.97 77.3555 1067.21 76.2344 1067.68 75.25C1068.17 74.2578 1068.84 73.4844 1069.7 72.9297C1070.57 72.3672 1071.5 72.0859 1072.51 72.0859C1074.16 72.0859 1075.44 72.6289 1076.36 73.7148C1077.27 74.8008 1077.73 76.3555 1077.73 78.3789V79.2812H1069.14C1069.17 80.5312 1069.53 81.543 1070.23 82.3164C1070.93 83.082 1071.82 83.4648 1072.9 83.4648C1073.66 83.4648 1074.31 83.3086 1074.84 82.9961C1075.38 82.6836 1075.84 82.2695 1076.24 81.7539L1077.56 82.7852C1076.5 84.418 1074.91 85.2344 1072.78 85.2344ZM1072.51 73.8672C1071.64 73.8672 1070.9 74.1875 1070.31 74.8281C1069.71 75.4609 1069.35 76.3516 1069.21 77.5H1075.56V77.3359C1075.5 76.2344 1075.2 75.3828 1074.67 74.7812C1074.14 74.1719 1073.42 73.8672 1072.51 73.8672ZM1079.72 78.5547C1079.72 76.6094 1080.18 75.0469 1081.1 73.8672C1082.02 72.6797 1083.23 72.0859 1084.72 72.0859C1086.21 72.0859 1087.38 72.5938 1088.25 73.6094V67H1090.42V85H1088.43L1088.32 83.6406C1087.45 84.7031 1086.25 85.2344 1084.7 85.2344C1083.23 85.2344 1082.03 84.6328 1081.1 83.4297C1080.18 82.2266 1079.72 80.6562 1079.72 78.7188V78.5547ZM1081.89 78.8008C1081.89 80.2383 1082.18 81.3633 1082.78 82.1758C1083.37 82.9883 1084.19 83.3945 1085.24 83.3945C1086.61 83.3945 1087.62 82.7773 1088.25 81.543V75.7188C1087.6 74.5234 1086.61 73.9258 1085.26 73.9258C1084.2 73.9258 1083.37 74.3359 1082.78 75.1562C1082.18 75.9766 1081.89 77.1914 1081.89 78.8008Z" fill="white"/>
<path d="M944 31H1150V27H944V31ZM1154 35V91H1158V35H1154ZM1150 95H944V99H1150V95ZM940 91V35H936V91H940ZM944 95C941.791 95 940 93.2091 940 91H936C936 95.4183 939.582 99 944 99V95ZM1154 91C1154 93.2091 1152.21 95 1150 95V99C1154.42 99 1158 95.4183 1158 91H1154ZM1150 31C1152.21 31 1154 32.7909 1154 35H1158C1158 30.5817 1154.42 27 1150 27V31ZM944 27C939.582 27 936 30.5817 936 35H940C940 32.7909 941.791 31 944 31V27Z" fill="#DEDEF8"/>
<path d="M850 64L938 64" stroke="#20263B" stroke-width="2" stroke-linecap="round" stroke-linejoin="round"/>
<path d="M930 56L938 64L930 72" stroke="#20263B" stroke-width="2" stroke-linecap="round" stroke-linejoin="round"/>
<path d="M869.243 45.8545L868.792 48.1787H870.727V49.0605H868.628L868.054 52H867.117L867.691 49.0605H865.62L865.06 52H864.13L864.677 49.0605H862.886V48.1787H864.848L865.312 45.8545H863.419V44.9863H865.463L866.023 42.0059H866.974L866.413 44.9863H868.498L869.072 42.0059H869.988L869.414 44.9863H871.219V45.8545H869.243ZM865.784 48.1787H867.855L868.307 45.8545H866.235L865.784 48.1787ZM880.878 42.9014C879.78 42.9014 878.911 43.2682 878.273 44.002C877.64 44.7311 877.323 45.7314 877.323 47.0029C877.323 48.3109 877.629 49.3226 878.239 50.0381C878.854 50.749 879.729 51.1045 880.864 51.1045C881.562 51.1045 882.357 50.9792 883.25 50.7285V51.7471C882.557 52.0068 881.703 52.1367 880.687 52.1367C879.215 52.1367 878.077 51.6901 877.275 50.7969C876.478 49.9036 876.079 48.6344 876.079 46.9893C876.079 45.9593 876.271 45.057 876.653 44.2822C877.041 43.5075 877.597 42.9105 878.321 42.4912C879.05 42.0719 879.907 41.8623 880.892 41.8623C881.94 41.8623 882.856 42.0537 883.64 42.4365L883.147 43.4346C882.391 43.0791 881.634 42.9014 880.878 42.9014ZM888.507 52H887.345V43.0381H884.18V42.0059H891.672V43.0381H888.507V52ZM894.345 47.8438V52H893.183V42.0059H895.924C897.15 42.0059 898.054 42.2406 898.638 42.71C899.226 43.1794 899.52 43.8857 899.52 44.8291C899.52 46.1507 898.85 47.0439 897.51 47.5088L900.224 52H898.85L896.43 47.8438H894.345ZM894.345 46.8457H895.938C896.758 46.8457 897.359 46.6839 897.742 46.3604C898.125 46.0322 898.316 45.5423 898.316 44.8906C898.316 44.2298 898.12 43.7536 897.729 43.4619C897.341 43.1702 896.717 43.0244 895.855 43.0244H894.345V46.8457Z" fill="#20263B"/>
<path d="M705.979 11.2715C705.979 15.1816 704.465 17.1367 701.439 17.1367C700.911 17.1367 700.492 17.0911 700.182 17V16.0225C700.546 16.141 700.961 16.2002 701.426 16.2002C702.52 16.2002 703.344 15.863 703.9 15.1885C704.461 14.5094 704.766 13.4704 704.816 12.0713H704.734C704.484 12.4495 704.151 12.7389 703.736 12.9395C703.322 13.1354 702.854 13.2334 702.335 13.2334C701.451 13.2334 700.749 12.9691 700.229 12.4404C699.71 11.9118 699.45 11.1735 699.45 10.2256C699.45 9.18652 699.74 8.36621 700.318 7.76465C700.902 7.16309 701.667 6.8623 702.615 6.8623C703.294 6.8623 703.887 7.03776 704.393 7.38867C704.903 7.73503 705.295 8.24316 705.568 8.91309C705.842 9.57845 705.979 10.3646 705.979 11.2715ZM702.615 7.83301C701.964 7.83301 701.46 8.04264 701.104 8.46191C700.749 8.88118 700.571 9.46452 700.571 10.2119C700.571 10.8682 700.735 11.3854 701.063 11.7637C701.392 12.1374 701.891 12.3242 702.561 12.3242C702.975 12.3242 703.356 12.2399 703.702 12.0713C704.053 11.9027 704.329 11.6725 704.529 11.3809C704.73 11.0892 704.83 10.7839 704.83 10.4648C704.83 9.98633 704.737 9.54427 704.55 9.13867C704.363 8.73307 704.101 8.41406 703.764 8.18164C703.431 7.94922 703.048 7.83301 702.615 7.83301ZM711.625 17H710.518V9.87695C710.518 9.28451 710.536 8.72396 710.572 8.19531C710.477 8.29102 710.369 8.39128 710.251 8.49609C710.132 8.60091 709.59 9.04525 708.624 9.8291L708.022 9.0498L710.668 7.00586H711.625V17ZM716.403 9.98633C716.403 10.7611 716.488 11.3421 716.656 11.7295C716.825 12.1169 717.098 12.3105 717.477 12.3105C718.224 12.3105 718.598 11.5358 718.598 9.98633C718.598 8.44596 718.224 7.67578 717.477 7.67578C717.098 7.67578 716.825 7.86719 716.656 8.25C716.488 8.63281 716.403 9.21159 716.403 9.98633ZM719.534 9.98633C719.534 11.0254 719.359 11.8115 719.008 12.3447C718.661 12.8734 718.151 13.1377 717.477 13.1377C716.839 13.1377 716.342 12.8665 715.986 12.3242C715.635 11.7819 715.46 11.0026 715.46 9.98633C715.46 8.95182 715.629 8.17253 715.966 7.64844C716.308 7.12435 716.811 6.8623 717.477 6.8623C718.137 6.8623 718.646 7.13346 719.001 7.67578C719.356 8.2181 719.534 8.98828 719.534 9.98633ZM722.419 13.9922C722.419 14.7715 722.503 15.3548 722.672 15.7422C722.84 16.125 723.116 16.3164 723.499 16.3164C723.882 16.3164 724.164 16.1273 724.347 15.749C724.529 15.3662 724.62 14.7806 724.62 13.9922C724.62 13.2129 724.529 12.6364 724.347 12.2627C724.164 11.8844 723.882 11.6953 723.499 11.6953C723.116 11.6953 722.84 11.8844 722.672 12.2627C722.503 12.6364 722.419 13.2129 722.419 13.9922ZM725.557 13.9922C725.557 15.0267 725.381 15.8105 725.03 16.3438C724.684 16.8724 724.174 17.1367 723.499 17.1367C722.852 17.1367 722.353 16.8656 722.002 16.3232C721.656 15.7809 721.482 15.0039 721.482 13.9922C721.482 12.9577 721.651 12.1784 721.988 11.6543C722.33 11.1302 722.834 10.8682 723.499 10.8682C724.146 10.8682 724.65 11.137 725.01 11.6748C725.374 12.208 725.557 12.9805 725.557 13.9922ZM723.793 7.00586L718.249 17H717.244L722.788 7.00586H723.793Z" fill="#20263B"/>
</svg>
