<svg width="845" height="292" viewBox="0 0 845 292" fill="none" xmlns="http://www.w3.org/2000/svg">
<circle cx="699" cy="146" r="146" fill="#5755D9"/>
<circle cx="146" cy="146" r="146" fill="#19ABCB"/>
<g clip-path="url(#clip0)">
<path d="M420.428 126.884V143.428L403.884 143.428V147.601L420.428 147.601V164.145L424.601 164.145L424.601 147.601H441.145V143.428H424.601L424.601 126.884L420.428 126.884Z" fill="white"/>
</g>
<path d="M585.645 106.535C583.23 106.535 581.332 107.391 579.949 109.102C578.566 110.812 577.875 113.174 577.875 116.186C577.875 119.338 578.537 121.723 579.861 123.34C581.197 124.957 583.125 125.766 585.645 125.766C586.734 125.766 587.789 125.66 588.809 125.449C589.828 125.227 590.889 124.945 591.99 124.605V128.209C589.975 128.971 587.689 129.352 585.135 129.352C581.373 129.352 578.484 128.215 576.469 125.941C574.453 123.656 573.445 120.393 573.445 116.15C573.445 113.479 573.932 111.141 574.904 109.137C575.889 107.133 577.307 105.598 579.158 104.531C581.01 103.465 583.184 102.932 585.68 102.932C588.305 102.932 590.73 103.482 592.957 104.584L591.445 108.082C590.578 107.672 589.658 107.314 588.686 107.01C587.725 106.693 586.711 106.535 585.645 106.535ZM606.949 109.207C607.781 109.207 608.467 109.266 609.006 109.383L608.602 113.232C608.016 113.092 607.406 113.021 606.773 113.021C605.121 113.021 603.779 113.561 602.748 114.639C601.729 115.717 601.219 117.117 601.219 118.84V129H597.088V109.559H600.322L600.867 112.986H601.078C601.723 111.826 602.561 110.906 603.592 110.227C604.635 109.547 605.754 109.207 606.949 109.207ZM629.871 119.244C629.871 122.42 629.057 124.898 627.428 126.68C625.799 128.461 623.531 129.352 620.625 129.352C618.809 129.352 617.203 128.941 615.809 128.121C614.414 127.301 613.342 126.123 612.592 124.588C611.842 123.053 611.467 121.271 611.467 119.244C611.467 116.092 612.275 113.631 613.893 111.861C615.51 110.092 617.789 109.207 620.73 109.207C623.543 109.207 625.77 110.115 627.41 111.932C629.051 113.736 629.871 116.174 629.871 119.244ZM615.721 119.244C615.721 123.732 617.379 125.977 620.695 125.977C623.977 125.977 625.617 123.732 625.617 119.244C625.617 114.803 623.965 112.582 620.66 112.582C618.926 112.582 617.666 113.156 616.881 114.305C616.107 115.453 615.721 117.1 615.721 119.244ZM647.695 123.463C647.695 125.361 647.004 126.82 645.621 127.84C644.238 128.848 642.258 129.352 639.68 129.352C637.09 129.352 635.01 128.959 633.439 128.174V124.605C635.725 125.66 637.852 126.188 639.82 126.188C642.363 126.188 643.635 125.42 643.635 123.885C643.635 123.393 643.494 122.982 643.213 122.654C642.932 122.326 642.469 121.986 641.824 121.635C641.18 121.283 640.283 120.885 639.135 120.439C636.896 119.572 635.379 118.705 634.582 117.838C633.797 116.971 633.404 115.846 633.404 114.463C633.404 112.799 634.072 111.51 635.408 110.596C636.756 109.67 638.584 109.207 640.893 109.207C643.178 109.207 645.34 109.67 647.379 110.596L646.043 113.707C643.945 112.84 642.182 112.406 640.752 112.406C638.572 112.406 637.482 113.027 637.482 114.27C637.482 114.879 637.764 115.395 638.326 115.816C638.9 116.238 640.143 116.818 642.053 117.557C643.658 118.178 644.824 118.746 645.551 119.262C646.277 119.777 646.816 120.375 647.168 121.055C647.52 121.723 647.695 122.525 647.695 123.463ZM665.238 123.463C665.238 125.361 664.547 126.82 663.164 127.84C661.781 128.848 659.801 129.352 657.223 129.352C654.633 129.352 652.553 128.959 650.982 128.174V124.605C653.268 125.66 655.395 126.188 657.363 126.188C659.906 126.188 661.178 125.42 661.178 123.885C661.178 123.393 661.037 122.982 660.756 122.654C660.475 122.326 660.012 121.986 659.367 121.635C658.723 121.283 657.826 120.885 656.678 120.439C654.439 119.572 652.922 118.705 652.125 117.838C651.34 116.971 650.947 115.846 650.947 114.463C650.947 112.799 651.615 111.51 652.951 110.596C654.299 109.67 656.127 109.207 658.436 109.207C660.721 109.207 662.883 109.67 664.922 110.596L663.586 113.707C661.488 112.84 659.725 112.406 658.295 112.406C656.115 112.406 655.025 113.027 655.025 114.27C655.025 114.879 655.307 115.395 655.869 115.816C656.443 116.238 657.686 116.818 659.596 117.557C661.201 118.178 662.367 118.746 663.094 119.262C663.82 119.777 664.359 120.375 664.711 121.055C665.062 121.723 665.238 122.525 665.238 123.463ZM668.033 121.107V117.592H677.068V121.107H668.033ZM691.184 129.352C688.723 129.352 686.812 128.467 685.453 126.697H685.207C685.371 128.338 685.453 129.334 685.453 129.686V137.648H681.322V109.559H684.662C684.756 109.922 684.949 110.789 685.242 112.16H685.453C686.742 110.191 688.676 109.207 691.254 109.207C693.68 109.207 695.566 110.086 696.914 111.844C698.273 113.602 698.953 116.068 698.953 119.244C698.953 122.42 698.262 124.898 696.879 126.68C695.508 128.461 693.609 129.352 691.184 129.352ZM690.182 112.582C688.541 112.582 687.34 113.062 686.578 114.023C685.828 114.984 685.453 116.52 685.453 118.629V119.244C685.453 121.611 685.828 123.328 686.578 124.395C687.328 125.449 688.553 125.977 690.252 125.977C691.682 125.977 692.783 125.391 693.557 124.219C694.33 123.047 694.717 121.377 694.717 119.209C694.717 117.029 694.33 115.383 693.557 114.27C692.795 113.145 691.67 112.582 690.182 112.582ZM713.613 109.207C714.445 109.207 715.131 109.266 715.67 109.383L715.266 113.232C714.68 113.092 714.07 113.021 713.438 113.021C711.785 113.021 710.443 113.561 709.412 114.639C708.393 115.717 707.883 117.117 707.883 118.84V129H703.752V109.559H706.986L707.531 112.986H707.742C708.387 111.826 709.225 110.906 710.256 110.227C711.299 109.547 712.418 109.207 713.613 109.207ZM736.535 119.244C736.535 122.42 735.721 124.898 734.092 126.68C732.463 128.461 730.195 129.352 727.289 129.352C725.473 129.352 723.867 128.941 722.473 128.121C721.078 127.301 720.006 126.123 719.256 124.588C718.506 123.053 718.131 121.271 718.131 119.244C718.131 116.092 718.939 113.631 720.557 111.861C722.174 110.092 724.453 109.207 727.395 109.207C730.207 109.207 732.434 110.115 734.074 111.932C735.715 113.736 736.535 116.174 736.535 119.244ZM722.385 119.244C722.385 123.732 724.043 125.977 727.359 125.977C730.641 125.977 732.281 123.732 732.281 119.244C732.281 114.803 730.629 112.582 727.324 112.582C725.59 112.582 724.33 113.156 723.545 114.305C722.771 115.453 722.385 117.1 722.385 119.244ZM757.682 129H753.533V117.012C753.533 115.523 753.252 114.416 752.689 113.689C752.127 112.951 751.248 112.582 750.053 112.582C748.459 112.582 747.287 113.104 746.537 114.146C745.799 115.178 745.43 116.9 745.43 119.314V129H741.299V109.559H744.533L745.113 112.107H745.324C745.863 111.182 746.643 110.467 747.662 109.963C748.693 109.459 749.824 109.207 751.055 109.207C754.043 109.207 756.023 110.227 756.996 112.266H757.277C757.852 111.305 758.66 110.555 759.703 110.016C760.746 109.477 761.941 109.207 763.289 109.207C765.609 109.207 767.297 109.793 768.352 110.965C769.418 112.137 769.951 113.924 769.951 116.326V129H765.82V117.012C765.82 115.523 765.533 114.416 764.959 113.689C764.396 112.951 763.518 112.582 762.322 112.582C760.717 112.582 759.539 113.086 758.789 114.094C758.051 115.09 757.682 116.625 757.682 118.699V129ZM792.961 119.244C792.961 122.42 792.146 124.898 790.518 126.68C788.889 128.461 786.621 129.352 783.715 129.352C781.898 129.352 780.293 128.941 778.898 128.121C777.504 127.301 776.432 126.123 775.682 124.588C774.932 123.053 774.557 121.271 774.557 119.244C774.557 116.092 775.365 113.631 776.982 111.861C778.6 110.092 780.879 109.207 783.82 109.207C786.633 109.207 788.859 110.115 790.5 111.932C792.141 113.736 792.961 116.174 792.961 119.244ZM778.811 119.244C778.811 123.732 780.469 125.977 783.785 125.977C787.066 125.977 788.707 123.732 788.707 119.244C788.707 114.803 787.055 112.582 783.75 112.582C782.016 112.582 780.756 113.156 779.971 114.305C779.197 115.453 778.811 117.1 778.811 119.244ZM804.967 126.012C805.975 126.012 806.982 125.854 807.99 125.537V128.648C807.533 128.848 806.941 129.012 806.215 129.141C805.5 129.281 804.756 129.352 803.982 129.352C800.068 129.352 798.111 127.289 798.111 123.164V112.688H795.457V110.859L798.305 109.348L799.711 105.234H802.26V109.559H807.797V112.688H802.26V123.094C802.26 124.09 802.506 124.828 802.998 125.309C803.502 125.777 804.158 126.012 804.967 126.012ZM820.383 129.352C817.359 129.352 814.992 128.473 813.281 126.715C811.582 124.945 810.732 122.514 810.732 119.42C810.732 116.244 811.523 113.748 813.105 111.932C814.688 110.115 816.861 109.207 819.627 109.207C822.193 109.207 824.221 109.986 825.709 111.545C827.197 113.104 827.941 115.248 827.941 117.979V120.211H814.986C815.045 122.098 815.555 123.551 816.516 124.57C817.477 125.578 818.83 126.082 820.576 126.082C821.725 126.082 822.791 125.977 823.775 125.766C824.771 125.543 825.838 125.18 826.975 124.676V128.033C825.967 128.514 824.947 128.854 823.916 129.053C822.885 129.252 821.707 129.352 820.383 129.352ZM819.627 112.336C818.314 112.336 817.26 112.752 816.463 113.584C815.678 114.416 815.209 115.629 815.057 117.223H823.881C823.857 115.617 823.471 114.404 822.721 113.584C821.971 112.752 820.939 112.336 819.627 112.336ZM618.463 178.352C615.439 178.352 613.072 177.473 611.361 175.715C609.662 173.945 608.812 171.514 608.812 168.42C608.812 165.244 609.604 162.748 611.186 160.932C612.768 159.115 614.941 158.207 617.707 158.207C620.273 158.207 622.301 158.986 623.789 160.545C625.277 162.104 626.021 164.248 626.021 166.979V169.211H613.066C613.125 171.098 613.635 172.551 614.596 173.57C615.557 174.578 616.91 175.082 618.656 175.082C619.805 175.082 620.871 174.977 621.855 174.766C622.852 174.543 623.918 174.18 625.055 173.676V177.033C624.047 177.514 623.027 177.854 621.996 178.053C620.965 178.252 619.787 178.352 618.463 178.352ZM617.707 161.336C616.395 161.336 615.34 161.752 614.543 162.584C613.758 163.416 613.289 164.629 613.137 166.223H621.961C621.938 164.617 621.551 163.404 620.801 162.584C620.051 161.752 619.02 161.336 617.707 161.336ZM642.879 178L642.053 175.293H641.912C640.975 176.477 640.031 177.285 639.082 177.719C638.133 178.141 636.914 178.352 635.426 178.352C633.516 178.352 632.021 177.836 630.943 176.805C629.877 175.773 629.344 174.314 629.344 172.428C629.344 170.424 630.088 168.912 631.576 167.893C633.064 166.873 635.332 166.316 638.379 166.223L641.736 166.117V165.08C641.736 163.838 641.443 162.912 640.857 162.303C640.283 161.682 639.387 161.371 638.168 161.371C637.172 161.371 636.217 161.518 635.303 161.811C634.389 162.104 633.51 162.449 632.666 162.848L631.33 159.895C632.385 159.344 633.539 158.928 634.793 158.646C636.047 158.354 637.23 158.207 638.344 158.207C640.816 158.207 642.68 158.746 643.934 159.824C645.199 160.902 645.832 162.596 645.832 164.904V178H642.879ZM636.727 175.188C638.227 175.188 639.428 174.771 640.33 173.939C641.244 173.096 641.701 171.918 641.701 170.406V168.719L639.205 168.824C637.26 168.895 635.842 169.223 634.951 169.809C634.072 170.383 633.633 171.268 633.633 172.463C633.633 173.33 633.891 174.004 634.406 174.484C634.922 174.953 635.695 175.188 636.727 175.188ZM659.438 178.352C656.496 178.352 654.258 177.496 652.723 175.785C651.199 174.062 650.438 171.596 650.438 168.385C650.438 165.115 651.234 162.602 652.828 160.844C654.434 159.086 656.748 158.207 659.771 158.207C661.822 158.207 663.668 158.588 665.309 159.35L664.061 162.672C662.314 161.992 660.873 161.652 659.736 161.652C656.373 161.652 654.691 163.885 654.691 168.35C654.691 170.529 655.107 172.17 655.939 173.271C656.783 174.361 658.014 174.906 659.631 174.906C661.471 174.906 663.211 174.449 664.852 173.535V177.139C664.113 177.572 663.322 177.883 662.479 178.07C661.646 178.258 660.633 178.352 659.438 178.352ZM686.525 178H682.377V166.047C682.377 164.547 682.072 163.428 681.463 162.689C680.865 161.951 679.91 161.582 678.598 161.582C676.863 161.582 675.586 162.104 674.766 163.146C673.957 164.178 673.553 165.912 673.553 168.35V178H669.422V150.648H673.553V157.592C673.553 158.705 673.482 159.895 673.342 161.16H673.605C674.168 160.223 674.947 159.496 675.943 158.98C676.951 158.465 678.123 158.207 679.459 158.207C684.17 158.207 686.525 160.58 686.525 165.326V178ZM718.869 168.244C718.869 171.42 718.055 173.898 716.426 175.68C714.797 177.461 712.529 178.352 709.623 178.352C707.807 178.352 706.201 177.941 704.807 177.121C703.412 176.301 702.34 175.123 701.59 173.588C700.84 172.053 700.465 170.271 700.465 168.244C700.465 165.092 701.273 162.631 702.891 160.861C704.508 159.092 706.787 158.207 709.729 158.207C712.541 158.207 714.768 159.115 716.408 160.932C718.049 162.736 718.869 165.174 718.869 168.244ZM704.719 168.244C704.719 172.732 706.377 174.977 709.693 174.977C712.975 174.977 714.615 172.732 714.615 168.244C714.615 163.803 712.963 161.582 709.658 161.582C707.924 161.582 706.664 162.156 705.879 163.305C705.105 164.453 704.719 166.1 704.719 168.244ZM730.875 175.012C731.883 175.012 732.891 174.854 733.898 174.537V177.648C733.441 177.848 732.85 178.012 732.123 178.141C731.408 178.281 730.664 178.352 729.891 178.352C725.977 178.352 724.02 176.289 724.02 172.164V161.688H721.365V159.859L724.213 158.348L725.619 154.234H728.168V158.559H733.705V161.688H728.168V172.094C728.168 173.09 728.414 173.828 728.906 174.309C729.41 174.777 730.066 175.012 730.875 175.012ZM754.904 178H750.756V166.047C750.756 164.547 750.451 163.428 749.842 162.689C749.244 161.951 748.289 161.582 746.977 161.582C745.242 161.582 743.965 162.104 743.145 163.146C742.336 164.178 741.932 165.912 741.932 168.35V178H737.801V150.648H741.932V157.592C741.932 158.705 741.861 159.895 741.721 161.16H741.984C742.547 160.223 743.326 159.496 744.322 158.98C745.33 158.465 746.502 158.207 747.838 158.207C752.549 158.207 754.904 160.58 754.904 165.326V178ZM769.143 178.352C766.119 178.352 763.752 177.473 762.041 175.715C760.342 173.945 759.492 171.514 759.492 168.42C759.492 165.244 760.283 162.748 761.865 160.932C763.447 159.115 765.621 158.207 768.387 158.207C770.953 158.207 772.98 158.986 774.469 160.545C775.957 162.104 776.701 164.248 776.701 166.979V169.211H763.746C763.805 171.098 764.314 172.551 765.275 173.57C766.236 174.578 767.59 175.082 769.336 175.082C770.484 175.082 771.551 174.977 772.535 174.766C773.531 174.543 774.598 174.18 775.734 173.676V177.033C774.727 177.514 773.707 177.854 772.676 178.053C771.645 178.252 770.467 178.352 769.143 178.352ZM768.387 161.336C767.074 161.336 766.02 161.752 765.223 162.584C764.438 163.416 763.969 164.629 763.816 166.223H772.641C772.617 164.617 772.23 163.404 771.48 162.584C770.73 161.752 769.699 161.336 768.387 161.336ZM791.256 158.207C792.088 158.207 792.773 158.266 793.312 158.383L792.908 162.232C792.322 162.092 791.713 162.021 791.08 162.021C789.428 162.021 788.086 162.561 787.055 163.639C786.035 164.717 785.525 166.117 785.525 167.84V178H781.395V158.559H784.629L785.174 161.986H785.385C786.029 160.826 786.867 159.906 787.898 159.227C788.941 158.547 790.061 158.207 791.256 158.207Z" fill="white"/>
<path d="M70.6523 126V100.301H74.8535V126H70.6523ZM98.3203 126H94.1719V114.047C94.1719 112.547 93.8672 111.428 93.2578 110.689C92.6602 109.951 91.7051 109.582 90.3926 109.582C88.6465 109.582 87.3691 110.098 86.5605 111.129C85.752 112.16 85.3477 113.889 85.3477 116.314V126H81.2168V106.559H84.4512L85.0312 109.107H85.2422C85.8281 108.182 86.6602 107.467 87.7383 106.963C88.8164 106.459 90.0117 106.207 91.3242 106.207C95.9883 106.207 98.3203 108.58 98.3203 113.326V126ZM111.908 126.352C108.967 126.352 106.729 125.496 105.193 123.785C103.67 122.062 102.908 119.596 102.908 116.385C102.908 113.115 103.705 110.602 105.299 108.844C106.904 107.086 109.219 106.207 112.242 106.207C114.293 106.207 116.139 106.588 117.779 107.35L116.531 110.672C114.785 109.992 113.344 109.652 112.207 109.652C108.844 109.652 107.162 111.885 107.162 116.35C107.162 118.529 107.578 120.17 108.41 121.271C109.254 122.361 110.484 122.906 112.102 122.906C113.941 122.906 115.682 122.449 117.322 121.535V125.139C116.584 125.572 115.793 125.883 114.949 126.07C114.117 126.258 113.104 126.352 111.908 126.352ZM131.754 106.207C132.586 106.207 133.271 106.266 133.811 106.383L133.406 110.232C132.82 110.092 132.211 110.021 131.578 110.021C129.926 110.021 128.584 110.561 127.553 111.639C126.533 112.717 126.023 114.117 126.023 115.84V126H121.893V106.559H125.127L125.672 109.986H125.883C126.527 108.826 127.365 107.906 128.396 107.227C129.439 106.547 130.559 106.207 131.754 106.207ZM145.922 126.352C142.898 126.352 140.531 125.473 138.82 123.715C137.121 121.945 136.271 119.514 136.271 116.42C136.271 113.244 137.062 110.748 138.645 108.932C140.227 107.115 142.4 106.207 145.166 106.207C147.732 106.207 149.76 106.986 151.248 108.545C152.736 110.104 153.48 112.248 153.48 114.979V117.211H140.525C140.584 119.098 141.094 120.551 142.055 121.57C143.016 122.578 144.369 123.082 146.115 123.082C147.264 123.082 148.33 122.977 149.314 122.766C150.311 122.543 151.377 122.18 152.514 121.676V125.033C151.506 125.514 150.486 125.854 149.455 126.053C148.424 126.252 147.246 126.352 145.922 126.352ZM145.166 109.336C143.854 109.336 142.799 109.752 142.002 110.584C141.217 111.416 140.748 112.629 140.596 114.223H149.42C149.396 112.617 149.01 111.404 148.26 110.584C147.51 109.752 146.479 109.336 145.166 109.336ZM170.338 126L169.512 123.293H169.371C168.434 124.477 167.49 125.285 166.541 125.719C165.592 126.141 164.373 126.352 162.885 126.352C160.975 126.352 159.48 125.836 158.402 124.805C157.336 123.773 156.803 122.314 156.803 120.428C156.803 118.424 157.547 116.912 159.035 115.893C160.523 114.873 162.791 114.316 165.838 114.223L169.195 114.117V113.08C169.195 111.838 168.902 110.912 168.316 110.303C167.742 109.682 166.846 109.371 165.627 109.371C164.631 109.371 163.676 109.518 162.762 109.811C161.848 110.104 160.969 110.449 160.125 110.848L158.789 107.895C159.844 107.344 160.998 106.928 162.252 106.646C163.506 106.354 164.689 106.207 165.803 106.207C168.275 106.207 170.139 106.746 171.393 107.824C172.658 108.902 173.291 110.596 173.291 112.904V126H170.338ZM164.186 123.188C165.686 123.188 166.887 122.771 167.789 121.939C168.703 121.096 169.16 119.918 169.16 118.406V116.719L166.664 116.824C164.719 116.895 163.301 117.223 162.41 117.809C161.531 118.383 161.092 119.268 161.092 120.463C161.092 121.33 161.35 122.004 161.865 122.484C162.381 122.953 163.154 123.188 164.186 123.188ZM192.117 120.463C192.117 122.361 191.426 123.82 190.043 124.84C188.66 125.848 186.68 126.352 184.102 126.352C181.512 126.352 179.432 125.959 177.861 125.174V121.605C180.146 122.66 182.273 123.188 184.242 123.188C186.785 123.188 188.057 122.42 188.057 120.885C188.057 120.393 187.916 119.982 187.635 119.654C187.354 119.326 186.891 118.986 186.246 118.635C185.602 118.283 184.705 117.885 183.557 117.439C181.318 116.572 179.801 115.705 179.004 114.838C178.219 113.971 177.826 112.846 177.826 111.463C177.826 109.799 178.494 108.51 179.83 107.596C181.178 106.67 183.006 106.207 185.314 106.207C187.6 106.207 189.762 106.67 191.801 107.596L190.465 110.707C188.367 109.84 186.604 109.406 185.174 109.406C182.994 109.406 181.904 110.027 181.904 111.27C181.904 111.879 182.186 112.395 182.748 112.816C183.322 113.238 184.564 113.818 186.475 114.557C188.08 115.178 189.246 115.746 189.973 116.262C190.699 116.777 191.238 117.375 191.59 118.055C191.941 118.723 192.117 119.525 192.117 120.463ZM205.09 126.352C202.066 126.352 199.699 125.473 197.988 123.715C196.289 121.945 195.439 119.514 195.439 116.42C195.439 113.244 196.23 110.748 197.812 108.932C199.395 107.115 201.568 106.207 204.334 106.207C206.9 106.207 208.928 106.986 210.416 108.545C211.904 110.104 212.648 112.248 212.648 114.979V117.211H199.693C199.752 119.098 200.262 120.551 201.223 121.57C202.184 122.578 203.537 123.082 205.283 123.082C206.432 123.082 207.498 122.977 208.482 122.766C209.479 122.543 210.545 122.18 211.682 121.676V125.033C210.674 125.514 209.654 125.854 208.623 126.053C207.592 126.252 206.414 126.352 205.09 126.352ZM204.334 109.336C203.021 109.336 201.967 109.752 201.17 110.584C200.385 111.416 199.916 112.629 199.764 114.223H208.588C208.564 112.617 208.178 111.404 207.428 110.584C206.678 109.752 205.646 109.336 204.334 109.336ZM88.6699 162.115C88.6699 166.299 87.6211 169.551 85.5234 171.871C83.4375 174.191 80.4785 175.352 76.6465 175.352C72.7676 175.352 69.7852 174.203 67.6992 171.906C65.625 169.598 64.5879 166.322 64.5879 162.08C64.5879 157.838 65.6309 154.58 67.7168 152.307C69.8145 150.033 72.8027 148.896 76.6816 148.896C80.502 148.896 83.4551 150.051 85.541 152.359C87.627 154.668 88.6699 157.92 88.6699 162.115ZM69.0527 162.115C69.0527 165.279 69.6914 167.682 70.9688 169.322C72.2461 170.951 74.1387 171.766 76.6465 171.766C79.1426 171.766 81.0234 170.957 82.2891 169.34C83.5664 167.723 84.2051 165.314 84.2051 162.115C84.2051 158.963 83.5723 156.572 82.3066 154.943C81.0527 153.314 79.1777 152.5 76.6816 152.5C74.1621 152.5 72.2578 153.314 70.9688 154.943C69.6914 156.572 69.0527 158.963 69.0527 162.115ZM110.854 175H106.705V163.047C106.705 161.547 106.4 160.428 105.791 159.689C105.193 158.951 104.238 158.582 102.926 158.582C101.18 158.582 99.9023 159.098 99.0938 160.129C98.2852 161.16 97.8809 162.889 97.8809 165.314V175H93.75V155.559H96.9844L97.5645 158.107H97.7754C98.3613 157.182 99.1934 156.467 100.271 155.963C101.35 155.459 102.545 155.207 103.857 155.207C108.521 155.207 110.854 157.58 110.854 162.326V175ZM114.914 167.107V163.592H123.949V167.107H114.914ZM138.135 155.207C140.561 155.207 142.447 156.086 143.795 157.844C145.154 159.602 145.834 162.068 145.834 165.244C145.834 168.432 145.148 170.916 143.777 172.697C142.406 174.467 140.502 175.352 138.064 175.352C135.604 175.352 133.693 174.467 132.334 172.697H132.053L131.297 175H128.203V147.648H132.334V154.152C132.334 154.633 132.311 155.348 132.264 156.297C132.217 157.246 132.182 157.85 132.158 158.107H132.334C133.646 156.174 135.58 155.207 138.135 155.207ZM137.062 158.582C135.398 158.582 134.197 159.074 133.459 160.059C132.732 161.031 132.357 162.666 132.334 164.963V165.244C132.334 167.611 132.709 169.328 133.459 170.395C134.209 171.449 135.434 171.977 137.133 171.977C138.598 171.977 139.705 171.396 140.455 170.236C141.217 169.076 141.598 167.4 141.598 165.209C141.598 160.791 140.086 158.582 137.062 158.582ZM167.877 165.244C167.877 168.42 167.062 170.898 165.434 172.68C163.805 174.461 161.537 175.352 158.631 175.352C156.814 175.352 155.209 174.941 153.814 174.121C152.42 173.301 151.348 172.123 150.598 170.588C149.848 169.053 149.473 167.271 149.473 165.244C149.473 162.092 150.281 159.631 151.898 157.861C153.516 156.092 155.795 155.207 158.736 155.207C161.549 155.207 163.775 156.115 165.416 157.932C167.057 159.736 167.877 162.174 167.877 165.244ZM153.727 165.244C153.727 169.732 155.385 171.977 158.701 171.977C161.982 171.977 163.623 169.732 163.623 165.244C163.623 160.803 161.971 158.582 158.666 158.582C156.932 158.582 155.672 159.156 154.887 160.305C154.113 161.453 153.727 163.1 153.727 165.244ZM184.805 175L183.979 172.293H183.838C182.9 173.477 181.957 174.285 181.008 174.719C180.059 175.141 178.84 175.352 177.352 175.352C175.441 175.352 173.947 174.836 172.869 173.805C171.803 172.773 171.27 171.314 171.27 169.428C171.27 167.424 172.014 165.912 173.502 164.893C174.99 163.873 177.258 163.316 180.305 163.223L183.662 163.117V162.08C183.662 160.838 183.369 159.912 182.783 159.303C182.209 158.682 181.312 158.371 180.094 158.371C179.098 158.371 178.143 158.518 177.229 158.811C176.314 159.104 175.436 159.449 174.592 159.848L173.256 156.895C174.311 156.344 175.465 155.928 176.719 155.646C177.973 155.354 179.156 155.207 180.27 155.207C182.742 155.207 184.605 155.746 185.859 156.824C187.125 157.902 187.758 159.596 187.758 161.904V175H184.805ZM178.652 172.188C180.152 172.188 181.354 171.771 182.256 170.939C183.17 170.096 183.627 168.918 183.627 167.406V165.719L181.131 165.824C179.186 165.895 177.768 166.223 176.877 166.809C175.998 167.383 175.559 168.268 175.559 169.463C175.559 170.33 175.816 171.004 176.332 171.484C176.848 171.953 177.621 172.188 178.652 172.188ZM203.385 155.207C204.217 155.207 204.902 155.266 205.441 155.383L205.037 159.232C204.451 159.092 203.842 159.021 203.209 159.021C201.557 159.021 200.215 159.561 199.184 160.639C198.164 161.717 197.654 163.117 197.654 164.84V175H193.523V155.559H196.758L197.303 158.986H197.514C198.158 157.826 198.996 156.906 200.027 156.227C201.07 155.547 202.189 155.207 203.385 155.207ZM215.619 175.352C213.193 175.352 211.301 174.473 209.941 172.715C208.582 170.957 207.902 168.49 207.902 165.314C207.902 162.127 208.588 159.648 209.959 157.879C211.342 156.098 213.252 155.207 215.689 155.207C218.244 155.207 220.189 156.15 221.525 158.037H221.736C221.537 156.643 221.438 155.541 221.438 154.732V147.648H225.586V175H222.352L221.631 172.451H221.438C220.113 174.385 218.174 175.352 215.619 175.352ZM216.727 172.012C218.426 172.012 219.662 171.537 220.436 170.588C221.209 169.627 221.607 168.074 221.631 165.93V165.35C221.631 162.9 221.232 161.16 220.436 160.129C219.639 159.098 218.391 158.582 216.691 158.582C215.238 158.582 214.119 159.174 213.334 160.357C212.549 161.529 212.156 163.205 212.156 165.385C212.156 167.541 212.537 169.188 213.299 170.324C214.061 171.449 215.203 172.012 216.727 172.012Z" fill="white"/>
<defs>
<clipPath id="clip0">
<rect width="50.2255" height="50.2255" fill="white" transform="translate(387 145.515) rotate(-45)"/>
</clipPath>
</defs>
</svg>
