<svg width="1920" height="883" viewBox="0 0 1920 883" fill="none" xmlns="http://www.w3.org/2000/svg">
<rect width="1920" height="883" fill="url(#paint0_linear)"/>
<mask id="mask0" style="mask-type:alpha" maskUnits="userSpaceOnUse" x="0" y="0" width="1920" height="883">
<rect width="1920" height="883" fill="#C4C4C4"/>
</mask>
<g mask="url(#mask0)">
<circle cx="1547" cy="769" r="433" stroke="white" stroke-opacity="0.1" stroke-width="100"/>
</g>
<path d="M1692.25 67.418L1779.47 26L1836.15 111.561L1748.94 152.979L1692.25 67.418Z" fill="url(#paint1_linear)"/>
<path d="M1836.15 111.561L1808.9 162.788L1722.23 204.206L1748.94 152.979L1836.15 111.561Z" fill="url(#paint2_linear)"/>
<path d="M1748.94 152.979L1722.23 204.206L1665 118.646L1692.25 67.4185L1748.94 152.979Z" fill="url(#paint3_linear)"/>
<defs>
<linearGradient id="paint0_linear" x1="-5.28367e-06" y1="209.304" x2="1862.32" y2="797.146" gradientUnits="userSpaceOnUse">
<stop stop-color="#7AB9FC"/>
<stop offset="1" stop-color="#D2B4FC"/>
</linearGradient>
<linearGradient id="paint1_linear" x1="1765.03" y1="152.513" x2="1763.17" y2="26.181" gradientUnits="userSpaceOnUse">
<stop stop-color="white"/>
<stop offset="0.2815" stop-color="#F8EAFE"/>
<stop offset="0.7384" stop-color="#EFCDFD"/>
<stop offset="1" stop-color="#EBC2FC"/>
</linearGradient>
<linearGradient id="paint2_linear" x1="1673.36" y1="159.416" x2="1873.91" y2="156.468" gradientUnits="userSpaceOnUse">
<stop stop-color="white"/>
<stop offset="0.2815" stop-color="#F8EAFE"/>
<stop offset="0.7384" stop-color="#EFCDFD"/>
<stop offset="1" stop-color="#EBC2FC"/>
</linearGradient>
<linearGradient id="paint3_linear" x1="1619.22" y1="34.4116" x2="1741.37" y2="175.231" gradientUnits="userSpaceOnUse">
<stop stop-color="white"/>
<stop offset="0.2815" stop-color="#F8EAFE"/>
<stop offset="0.7384" stop-color="#EFCDFD"/>
<stop offset="1" stop-color="#EBC2FC"/>
</linearGradient>
</defs>
</svg>
